<svg width="261" height="249" viewBox="0 0 261 249" fill="none" xmlns="http://www.w3.org/2000/svg">
<path d="M9.632 149.624C8.32 149.624 7.088 149.448 5.936 149.096C4.8 148.744 3.832 148.24 3.032 147.584L4.088 145.328C4.92 145.952 5.784 146.416 6.68 146.72C7.592 147.008 8.584 147.152 9.656 147.152C10.84 147.152 11.752 146.944 12.392 146.528C13.048 146.112 13.376 145.528 13.376 144.776C13.376 144.136 13.072 143.648 12.464 143.312C11.872 142.96 10.888 142.632 9.512 142.328C7.368 141.864 5.808 141.264 4.832 140.528C3.856 139.792 3.368 138.72 3.368 137.312C3.368 136.304 3.64 135.408 4.184 134.624C4.728 133.84 5.496 133.224 6.488 132.776C7.496 132.328 8.656 132.104 9.968 132.104C11.168 132.104 12.304 132.288 13.376 132.656C14.464 133.008 15.352 133.504 16.04 134.144L15.008 136.4C13.488 135.184 11.808 134.576 9.968 134.576C8.864 134.576 7.992 134.808 7.352 135.272C6.712 135.72 6.392 136.336 6.392 137.12C6.392 137.792 6.672 138.304 7.232 138.656C7.808 139.008 8.784 139.336 10.16 139.64C11.584 139.976 12.744 140.344 13.64 140.744C14.536 141.128 15.224 141.632 15.704 142.256C16.184 142.864 16.424 143.632 16.424 144.56C16.424 145.584 16.152 146.48 15.608 147.248C15.064 148 14.28 148.584 13.256 149C12.232 149.416 11.024 149.624 9.632 149.624ZM29.6853 143.504H21.3333C21.3973 144.8 21.7173 145.76 22.2933 146.384C22.8853 146.992 23.7573 147.296 24.9093 147.296C26.2373 147.296 27.4693 146.864 28.6053 146L29.4693 148.064C28.8933 148.528 28.1813 148.904 27.3333 149.192C26.5013 149.464 25.6533 149.6 24.7893 149.6C22.8053 149.6 21.2453 149.04 20.1093 147.92C18.9733 146.8 18.4053 145.264 18.4053 143.312C18.4053 142.08 18.6533 140.984 19.1493 140.024C19.6453 139.064 20.3413 138.32 21.2373 137.792C22.1333 137.248 23.1493 136.976 24.2853 136.976C25.9493 136.976 27.2613 137.52 28.2213 138.608C29.1973 139.68 29.6853 141.16 29.6853 143.048V143.504ZM24.3573 139.136C23.5573 139.136 22.9013 139.376 22.3893 139.856C21.8933 140.32 21.5733 141 21.4293 141.896H27.0693C26.9733 140.984 26.6933 140.296 26.2293 139.832C25.7813 139.368 25.1573 139.136 24.3573 139.136ZM43.8177 137.288V149.408H40.8658V147.464C40.4978 148.136 39.9698 148.664 39.2818 149.048C38.5938 149.416 37.8098 149.6 36.9297 149.6C35.8738 149.6 34.9378 149.344 34.1217 148.832C33.3058 148.32 32.6738 147.592 32.2258 146.648C31.7778 145.704 31.5538 144.608 31.5538 143.36C31.5538 142.112 31.7778 141.008 32.2258 140.048C32.6898 139.072 33.3298 138.32 34.1458 137.792C34.9618 137.248 35.8898 136.976 36.9297 136.976C37.8098 136.976 38.5938 137.168 39.2818 137.552C39.9698 137.92 40.4978 138.44 40.8658 139.112V137.288H43.8177ZM37.7458 147.248C38.7378 147.248 39.5058 146.904 40.0498 146.216C40.5938 145.528 40.8658 144.56 40.8658 143.312C40.8658 142.032 40.5938 141.048 40.0498 140.36C39.5058 139.672 38.7298 139.328 37.7218 139.328C36.7298 139.328 35.9538 139.688 35.3938 140.408C34.8498 141.112 34.5778 142.096 34.5778 143.36C34.5778 144.608 34.8498 145.568 35.3938 146.24C35.9538 146.912 36.7378 147.248 37.7458 147.248ZM53.6131 137C54.0771 137 54.4771 137.064 54.8131 137.192L54.7891 139.928C54.2771 139.72 53.7491 139.616 53.2051 139.616C52.1811 139.616 51.3971 139.912 50.8531 140.504C50.3251 141.096 50.0611 141.88 50.0611 142.856V149.408H47.0851V140.72C47.0851 139.44 47.0211 138.296 46.8931 137.288H49.7011L49.9411 139.424C50.2451 138.64 50.7251 138.04 51.3811 137.624C52.0371 137.208 52.7811 137 53.6131 137ZM61.7452 149.6C60.4812 149.6 59.3852 149.344 58.4572 148.832C57.5292 148.32 56.8172 147.6 56.3212 146.672C55.8252 145.728 55.5772 144.624 55.5772 143.36C55.5772 142.096 55.8332 140.984 56.3452 140.024C56.8732 139.064 57.6092 138.32 58.5532 137.792C59.5132 137.248 60.6172 136.976 61.8652 136.976C62.7292 136.976 63.5612 137.112 64.3612 137.384C65.1772 137.656 65.8252 138.032 66.3052 138.512L65.4652 140.624C64.9532 140.208 64.4092 139.896 63.8332 139.688C63.2572 139.464 62.6892 139.352 62.1292 139.352C61.0412 139.352 60.1932 139.696 59.5852 140.384C58.9772 141.056 58.6732 142.032 58.6732 143.312C58.6732 144.592 58.9692 145.568 59.5612 146.24C60.1692 146.912 61.0252 147.248 62.1292 147.248C62.6892 147.248 63.2572 147.136 63.8332 146.912C64.4092 146.688 64.9532 146.368 65.4652 145.952L66.3052 148.064C65.7932 148.544 65.1292 148.92 64.3132 149.192C63.4972 149.464 62.6412 149.6 61.7452 149.6ZM75.2555 136.976C78.1515 136.976 79.5995 138.64 79.5995 141.968V149.408H76.5995V142.112C76.5995 141.152 76.4155 140.456 76.0475 140.024C75.6795 139.576 75.1115 139.352 74.3435 139.352C73.4315 139.352 72.6955 139.648 72.1355 140.24C71.5755 140.816 71.2955 141.584 71.2955 142.544V149.408H68.3195V131.744H71.2955V139.04C71.7115 138.384 72.2635 137.88 72.9515 137.528C73.6395 137.16 74.4075 136.976 75.2555 136.976ZM100.958 131.744V149.408H98.0064V147.464C97.6384 148.136 97.1104 148.664 96.4224 149.048C95.7344 149.416 94.9504 149.6 94.0704 149.6C93.0304 149.6 92.1024 149.336 91.2864 148.808C90.4704 148.28 89.8304 147.536 89.3664 146.576C88.9184 145.6 88.6944 144.488 88.6944 143.24C88.6944 141.992 88.9184 140.896 89.3664 139.952C89.8144 139.008 90.4464 138.28 91.2624 137.768C92.0784 137.24 93.0144 136.976 94.0704 136.976C94.9344 136.976 95.7024 137.16 96.3744 137.528C97.0624 137.88 97.5904 138.384 97.9584 139.04V131.744H100.958ZM94.8624 147.248C95.8544 147.248 96.6224 146.904 97.1664 146.216C97.7264 145.528 98.0064 144.552 98.0064 143.288C98.0064 142.024 97.7344 141.048 97.1904 140.36C96.6464 139.672 95.8784 139.328 94.8864 139.328C93.8784 139.328 93.0944 139.672 92.5344 140.36C91.9904 141.032 91.7184 141.992 91.7184 143.24C91.7184 144.504 91.9904 145.488 92.5344 146.192C93.0944 146.896 93.8704 147.248 94.8624 147.248ZM109.722 149.6C108.49 149.6 107.402 149.344 106.458 148.832C105.53 148.32 104.81 147.592 104.298 146.648C103.802 145.688 103.554 144.568 103.554 143.288C103.554 142.008 103.802 140.896 104.298 139.952C104.81 138.992 105.53 138.256 106.458 137.744C107.402 137.232 108.49 136.976 109.722 136.976C110.938 136.976 112.01 137.232 112.938 137.744C113.866 138.256 114.578 138.992 115.074 139.952C115.586 140.896 115.842 142.008 115.842 143.288C115.842 144.568 115.586 145.688 115.074 146.648C114.578 147.592 113.866 148.32 112.938 148.832C112.01 149.344 110.938 149.6 109.722 149.6ZM109.698 147.248C110.722 147.248 111.498 146.92 112.026 146.264C112.57 145.592 112.842 144.6 112.842 143.288C112.842 141.992 112.57 141.008 112.026 140.336C111.482 139.648 110.714 139.304 109.722 139.304C108.714 139.304 107.938 139.648 107.394 140.336C106.85 141.008 106.578 141.992 106.578 143.288C106.578 144.6 106.842 145.592 107.37 146.264C107.914 146.92 108.69 147.248 109.698 147.248ZM123.925 149.6C122.661 149.6 121.565 149.344 120.637 148.832C119.709 148.32 118.997 147.6 118.501 146.672C118.005 145.728 117.757 144.624 117.757 143.36C117.757 142.096 118.013 140.984 118.525 140.024C119.053 139.064 119.789 138.32 120.733 137.792C121.693 137.248 122.797 136.976 124.045 136.976C124.909 136.976 125.741 137.112 126.541 137.384C127.357 137.656 128.005 138.032 128.485 138.512L127.645 140.624C127.133 140.208 126.589 139.896 126.013 139.688C125.437 139.464 124.869 139.352 124.309 139.352C123.221 139.352 122.373 139.696 121.765 140.384C121.157 141.056 120.853 142.032 120.853 143.312C120.853 144.592 121.149 145.568 121.741 146.24C122.349 146.912 123.205 147.248 124.309 147.248C124.869 147.248 125.437 147.136 126.013 146.912C126.589 146.688 127.133 146.368 127.645 145.952L128.485 148.064C127.973 148.544 127.309 148.92 126.493 149.192C125.677 149.464 124.821 149.6 123.925 149.6ZM134.386 139.544V144.968C134.386 146.392 135.05 147.104 136.378 147.104C136.746 147.104 137.146 147.04 137.578 146.912V149.288C137.05 149.48 136.41 149.576 135.658 149.576C134.282 149.576 133.226 149.192 132.49 148.424C131.754 147.656 131.386 146.552 131.386 145.112V139.544H129.058V137.288H131.386V134.336L134.386 133.328V137.288H137.602V139.544H134.386ZM145.159 149.6C143.927 149.6 142.839 149.344 141.895 148.832C140.967 148.32 140.247 147.592 139.735 146.648C139.239 145.688 138.991 144.568 138.991 143.288C138.991 142.008 139.239 140.896 139.735 139.952C140.247 138.992 140.967 138.256 141.895 137.744C142.839 137.232 143.927 136.976 145.159 136.976C146.375 136.976 147.447 137.232 148.375 137.744C149.303 138.256 150.015 138.992 150.511 139.952C151.023 140.896 151.279 142.008 151.279 143.288C151.279 144.568 151.023 145.688 150.511 146.648C150.015 147.592 149.303 148.32 148.375 148.832C147.447 149.344 146.375 149.6 145.159 149.6ZM145.135 147.248C146.159 147.248 146.935 146.92 147.463 146.264C148.007 145.592 148.279 144.6 148.279 143.288C148.279 141.992 148.007 141.008 147.463 140.336C146.919 139.648 146.151 139.304 145.159 139.304C144.151 139.304 143.375 139.648 142.831 140.336C142.287 141.008 142.015 141.992 142.015 143.288C142.015 144.6 142.279 145.592 142.807 146.264C143.351 146.92 144.127 147.248 145.135 147.248ZM160.394 137C160.858 137 161.258 137.064 161.594 137.192L161.57 139.928C161.058 139.72 160.53 139.616 159.986 139.616C158.962 139.616 158.178 139.912 157.634 140.504C157.106 141.096 156.842 141.88 156.842 142.856V149.408H153.866V140.72C153.866 139.44 153.802 138.296 153.674 137.288H156.482L156.722 139.424C157.026 138.64 157.506 138.04 158.162 137.624C158.818 137.208 159.562 137 160.394 137Z" fill="black"/>
<path d="M8.208 189.536C7.152 189.536 6.23467 189.306 5.456 188.848C4.67733 188.378 4.08 187.706 3.664 186.832C3.248 185.946 3.04 184.901 3.04 183.696C3.04 182.501 3.248 181.466 3.664 180.592C4.08 179.717 4.67733 179.05 5.456 178.592C6.23467 178.122 7.152 177.888 8.208 177.888C8.99733 177.888 9.71733 178.016 10.368 178.272C11.0293 178.517 11.6 178.885 12.08 179.376L11.664 180.16C11.12 179.669 10.576 179.317 10.032 179.104C9.488 178.88 8.88 178.768 8.208 178.768C6.896 178.768 5.87733 179.2 5.152 180.064C4.42667 180.917 4.064 182.128 4.064 183.696C4.064 185.274 4.42133 186.496 5.136 187.36C5.86133 188.224 6.88533 188.656 8.208 188.656C8.88 188.656 9.488 188.549 10.032 188.336C10.576 188.112 11.12 187.754 11.664 187.264L12.08 188.048C11.6 188.538 11.0293 188.912 10.368 189.168C9.71733 189.413 8.99733 189.536 8.208 189.536ZM17.9935 181.2C19.9242 181.2 20.8895 182.234 20.8895 184.304V189.408H19.9135V184.368C19.9135 183.568 19.7482 182.981 19.4175 182.608C19.0975 182.234 18.5908 182.048 17.8975 182.048C17.0975 182.048 16.4522 182.293 15.9615 182.784C15.4708 183.274 15.2255 183.936 15.2255 184.768V189.408H14.2655V177.632H15.2255V182.784C15.4815 182.261 15.8495 181.866 16.3295 181.6C16.8095 181.333 17.3642 181.2 17.9935 181.2ZM26.6995 189.52C25.9635 189.52 25.3128 189.349 24.7475 189.008C24.1928 188.666 23.7608 188.181 23.4515 187.552C23.1528 186.922 23.0035 186.192 23.0035 185.36C23.0035 184.528 23.1528 183.797 23.4515 183.168C23.7608 182.538 24.1928 182.053 24.7475 181.712C25.3128 181.37 25.9635 181.2 26.6995 181.2C27.4248 181.2 28.0648 181.37 28.6195 181.712C29.1742 182.053 29.6008 182.538 29.8995 183.168C30.2088 183.797 30.3635 184.528 30.3635 185.36C30.3635 186.192 30.2088 186.922 29.8995 187.552C29.6008 188.181 29.1742 188.666 28.6195 189.008C28.0648 189.349 27.4248 189.52 26.6995 189.52ZM26.6835 188.656C27.5368 188.656 28.1928 188.373 28.6515 187.808C29.1208 187.232 29.3555 186.416 29.3555 185.36C29.3555 184.314 29.1208 183.504 28.6515 182.928C28.1822 182.341 27.5315 182.048 26.6995 182.048C25.8568 182.048 25.2008 182.341 24.7315 182.928C24.2622 183.504 24.0275 184.314 24.0275 185.36C24.0275 186.426 24.2568 187.242 24.7155 187.808C25.1742 188.373 25.8302 188.656 26.6835 188.656ZM35.6839 189.52C34.9479 189.52 34.2972 189.349 33.7319 189.008C33.1772 188.666 32.7452 188.181 32.4359 187.552C32.1372 186.922 31.9879 186.192 31.9879 185.36C31.9879 184.528 32.1372 183.797 32.4359 183.168C32.7452 182.538 33.1772 182.053 33.7319 181.712C34.2972 181.37 34.9479 181.2 35.6839 181.2C36.4092 181.2 37.0492 181.37 37.6039 181.712C38.1585 182.053 38.5852 182.538 38.8839 183.168C39.1932 183.797 39.3479 184.528 39.3479 185.36C39.3479 186.192 39.1932 186.922 38.8839 187.552C38.5852 188.181 38.1585 188.666 37.6039 189.008C37.0492 189.349 36.4092 189.52 35.6839 189.52ZM35.6679 188.656C36.5212 188.656 37.1772 188.373 37.6359 187.808C38.1052 187.232 38.3399 186.416 38.3399 185.36C38.3399 184.314 38.1052 183.504 37.6359 182.928C37.1665 182.341 36.5159 182.048 35.6839 182.048C34.8412 182.048 34.1852 182.341 33.7159 182.928C33.2465 183.504 33.0119 184.314 33.0119 185.36C33.0119 186.426 33.2412 187.242 33.6999 187.808C34.1585 188.373 34.8145 188.656 35.6679 188.656ZM44.0923 189.52C42.7909 189.52 41.7616 189.162 41.0043 188.448L41.3563 187.696C41.7829 188.048 42.2096 188.298 42.6363 188.448C43.0736 188.597 43.5749 188.672 44.1403 188.672C44.8016 188.672 45.3029 188.56 45.6443 188.336C45.9963 188.101 46.1723 187.765 46.1723 187.328C46.1723 186.965 46.0549 186.682 45.8203 186.48C45.5963 186.266 45.2229 186.096 44.7003 185.968L43.3403 185.664C42.7003 185.514 42.1936 185.248 41.8203 184.864C41.4576 184.48 41.2763 184.032 41.2763 183.52C41.2763 182.816 41.5429 182.256 42.0763 181.84C42.6203 181.413 43.3403 181.2 44.2363 181.2C44.8016 181.2 45.3243 181.29 45.8043 181.472C46.2949 181.653 46.7003 181.914 47.0203 182.256L46.6523 183.008C45.9163 182.368 45.1109 182.048 44.2363 182.048C43.6176 182.048 43.1376 182.17 42.7963 182.416C42.4549 182.661 42.2843 183.002 42.2843 183.44C42.2843 183.802 42.3909 184.096 42.6043 184.32C42.8283 184.544 43.1696 184.709 43.6283 184.816L45.0043 185.152C46.4443 185.472 47.1643 186.181 47.1643 187.28C47.1643 187.952 46.8869 188.496 46.3323 188.912C45.7776 189.317 45.0309 189.52 44.0923 189.52ZM49.9025 185.28V185.328C49.9025 186.405 50.1478 187.232 50.6385 187.808C51.1398 188.373 51.8652 188.656 52.8145 188.656C53.7745 188.656 54.6545 188.325 55.4545 187.664L55.8385 188.432C55.4865 188.762 55.0385 189.029 54.4945 189.232C53.9505 189.424 53.3905 189.52 52.8145 189.52C51.5985 189.52 50.6385 189.152 49.9345 188.416C49.2305 187.68 48.8785 186.666 48.8785 185.376C48.8785 184.554 49.0332 183.829 49.3425 183.2C49.6625 182.56 50.1052 182.069 50.6705 181.728C51.2358 181.376 51.8865 181.2 52.6225 181.2C53.6785 181.2 54.4998 181.541 55.0865 182.224C55.6838 182.906 55.9825 183.856 55.9825 185.072V185.28H49.9025ZM52.6225 182C51.8865 182 51.2892 182.224 50.8305 182.672C50.3718 183.109 50.0838 183.728 49.9665 184.528H55.0545C54.9905 183.706 54.7505 183.082 54.3345 182.656C53.9185 182.218 53.3478 182 52.6225 182ZM68.9561 181.392L65.1801 190.24C64.8068 191.114 64.3375 191.754 63.7721 192.16C63.2175 192.576 62.5188 192.869 61.6761 193.04L61.4841 192.272C62.2521 192.09 62.8281 191.856 63.2121 191.568C63.6068 191.28 63.9375 190.826 64.2041 190.208L64.5401 189.424L61.1161 181.392H62.1561L65.0521 188.432L67.9641 181.392H68.9561ZM73.6683 189.52C72.9323 189.52 72.2816 189.349 71.7163 189.008C71.1616 188.666 70.7296 188.181 70.4203 187.552C70.1216 186.922 69.9723 186.192 69.9723 185.36C69.9723 184.528 70.1216 183.797 70.4203 183.168C70.7296 182.538 71.1616 182.053 71.7163 181.712C72.2816 181.37 72.9323 181.2 73.6683 181.2C74.3936 181.2 75.0336 181.37 75.5883 181.712C76.1429 182.053 76.5696 182.538 76.8683 183.168C77.1776 183.797 77.3323 184.528 77.3323 185.36C77.3323 186.192 77.1776 186.922 76.8683 187.552C76.5696 188.181 76.1429 188.666 75.5883 189.008C75.0336 189.349 74.3936 189.52 73.6683 189.52ZM73.6523 188.656C74.5056 188.656 75.1616 188.373 75.6203 187.808C76.0896 187.232 76.3243 186.416 76.3243 185.36C76.3243 184.314 76.0896 183.504 75.6203 182.928C75.1509 182.341 74.5003 182.048 73.6683 182.048C72.8256 182.048 72.1696 182.341 71.7003 182.928C71.2309 183.504 70.9963 184.314 70.9963 185.36C70.9963 186.426 71.2256 187.242 71.6843 187.808C72.1429 188.373 72.7989 188.656 73.6523 188.656ZM85.9166 181.392V189.408H84.9726V187.952C84.7166 188.464 84.354 188.853 83.8846 189.12C83.4153 189.386 82.8766 189.52 82.2686 189.52C81.33 189.52 80.6206 189.258 80.1406 188.736C79.6606 188.213 79.4206 187.44 79.4206 186.416V181.392H80.3806V186.352C80.3806 187.141 80.5406 187.722 80.8606 188.096C81.1806 188.469 81.6766 188.656 82.3486 188.656C83.138 188.656 83.7673 188.41 84.2366 187.92C84.706 187.418 84.9406 186.757 84.9406 185.936V181.392H85.9166ZM92.034 181.2C92.3007 181.2 92.5353 181.221 92.738 181.264L92.69 182.144C92.4873 182.101 92.242 182.08 91.954 182.08C91.1433 182.08 90.5353 182.341 90.13 182.864C89.7353 183.376 89.538 183.989 89.538 184.704V189.408H88.578V183.616C88.578 182.784 88.5353 182.042 88.45 181.392H89.378L89.506 182.88C89.7087 182.336 90.034 181.92 90.482 181.632C90.9407 181.344 91.458 181.2 92.034 181.2ZM105.034 177.632V189.408H104.058V187.872C103.824 188.405 103.466 188.816 102.986 189.104C102.517 189.381 101.952 189.52 101.29 189.52C100.586 189.52 99.9623 189.349 99.4183 189.008C98.8849 188.656 98.4689 188.165 98.1703 187.536C97.8716 186.896 97.7223 186.16 97.7223 185.328C97.7223 184.496 97.8663 183.77 98.1543 183.152C98.4529 182.522 98.8689 182.042 99.4023 181.712C99.9463 181.37 100.576 181.2 101.29 181.2C101.941 181.2 102.501 181.338 102.97 181.616C103.45 181.893 103.813 182.298 104.058 182.832V177.632H105.034ZM101.418 188.656C102.261 188.656 102.912 188.368 103.37 187.792C103.829 187.216 104.058 186.405 104.058 185.36C104.058 184.314 103.829 183.504 103.37 182.928C102.912 182.341 102.266 182.048 101.434 182.048C100.581 182.048 99.9196 182.336 99.4503 182.912C98.9809 183.488 98.7463 184.293 98.7463 185.328C98.7463 186.373 98.9809 187.189 99.4503 187.776C99.9196 188.362 100.576 188.656 101.418 188.656ZM110.871 189.52C110.135 189.52 109.485 189.349 108.919 189.008C108.365 188.666 107.933 188.181 107.623 187.552C107.325 186.922 107.175 186.192 107.175 185.36C107.175 184.528 107.325 183.797 107.623 183.168C107.933 182.538 108.365 182.053 108.919 181.712C109.485 181.37 110.135 181.2 110.871 181.2C111.597 181.2 112.237 181.37 112.791 181.712C113.346 182.053 113.773 182.538 114.071 183.168C114.381 183.797 114.535 184.528 114.535 185.36C114.535 186.192 114.381 186.922 114.071 187.552C113.773 188.181 113.346 188.666 112.791 189.008C112.237 189.349 111.597 189.52 110.871 189.52ZM110.855 188.656C111.709 188.656 112.365 188.373 112.823 187.808C113.293 187.232 113.527 186.416 113.527 185.36C113.527 184.314 113.293 183.504 112.823 182.928C112.354 182.341 111.703 182.048 110.871 182.048C110.029 182.048 109.373 182.341 108.903 182.928C108.434 183.504 108.199 184.314 108.199 185.36C108.199 186.426 108.429 187.242 108.887 187.808C109.346 188.373 110.002 188.656 110.855 188.656ZM119.92 189.52C119.162 189.52 118.501 189.349 117.936 189.008C117.37 188.666 116.933 188.186 116.624 187.568C116.314 186.938 116.16 186.213 116.16 185.392C116.16 184.56 116.314 183.829 116.624 183.2C116.933 182.56 117.376 182.069 117.952 181.728C118.528 181.376 119.194 181.2 119.952 181.2C120.496 181.2 121.013 181.296 121.504 181.488C122.005 181.669 122.416 181.925 122.736 182.256L122.352 183.024C121.936 182.682 121.536 182.437 121.152 182.288C120.778 182.128 120.389 182.048 119.984 182.048C119.12 182.048 118.437 182.346 117.936 182.944C117.434 183.53 117.184 184.346 117.184 185.392C117.184 186.416 117.429 187.216 117.92 187.792C118.421 188.368 119.109 188.656 119.984 188.656C120.389 188.656 120.778 188.581 121.152 188.432C121.536 188.272 121.936 188.026 122.352 187.696L122.736 188.448C122.394 188.778 121.968 189.04 121.456 189.232C120.954 189.424 120.442 189.52 119.92 189.52ZM125.876 182.176V186.944C125.876 187.584 125.998 188.026 126.244 188.272C126.489 188.517 126.852 188.64 127.332 188.64C127.63 188.64 127.918 188.592 128.196 188.496V189.376C127.854 189.461 127.508 189.504 127.156 189.504C126.452 189.504 125.897 189.306 125.492 188.912C125.097 188.517 124.9 187.925 124.9 187.136V182.176H123.316V181.392H124.9V179.264L125.876 178.896V181.392H128.244V182.176H125.876ZM133.09 189.52C132.354 189.52 131.703 189.349 131.138 189.008C130.583 188.666 130.151 188.181 129.842 187.552C129.543 186.922 129.394 186.192 129.394 185.36C129.394 184.528 129.543 183.797 129.842 183.168C130.151 182.538 130.583 182.053 131.138 181.712C131.703 181.37 132.354 181.2 133.09 181.2C133.815 181.2 134.455 181.37 135.01 181.712C135.565 182.053 135.991 182.538 136.29 183.168C136.599 183.797 136.754 184.528 136.754 185.36C136.754 186.192 136.599 186.922 136.29 187.552C135.991 188.181 135.565 188.666 135.01 189.008C134.455 189.349 133.815 189.52 133.09 189.52ZM133.074 188.656C133.927 188.656 134.583 188.373 135.042 187.808C135.511 187.232 135.746 186.416 135.746 185.36C135.746 184.314 135.511 183.504 135.042 182.928C134.573 182.341 133.922 182.048 133.09 182.048C132.247 182.048 131.591 182.341 131.122 182.928C130.653 183.504 130.418 184.314 130.418 185.36C130.418 186.426 130.647 187.242 131.106 187.808C131.565 188.373 132.221 188.656 133.074 188.656ZM142.347 181.2C142.613 181.2 142.848 181.221 143.051 181.264L143.003 182.144C142.8 182.101 142.555 182.08 142.266 182.08C141.456 182.08 140.848 182.341 140.443 182.864C140.048 183.376 139.851 183.989 139.851 184.704V189.408H138.891V183.616C138.891 182.784 138.848 182.042 138.763 181.392H139.691L139.819 182.88C140.021 182.336 140.347 181.92 140.795 181.632C141.253 181.344 141.771 181.2 142.347 181.2ZM151.315 178.448C150.856 178.448 150.504 178.57 150.259 178.816C150.013 179.061 149.891 179.498 149.891 180.128V181.392H151.955V182.176H149.891V189.408H148.915V182.176H147.347V181.392H148.915V179.952C148.915 179.152 149.112 178.554 149.507 178.16C149.901 177.765 150.445 177.568 151.139 177.568C151.459 177.568 151.789 177.61 152.131 177.696V178.576C151.843 178.49 151.571 178.448 151.315 178.448ZM157.19 181.2C157.457 181.2 157.692 181.221 157.894 181.264L157.846 182.144C157.644 182.101 157.398 182.08 157.11 182.08C156.3 182.08 155.692 182.341 155.286 182.864C154.892 183.376 154.694 183.989 154.694 184.704V189.408H153.734V183.616C153.734 182.784 153.692 182.042 153.606 181.392H154.534L154.662 182.88C154.865 182.336 155.19 181.92 155.638 181.632C156.097 181.344 156.614 181.2 157.19 181.2ZM162.34 189.52C161.604 189.52 160.953 189.349 160.388 189.008C159.833 188.666 159.401 188.181 159.092 187.552C158.793 186.922 158.644 186.192 158.644 185.36C158.644 184.528 158.793 183.797 159.092 183.168C159.401 182.538 159.833 182.053 160.388 181.712C160.953 181.37 161.604 181.2 162.34 181.2C163.065 181.2 163.705 181.37 164.26 181.712C164.815 182.053 165.241 182.538 165.54 183.168C165.849 183.797 166.004 184.528 166.004 185.36C166.004 186.192 165.849 186.922 165.54 187.552C165.241 188.181 164.815 188.666 164.26 189.008C163.705 189.349 163.065 189.52 162.34 189.52ZM162.324 188.656C163.177 188.656 163.833 188.373 164.292 187.808C164.761 187.232 164.996 186.416 164.996 185.36C164.996 184.314 164.761 183.504 164.292 182.928C163.823 182.341 163.172 182.048 162.34 182.048C161.497 182.048 160.841 182.341 160.372 182.928C159.903 183.504 159.668 184.314 159.668 185.36C159.668 186.426 159.897 187.242 160.356 187.808C160.815 188.373 161.471 188.656 162.324 188.656ZM176.781 181.2C178.551 181.2 179.437 182.234 179.437 184.304V189.408H178.461V184.368C178.461 183.557 178.317 182.97 178.029 182.608C177.741 182.234 177.282 182.048 176.653 182.048C175.917 182.048 175.335 182.293 174.909 182.784C174.493 183.274 174.285 183.941 174.285 184.784V189.408H173.309V184.368C173.309 183.557 173.159 182.97 172.861 182.608C172.573 182.234 172.114 182.048 171.485 182.048C170.759 182.048 170.178 182.293 169.741 182.784C169.314 183.274 169.101 183.941 169.101 184.784V189.408H168.141V183.616C168.141 182.784 168.098 182.042 168.013 181.392H168.941L169.069 182.832C169.293 182.298 169.623 181.893 170.061 181.616C170.509 181.338 171.026 181.2 171.613 181.2C172.903 181.2 173.73 181.722 174.093 182.768C174.317 182.277 174.663 181.893 175.133 181.616C175.613 181.338 176.162 181.2 176.781 181.2ZM187.485 182.176V186.944C187.485 187.584 187.608 188.026 187.853 188.272C188.098 188.517 188.461 188.64 188.941 188.64C189.24 188.64 189.528 188.592 189.805 188.496V189.376C189.464 189.461 189.117 189.504 188.765 189.504C188.061 189.504 187.506 189.306 187.101 188.912C186.706 188.517 186.509 187.925 186.509 187.136V182.176H184.925V181.392H186.509V179.264L187.485 178.896V181.392H189.853V182.176H187.485ZM195.244 181.2C197.174 181.2 198.14 182.234 198.14 184.304V189.408H197.164V184.368C197.164 183.568 196.998 182.981 196.668 182.608C196.348 182.234 195.841 182.048 195.148 182.048C194.348 182.048 193.702 182.293 193.212 182.784C192.721 183.274 192.476 183.936 192.476 184.768V189.408H191.516V177.632H192.476V182.784C192.732 182.261 193.1 181.866 193.58 181.6C194.06 181.333 194.614 181.2 195.244 181.2ZM203.95 189.52C203.214 189.52 202.563 189.349 201.998 189.008C201.443 188.666 201.011 188.181 200.702 187.552C200.403 186.922 200.254 186.192 200.254 185.36C200.254 184.528 200.403 183.797 200.702 183.168C201.011 182.538 201.443 182.053 201.998 181.712C202.563 181.37 203.214 181.2 203.95 181.2C204.675 181.2 205.315 181.37 205.87 181.712C206.424 182.053 206.851 182.538 207.15 183.168C207.459 183.797 207.614 184.528 207.614 185.36C207.614 186.192 207.459 186.922 207.15 187.552C206.851 188.181 206.424 188.666 205.87 189.008C205.315 189.349 204.675 189.52 203.95 189.52ZM203.934 188.656C204.787 188.656 205.443 188.373 205.902 187.808C206.371 187.232 206.606 186.416 206.606 185.36C206.606 184.314 206.371 183.504 205.902 182.928C205.432 182.341 204.782 182.048 203.95 182.048C203.107 182.048 202.451 182.341 201.982 182.928C201.512 183.504 201.278 184.314 201.278 185.36C201.278 186.426 201.507 187.242 201.966 187.808C202.424 188.373 203.08 188.656 203.934 188.656ZM216.198 181.392V189.408H215.254V187.952C214.998 188.464 214.635 188.853 214.166 189.12C213.697 189.386 213.158 189.52 212.55 189.52C211.611 189.52 210.902 189.258 210.422 188.736C209.942 188.213 209.702 187.44 209.702 186.416V181.392H210.662V186.352C210.662 187.141 210.822 187.722 211.142 188.096C211.462 188.469 211.958 188.656 212.63 188.656C213.419 188.656 214.049 188.41 214.518 187.92C214.987 187.418 215.222 186.757 215.222 185.936V181.392H216.198ZM221.467 189.52C220.166 189.52 219.137 189.162 218.379 188.448L218.731 187.696C219.158 188.048 219.585 188.298 220.011 188.448C220.449 188.597 220.95 188.672 221.515 188.672C222.177 188.672 222.678 188.56 223.019 188.336C223.371 188.101 223.547 187.765 223.547 187.328C223.547 186.965 223.43 186.682 223.195 186.48C222.971 186.266 222.598 186.096 222.075 185.968L220.715 185.664C220.075 185.514 219.569 185.248 219.195 184.864C218.833 184.48 218.651 184.032 218.651 183.52C218.651 182.816 218.918 182.256 219.451 181.84C219.995 181.413 220.715 181.2 221.611 181.2C222.177 181.2 222.699 181.29 223.179 181.472C223.67 181.653 224.075 181.914 224.395 182.256L224.027 183.008C223.291 182.368 222.486 182.048 221.611 182.048C220.993 182.048 220.513 182.17 220.171 182.416C219.83 182.661 219.659 183.002 219.659 183.44C219.659 183.802 219.766 184.096 219.979 184.32C220.203 184.544 220.545 184.709 221.003 184.816L222.379 185.152C223.819 185.472 224.539 186.181 224.539 187.28C224.539 187.952 224.262 188.496 223.707 188.912C223.153 189.317 222.406 189.52 221.467 189.52ZM233.566 181.392V189.408H232.59V187.872C232.355 188.405 231.998 188.816 231.518 189.104C231.048 189.381 230.483 189.52 229.822 189.52C229.107 189.52 228.478 189.354 227.934 189.024C227.4 188.682 226.984 188.202 226.686 187.584C226.398 186.954 226.254 186.224 226.254 185.392C226.254 184.56 226.403 183.829 226.702 183.2C227 182.56 227.416 182.069 227.95 181.728C228.494 181.376 229.118 181.2 229.822 181.2C230.472 181.2 231.032 181.338 231.502 181.616C231.982 181.893 232.344 182.298 232.59 182.832V181.392H233.566ZM229.966 188.656C230.798 188.656 231.443 188.368 231.902 187.792C232.36 187.216 232.59 186.405 232.59 185.36C232.59 184.304 232.36 183.488 231.902 182.912C231.443 182.336 230.792 182.048 229.95 182.048C229.107 182.048 228.451 182.346 227.982 182.944C227.512 183.53 227.278 184.346 227.278 185.392C227.278 186.426 227.512 187.232 227.982 187.808C228.451 188.373 229.112 188.656 229.966 188.656ZM239.947 181.2C241.877 181.2 242.843 182.234 242.843 184.304V189.408H241.867V184.368C241.867 183.568 241.701 182.981 241.371 182.608C241.051 182.234 240.544 182.048 239.851 182.048C239.051 182.048 238.405 182.293 237.915 182.784C237.424 183.274 237.179 183.936 237.179 184.768V189.408H236.219V183.616C236.219 182.784 236.176 182.042 236.091 181.392H237.019L237.147 182.864C237.392 182.32 237.76 181.909 238.251 181.632C238.741 181.344 239.307 181.2 239.947 181.2ZM252.269 177.632V189.408H251.293V187.872C251.058 188.405 250.701 188.816 250.221 189.104C249.751 189.381 249.186 189.52 248.525 189.52C247.821 189.52 247.197 189.349 246.653 189.008C246.119 188.656 245.703 188.165 245.405 187.536C245.106 186.896 244.957 186.16 244.957 185.328C244.957 184.496 245.101 183.77 245.389 183.152C245.687 182.522 246.103 182.042 246.637 181.712C247.181 181.37 247.81 181.2 248.525 181.2C249.175 181.2 249.735 181.338 250.205 181.616C250.685 181.893 251.047 182.298 251.293 182.832V177.632H252.269ZM248.653 188.656C249.495 188.656 250.146 188.368 250.605 187.792C251.063 187.216 251.293 186.405 251.293 185.36C251.293 184.314 251.063 183.504 250.605 182.928C250.146 182.341 249.501 182.048 248.669 182.048C247.815 182.048 247.154 182.336 246.685 182.912C246.215 183.488 245.981 184.293 245.981 185.328C245.981 186.373 246.215 187.189 246.685 187.776C247.154 188.362 247.81 188.656 248.653 188.656ZM257.53 189.52C256.228 189.52 255.199 189.162 254.442 188.448L254.794 187.696C255.22 188.048 255.647 188.298 256.074 188.448C256.511 188.597 257.012 188.672 257.578 188.672C258.239 188.672 258.74 188.56 259.082 188.336C259.434 188.101 259.61 187.765 259.61 187.328C259.61 186.965 259.492 186.682 259.258 186.48C259.034 186.266 258.66 186.096 258.138 185.968L256.778 185.664C256.138 185.514 255.631 185.248 255.258 184.864C254.895 184.48 254.714 184.032 254.714 183.52C254.714 182.816 254.98 182.256 255.514 181.84C256.058 181.413 256.778 181.2 257.674 181.2C258.239 181.2 258.762 181.29 259.242 181.472C259.732 181.653 260.138 181.914 260.458 182.256L260.09 183.008C259.354 182.368 258.548 182.048 257.674 182.048C257.055 182.048 256.575 182.17 256.234 182.416C255.892 182.661 255.722 183.002 255.722 183.44C255.722 183.802 255.828 184.096 256.042 184.32C256.266 184.544 256.607 184.709 257.066 184.816L258.442 185.152C259.882 185.472 260.602 186.181 260.602 187.28C260.602 187.952 260.324 188.496 259.77 188.912C259.215 189.317 258.468 189.52 257.53 189.52ZM6.512 217.52C5.776 217.52 5.12533 217.349 4.56 217.008C4.00533 216.666 3.57333 216.181 3.264 215.552C2.96533 214.922 2.816 214.192 2.816 213.36C2.816 212.528 2.96533 211.797 3.264 211.168C3.57333 210.538 4.00533 210.053 4.56 209.712C5.12533 209.37 5.776 209.2 6.512 209.2C7.23733 209.2 7.87733 209.37 8.432 209.712C8.98667 210.053 9.41333 210.538 9.712 211.168C10.0213 211.797 10.176 212.528 10.176 213.36C10.176 214.192 10.0213 214.922 9.712 215.552C9.41333 216.181 8.98667 216.666 8.432 217.008C7.87733 217.349 7.23733 217.52 6.512 217.52ZM6.496 216.656C7.34933 216.656 8.00533 216.373 8.464 215.808C8.93333 215.232 9.168 214.416 9.168 213.36C9.168 212.314 8.93333 211.504 8.464 210.928C7.99467 210.341 7.344 210.048 6.512 210.048C5.66933 210.048 5.01333 210.341 4.544 210.928C4.07467 211.504 3.84 212.314 3.84 213.36C3.84 214.426 4.06933 215.242 4.528 215.808C4.98667 216.373 5.64267 216.656 6.496 216.656ZM15.0804 206.448C14.6217 206.448 14.2697 206.57 14.0244 206.816C13.779 207.061 13.6564 207.498 13.6564 208.128V209.392H15.7204V210.176H13.6564V217.408H12.6804V210.176H11.1124V209.392H12.6804V207.952C12.6804 207.152 12.8777 206.554 13.2724 206.16C13.667 205.765 14.211 205.568 14.9044 205.568C15.2244 205.568 15.555 205.61 15.8964 205.696V206.576C15.6084 206.49 15.3364 206.448 15.0804 206.448ZM24.186 217.52C22.8847 217.52 21.8553 217.162 21.098 216.448L21.45 215.696C21.8767 216.048 22.3033 216.298 22.73 216.448C23.1673 216.597 23.6687 216.672 24.234 216.672C24.8953 216.672 25.3967 216.56 25.738 216.336C26.09 216.101 26.266 215.765 26.266 215.328C26.266 214.965 26.1487 214.682 25.914 214.48C25.69 214.266 25.3167 214.096 24.794 213.968L23.434 213.664C22.794 213.514 22.2873 213.248 21.914 212.864C21.5513 212.48 21.37 212.032 21.37 211.52C21.37 210.816 21.6367 210.256 22.17 209.84C22.714 209.413 23.434 209.2 24.33 209.2C24.8953 209.2 25.418 209.29 25.898 209.472C26.3887 209.653 26.794 209.914 27.114 210.256L26.746 211.008C26.01 210.368 25.2047 210.048 24.33 210.048C23.7113 210.048 23.2313 210.17 22.89 210.416C22.5487 210.661 22.378 211.002 22.378 211.44C22.378 211.802 22.4847 212.096 22.698 212.32C22.922 212.544 23.2633 212.709 23.722 212.816L25.098 213.152C26.538 213.472 27.258 214.181 27.258 215.28C27.258 215.952 26.9807 216.496 26.426 216.912C25.8713 217.317 25.1247 217.52 24.186 217.52ZM33.2283 209.2C33.9323 209.2 34.5509 209.376 35.0843 209.728C35.6283 210.069 36.0496 210.56 36.3483 211.2C36.6469 211.829 36.7963 212.56 36.7963 213.392C36.7963 214.224 36.6469 214.949 36.3483 215.568C36.0603 216.186 35.6443 216.666 35.1003 217.008C34.5563 217.349 33.9323 217.52 33.2283 217.52C32.5563 217.52 31.9803 217.376 31.5003 217.088C31.0309 216.789 30.6789 216.362 30.4443 215.808V220.864H29.4843V211.616C29.4843 210.784 29.4416 210.042 29.3563 209.392H30.2843L30.4123 210.96C30.6469 210.394 31.0043 209.962 31.4843 209.664C31.9749 209.354 32.5563 209.2 33.2283 209.2ZM33.1003 216.656C33.9429 216.656 34.5989 216.373 35.0683 215.808C35.5376 215.232 35.7723 214.426 35.7723 213.392C35.7723 212.346 35.5376 211.53 35.0683 210.944C34.5989 210.346 33.9483 210.048 33.1163 210.048C32.2629 210.048 31.6069 210.336 31.1483 210.912C30.6896 211.488 30.4603 212.304 30.4603 213.36C30.4603 214.405 30.6896 215.216 31.1483 215.792C31.6069 216.368 32.2576 216.656 33.1003 216.656ZM39.4494 213.28V213.328C39.4494 214.405 39.6947 215.232 40.1854 215.808C40.6867 216.373 41.412 216.656 42.3614 216.656C43.3214 216.656 44.2014 216.325 45.0014 215.664L45.3854 216.432C45.0334 216.762 44.5854 217.029 44.0414 217.232C43.4974 217.424 42.9374 217.52 42.3614 217.52C41.1454 217.52 40.1854 217.152 39.4814 216.416C38.7774 215.68 38.4254 214.666 38.4254 213.376C38.4254 212.554 38.58 211.829 38.8894 211.2C39.2094 210.56 39.652 210.069 40.2174 209.728C40.7827 209.376 41.4334 209.2 42.1694 209.2C43.2254 209.2 44.0467 209.541 44.6334 210.224C45.2307 210.906 45.5294 211.856 45.5294 213.072V213.28H39.4494ZM42.1694 210C41.4334 210 40.836 210.224 40.3774 210.672C39.9187 211.109 39.6307 211.728 39.5134 212.528H44.6014C44.5374 211.706 44.2974 211.082 43.8814 210.656C43.4654 210.218 42.8947 210 42.1694 210ZM50.8729 217.52C50.1155 217.52 49.4542 217.349 48.8889 217.008C48.3235 216.666 47.8862 216.186 47.5769 215.568C47.2675 214.938 47.1129 214.213 47.1129 213.392C47.1129 212.56 47.2675 211.829 47.5769 211.2C47.8862 210.56 48.3289 210.069 48.9049 209.728C49.4809 209.376 50.1475 209.2 50.9049 209.2C51.4489 209.2 51.9662 209.296 52.4569 209.488C52.9582 209.669 53.3689 209.925 53.6889 210.256L53.3049 211.024C52.8889 210.682 52.4889 210.437 52.1049 210.288C51.7315 210.128 51.3422 210.048 50.9369 210.048C50.0729 210.048 49.3902 210.346 48.8889 210.944C48.3875 211.53 48.1369 212.346 48.1369 213.392C48.1369 214.416 48.3822 215.216 48.8729 215.792C49.3742 216.368 50.0622 216.656 50.9369 216.656C51.3422 216.656 51.7315 216.581 52.1049 216.432C52.4889 216.272 52.8889 216.026 53.3049 215.696L53.6889 216.448C53.3475 216.778 52.9209 217.04 52.4089 217.232C51.9075 217.424 51.3955 217.52 50.8729 217.52ZM55.4686 209.392H56.4286V217.408H55.4686V209.392ZM56.6206 206.08V207.328H55.3246V206.08H56.6206ZM65.9093 209.392V217.408H64.9333V215.872C64.6986 216.405 64.3413 216.816 63.8613 217.104C63.3919 217.381 62.8266 217.52 62.1653 217.52C61.4506 217.52 60.8213 217.354 60.2773 217.024C59.7439 216.682 59.3279 216.202 59.0293 215.584C58.7413 214.954 58.5973 214.224 58.5973 213.392C58.5973 212.56 58.7466 211.829 59.0453 211.2C59.3439 210.56 59.7599 210.069 60.2933 209.728C60.8373 209.376 61.4613 209.2 62.1653 209.2C62.8159 209.2 63.3759 209.338 63.8453 209.616C64.3253 209.893 64.6879 210.298 64.9333 210.832V209.392H65.9093ZM62.3093 216.656C63.1413 216.656 63.7866 216.368 64.2453 215.792C64.7039 215.216 64.9333 214.405 64.9333 213.36C64.9333 212.304 64.7039 211.488 64.2453 210.912C63.7866 210.336 63.1359 210.048 62.2933 210.048C61.4506 210.048 60.7946 210.346 60.3253 210.944C59.8559 211.53 59.6213 212.346 59.6213 213.392C59.6213 214.426 59.8559 215.232 60.3253 215.808C60.7946 216.373 61.4559 216.656 62.3093 216.656ZM68.5624 205.632H69.5224V217.408H68.5624V205.632ZM72.203 209.392H73.163V217.408H72.203V209.392ZM73.355 206.08V207.328H72.059V206.08H73.355ZM78.4516 217.52C77.1503 217.52 76.121 217.162 75.3636 216.448L75.7156 215.696C76.1423 216.048 76.569 216.298 76.9956 216.448C77.433 216.597 77.9343 216.672 78.4996 216.672C79.161 216.672 79.6623 216.56 80.0036 216.336C80.3556 216.101 80.5316 215.765 80.5316 215.328C80.5316 214.965 80.4143 214.682 80.1796 214.48C79.9556 214.266 79.5823 214.096 79.0596 213.968L77.6996 213.664C77.0596 213.514 76.553 213.248 76.1796 212.864C75.817 212.48 75.6356 212.032 75.6356 211.52C75.6356 210.816 75.9023 210.256 76.4356 209.84C76.9796 209.413 77.6996 209.2 78.5956 209.2C79.161 209.2 79.6836 209.29 80.1636 209.472C80.6543 209.653 81.0596 209.914 81.3796 210.256L81.0116 211.008C80.2756 210.368 79.4703 210.048 78.5956 210.048C77.977 210.048 77.497 210.17 77.1556 210.416C76.8143 210.661 76.6436 211.002 76.6436 211.44C76.6436 211.802 76.7503 212.096 76.9636 212.32C77.1876 212.544 77.529 212.709 77.9876 212.816L79.3636 213.152C80.8036 213.472 81.5236 214.181 81.5236 215.28C81.5236 215.952 81.2463 216.496 80.6916 216.912C80.137 217.317 79.3903 217.52 78.4516 217.52ZM85.0318 210.176V214.944C85.0318 215.584 85.1544 216.026 85.3998 216.272C85.6451 216.517 86.0078 216.64 86.4878 216.64C86.7864 216.64 87.0744 216.592 87.3518 216.496V217.376C87.0104 217.461 86.6638 217.504 86.3118 217.504C85.6078 217.504 85.0531 217.306 84.6478 216.912C84.2531 216.517 84.0558 215.925 84.0558 215.136V210.176H82.4718V209.392H84.0558V207.264L85.0318 206.896V209.392H87.3998V210.176H85.0318ZM90.3703 216.016V217.04C90.3703 217.445 90.3063 217.818 90.1783 218.16C90.0503 218.501 89.8369 218.821 89.5383 219.12L89.0263 218.72C89.3889 218.314 89.5916 217.877 89.6343 217.408H89.0103V216.016H90.3703ZM103.723 209.392V217.44C103.723 218.602 103.435 219.482 102.859 220.08C102.283 220.677 101.435 220.976 100.315 220.976C99.1206 220.976 98.0806 220.688 97.1953 220.112L97.3873 219.264C97.9099 219.573 98.3899 219.792 98.8273 219.92C99.2646 220.048 99.7659 220.112 100.331 220.112C101.131 220.112 101.734 219.893 102.139 219.456C102.555 219.018 102.763 218.378 102.763 217.536V215.472C102.518 216.016 102.155 216.437 101.675 216.736C101.195 217.024 100.619 217.168 99.9473 217.168C99.2433 217.168 98.6193 217.002 98.0753 216.672C97.5313 216.33 97.1046 215.861 96.7953 215.264C96.4966 214.656 96.3473 213.962 96.3473 213.184C96.3473 212.394 96.4966 211.701 96.7953 211.104C97.1046 210.496 97.5313 210.026 98.0753 209.696C98.6193 209.365 99.2433 209.2 99.9473 209.2C100.619 209.2 101.19 209.338 101.659 209.616C102.139 209.893 102.502 210.298 102.747 210.832V209.392H103.723ZM100.075 216.288C100.907 216.288 101.558 216.01 102.027 215.456C102.507 214.901 102.747 214.144 102.747 213.184C102.747 212.213 102.507 211.45 102.027 210.896C101.558 210.33 100.907 210.048 100.075 210.048C99.2326 210.048 98.5713 210.33 98.0913 210.896C97.6113 211.45 97.3713 212.213 97.3713 213.184C97.3713 214.154 97.6113 214.917 98.0913 215.472C98.5713 216.016 99.2326 216.288 100.075 216.288ZM106.887 213.28V213.328C106.887 214.405 107.132 215.232 107.623 215.808C108.124 216.373 108.85 216.656 109.799 216.656C110.759 216.656 111.639 216.325 112.439 215.664L112.823 216.432C112.471 216.762 112.023 217.029 111.479 217.232C110.935 217.424 110.375 217.52 109.799 217.52C108.583 217.52 107.623 217.152 106.919 216.416C106.215 215.68 105.863 214.666 105.863 213.376C105.863 212.554 106.018 211.829 106.327 211.2C106.647 210.56 107.09 210.069 107.655 209.728C108.22 209.376 108.871 209.2 109.607 209.2C110.663 209.2 111.484 209.541 112.071 210.224C112.668 210.906 112.967 211.856 112.967 213.072V213.28H106.887ZM109.607 210C108.871 210 108.274 210.224 107.815 210.672C107.356 211.109 107.068 211.728 106.951 212.528H112.039C111.975 211.706 111.735 211.082 111.319 210.656C110.903 210.218 110.332 210 109.607 210ZM118.79 209.2C120.721 209.2 121.686 210.234 121.686 212.304V217.408H120.71V212.368C120.71 211.568 120.545 210.981 120.214 210.608C119.894 210.234 119.388 210.048 118.694 210.048C117.894 210.048 117.249 210.293 116.758 210.784C116.268 211.274 116.022 211.936 116.022 212.768V217.408H115.062V211.616C115.062 210.784 115.02 210.042 114.934 209.392H115.862L115.99 210.864C116.236 210.32 116.604 209.909 117.094 209.632C117.585 209.344 118.15 209.2 118.79 209.2ZM124.824 213.28V213.328C124.824 214.405 125.07 215.232 125.56 215.808C126.062 216.373 126.787 216.656 127.736 216.656C128.696 216.656 129.576 216.325 130.376 215.664L130.76 216.432C130.408 216.762 129.96 217.029 129.416 217.232C128.872 217.424 128.312 217.52 127.736 217.52C126.52 217.52 125.56 217.152 124.856 216.416C124.152 215.68 123.8 214.666 123.8 213.376C123.8 212.554 123.955 211.829 124.264 211.2C124.584 210.56 125.027 210.069 125.592 209.728C126.158 209.376 126.808 209.2 127.544 209.2C128.6 209.2 129.422 209.541 130.008 210.224C130.606 210.906 130.904 211.856 130.904 213.072V213.28H124.824ZM127.544 210C126.808 210 126.211 210.224 125.752 210.672C125.294 211.109 125.006 211.728 124.888 212.528H129.976C129.912 211.706 129.672 211.082 129.256 210.656C128.84 210.218 128.27 210 127.544 210ZM136.456 209.2C136.723 209.2 136.957 209.221 137.16 209.264L137.112 210.144C136.909 210.101 136.664 210.08 136.376 210.08C135.565 210.08 134.957 210.341 134.552 210.864C134.157 211.376 133.96 211.989 133.96 212.704V217.408H133V211.616C133 210.784 132.957 210.042 132.872 209.392H133.8L133.928 210.88C134.131 210.336 134.456 209.92 134.904 209.632C135.363 209.344 135.88 209.2 136.456 209.2ZM145.222 209.392V217.408H144.246V215.872C144.011 216.405 143.654 216.816 143.174 217.104C142.704 217.381 142.139 217.52 141.478 217.52C140.763 217.52 140.134 217.354 139.59 217.024C139.056 216.682 138.64 216.202 138.342 215.584C138.054 214.954 137.91 214.224 137.91 213.392C137.91 212.56 138.059 211.829 138.358 211.2C138.656 210.56 139.072 210.069 139.606 209.728C140.15 209.376 140.774 209.2 141.478 209.2C142.128 209.2 142.688 209.338 143.158 209.616C143.638 209.893 144 210.298 144.246 210.832V209.392H145.222ZM141.622 216.656C142.454 216.656 143.099 216.368 143.558 215.792C144.016 215.216 144.246 214.405 144.246 213.36C144.246 212.304 144.016 211.488 143.558 210.912C143.099 210.336 142.448 210.048 141.606 210.048C140.763 210.048 140.107 210.346 139.638 210.944C139.168 211.53 138.934 212.346 138.934 213.392C138.934 214.426 139.168 215.232 139.638 215.808C140.107 216.373 140.768 216.656 141.622 216.656ZM147.875 205.632H148.835V217.408H147.875V205.632ZM152.652 216.016V217.04C152.652 217.445 152.588 217.818 152.46 218.16C152.332 218.501 152.118 218.821 151.82 219.12L151.308 218.72C151.67 218.314 151.873 217.877 151.916 217.408H151.292V216.016H152.652ZM165.941 209.392V217.408H164.965V215.872C164.73 216.405 164.373 216.816 163.893 217.104C163.423 217.381 162.858 217.52 162.197 217.52C161.482 217.52 160.853 217.354 160.309 217.024C159.775 216.682 159.359 216.202 159.061 215.584C158.773 214.954 158.629 214.224 158.629 213.392C158.629 212.56 158.778 211.829 159.077 211.2C159.375 210.56 159.791 210.069 160.325 209.728C160.869 209.376 161.493 209.2 162.197 209.2C162.847 209.2 163.407 209.338 163.877 209.616C164.357 209.893 164.719 210.298 164.965 210.832V209.392H165.941ZM162.341 216.656C163.173 216.656 163.818 216.368 164.277 215.792C164.735 215.216 164.965 214.405 164.965 213.36C164.965 212.304 164.735 211.488 164.277 210.912C163.818 210.336 163.167 210.048 162.325 210.048C161.482 210.048 160.826 210.346 160.357 210.944C159.887 211.53 159.653 212.346 159.653 213.392C159.653 214.426 159.887 215.232 160.357 215.808C160.826 216.373 161.487 216.656 162.341 216.656ZM172.322 209.2C174.252 209.2 175.218 210.234 175.218 212.304V217.408H174.242V212.368C174.242 211.568 174.076 210.981 173.746 210.608C173.426 210.234 172.919 210.048 172.226 210.048C171.426 210.048 170.78 210.293 170.29 210.784C169.799 211.274 169.554 211.936 169.554 212.768V217.408H168.594V211.616C168.594 210.784 168.551 210.042 168.466 209.392H169.394L169.522 210.864C169.767 210.32 170.135 209.909 170.626 209.632C171.116 209.344 171.682 209.2 172.322 209.2ZM184.644 205.632V217.408H183.668V215.872C183.433 216.405 183.076 216.816 182.596 217.104C182.126 217.381 181.561 217.52 180.9 217.52C180.196 217.52 179.572 217.349 179.028 217.008C178.494 216.656 178.078 216.165 177.78 215.536C177.481 214.896 177.332 214.16 177.332 213.328C177.332 212.496 177.476 211.77 177.764 211.152C178.062 210.522 178.478 210.042 179.012 209.712C179.556 209.37 180.185 209.2 180.9 209.2C181.55 209.2 182.11 209.338 182.58 209.616C183.06 209.893 183.422 210.298 183.668 210.832V205.632H184.644ZM181.028 216.656C181.87 216.656 182.521 216.368 182.98 215.792C183.438 215.216 183.668 214.405 183.668 213.36C183.668 212.314 183.438 211.504 182.98 210.928C182.521 210.341 181.876 210.048 181.044 210.048C180.19 210.048 179.529 210.336 179.06 210.912C178.59 211.488 178.356 212.293 178.356 213.328C178.356 214.373 178.59 215.189 179.06 215.776C179.529 216.362 180.185 216.656 181.028 216.656ZM192.735 210.176V214.944C192.735 215.584 192.858 216.026 193.103 216.272C193.348 216.517 193.711 216.64 194.191 216.64C194.49 216.64 194.778 216.592 195.055 216.496V217.376C194.714 217.461 194.367 217.504 194.015 217.504C193.311 217.504 192.756 217.306 192.351 216.912C191.956 216.517 191.759 215.925 191.759 215.136V210.176H190.175V209.392H191.759V207.264L192.735 206.896V209.392H195.103V210.176H192.735ZM200.222 209.2C200.488 209.2 200.723 209.221 200.926 209.264L200.878 210.144C200.675 210.101 200.43 210.08 200.141 210.08C199.331 210.08 198.723 210.341 198.318 210.864C197.923 211.376 197.726 211.989 197.726 212.704V217.408H196.766V211.616C196.766 210.784 196.723 210.042 196.638 209.392H197.566L197.694 210.88C197.896 210.336 198.222 209.92 198.67 209.632C199.128 209.344 199.646 209.2 200.222 209.2ZM208.792 209.392V217.408H207.848V215.952C207.592 216.464 207.229 216.853 206.76 217.12C206.29 217.386 205.752 217.52 205.144 217.52C204.205 217.52 203.496 217.258 203.016 216.736C202.536 216.213 202.296 215.44 202.296 214.416V209.392H203.256V214.352C203.256 215.141 203.416 215.722 203.736 216.096C204.056 216.469 204.552 216.656 205.224 216.656C206.013 216.656 206.642 216.41 207.112 215.92C207.581 215.418 207.816 214.757 207.816 213.936V209.392H208.792ZM214.061 217.52C212.76 217.52 211.73 217.162 210.973 216.448L211.325 215.696C211.752 216.048 212.178 216.298 212.605 216.448C213.042 216.597 213.544 216.672 214.109 216.672C214.77 216.672 215.272 216.56 215.613 216.336C215.965 216.101 216.141 215.765 216.141 215.328C216.141 214.965 216.024 214.682 215.789 214.48C215.565 214.266 215.192 214.096 214.669 213.968L213.309 213.664C212.669 213.514 212.162 213.248 211.789 212.864C211.426 212.48 211.245 212.032 211.245 211.52C211.245 210.816 211.512 210.256 212.045 209.84C212.589 209.413 213.309 209.2 214.205 209.2C214.77 209.2 215.293 209.29 215.773 209.472C216.264 209.653 216.669 209.914 216.989 210.256L216.621 211.008C215.885 210.368 215.08 210.048 214.205 210.048C213.586 210.048 213.106 210.17 212.765 210.416C212.424 210.661 212.253 211.002 212.253 211.44C212.253 211.802 212.36 212.096 212.573 212.32C212.797 212.544 213.138 212.709 213.597 212.816L214.973 213.152C216.413 213.472 217.133 214.181 217.133 215.28C217.133 215.952 216.856 216.496 216.301 216.912C215.746 217.317 215 217.52 214.061 217.52ZM220.641 210.176V214.944C220.641 215.584 220.764 216.026 221.009 216.272C221.254 216.517 221.617 216.64 222.097 216.64C222.396 216.64 222.684 216.592 222.961 216.496V217.376C222.62 217.461 222.273 217.504 221.921 217.504C221.217 217.504 220.662 217.306 220.257 216.912C219.862 216.517 219.665 215.925 219.665 215.136V210.176H218.081V209.392H219.665V207.264L220.641 206.896V209.392H223.009V210.176H220.641ZM225.184 213.28V213.328C225.184 214.405 225.429 215.232 225.92 215.808C226.421 216.373 227.146 216.656 228.096 216.656C229.056 216.656 229.936 216.325 230.736 215.664L231.12 216.432C230.768 216.762 230.32 217.029 229.776 217.232C229.232 217.424 228.672 217.52 228.096 217.52C226.88 217.52 225.92 217.152 225.216 216.416C224.512 215.68 224.16 214.666 224.16 213.376C224.16 212.554 224.314 211.829 224.624 211.2C224.944 210.56 225.386 210.069 225.952 209.728C226.517 209.376 227.168 209.2 227.904 209.2C228.96 209.2 229.781 209.541 230.368 210.224C230.965 210.906 231.264 211.856 231.264 213.072V213.28H225.184ZM227.904 210C227.168 210 226.57 210.224 226.112 210.672C225.653 211.109 225.365 211.728 225.248 212.528H230.336C230.272 211.706 230.032 211.082 229.616 210.656C229.2 210.218 228.629 210 227.904 210ZM240.159 205.632V217.408H239.183V215.872C238.949 216.405 238.591 216.816 238.111 217.104C237.642 217.381 237.077 217.52 236.415 217.52C235.711 217.52 235.087 217.349 234.543 217.008C234.01 216.656 233.594 216.165 233.295 215.536C232.997 214.896 232.847 214.16 232.847 213.328C232.847 212.496 232.991 211.77 233.279 211.152C233.578 210.522 233.994 210.042 234.527 209.712C235.071 209.37 235.701 209.2 236.415 209.2C237.066 209.2 237.626 209.338 238.095 209.616C238.575 209.893 238.938 210.298 239.183 210.832V205.632H240.159ZM236.543 216.656C237.386 216.656 238.037 216.368 238.495 215.792C238.954 215.216 239.183 214.405 239.183 213.36C239.183 212.314 238.954 211.504 238.495 210.928C238.037 210.341 237.391 210.048 236.559 210.048C235.706 210.048 235.045 210.336 234.575 210.912C234.106 211.488 233.871 212.293 233.871 213.328C233.871 214.373 234.106 215.189 234.575 215.776C235.045 216.362 235.701 216.656 236.543 216.656ZM7.056 237.2C8.98667 237.2 9.952 238.234 9.952 240.304V245.408H8.976V240.368C8.976 239.568 8.81067 238.981 8.48 238.608C8.16 238.234 7.65333 238.048 6.96 238.048C6.16 238.048 5.51467 238.293 5.024 238.784C4.53333 239.274 4.288 239.936 4.288 240.768V245.408H3.328V233.632H4.288V238.784C4.544 238.261 4.912 237.866 5.392 237.6C5.872 237.333 6.42667 237.2 7.056 237.2ZM15.762 245.52C15.026 245.52 14.3753 245.349 13.81 245.008C13.2553 244.666 12.8233 244.181 12.514 243.552C12.2153 242.922 12.066 242.192 12.066 241.36C12.066 240.528 12.2153 239.797 12.514 239.168C12.8233 238.538 13.2553 238.053 13.81 237.712C14.3753 237.37 15.026 237.2 15.762 237.2C16.4873 237.2 17.1273 237.37 17.682 237.712C18.2367 238.053 18.6633 238.538 18.962 239.168C19.2713 239.797 19.426 240.528 19.426 241.36C19.426 242.192 19.2713 242.922 18.962 243.552C18.6633 244.181 18.2367 244.666 17.682 245.008C17.1273 245.349 16.4873 245.52 15.762 245.52ZM15.746 244.656C16.5993 244.656 17.2553 244.373 17.714 243.808C18.1833 243.232 18.418 242.416 18.418 241.36C18.418 240.314 18.1833 239.504 17.714 238.928C17.2447 238.341 16.594 238.048 15.762 238.048C14.9193 238.048 14.2633 238.341 13.794 238.928C13.3247 239.504 13.09 240.314 13.09 241.36C13.09 242.426 13.3193 243.242 13.778 243.808C14.2367 244.373 14.8927 244.656 15.746 244.656ZM24.1704 245.52C22.869 245.52 21.8397 245.162 21.0824 244.448L21.4344 243.696C21.861 244.048 22.2877 244.298 22.7144 244.448C23.1517 244.597 23.653 244.672 24.2184 244.672C24.8797 244.672 25.381 244.56 25.7224 244.336C26.0744 244.101 26.2504 243.765 26.2504 243.328C26.2504 242.965 26.133 242.682 25.8984 242.48C25.6744 242.266 25.301 242.096 24.7784 241.968L23.4184 241.664C22.7784 241.514 22.2717 241.248 21.8984 240.864C21.5357 240.48 21.3544 240.032 21.3544 239.52C21.3544 238.816 21.621 238.256 22.1544 237.84C22.6984 237.413 23.4184 237.2 24.3144 237.2C24.8797 237.2 25.4024 237.29 25.8824 237.472C26.373 237.653 26.7784 237.914 27.0984 238.256L26.7304 239.008C25.9944 238.368 25.189 238.048 24.3144 238.048C23.6957 238.048 23.2157 238.17 22.8744 238.416C22.533 238.661 22.3624 239.002 22.3624 239.44C22.3624 239.802 22.469 240.096 22.6824 240.32C22.9064 240.544 23.2477 240.709 23.7064 240.816L25.0824 241.152C26.5224 241.472 27.2424 242.181 27.2424 243.28C27.2424 243.952 26.965 244.496 26.4104 244.912C25.8557 245.317 25.109 245.52 24.1704 245.52ZM33.2126 237.2C33.9166 237.2 34.5353 237.376 35.0686 237.728C35.6126 238.069 36.034 238.56 36.3326 239.2C36.6313 239.829 36.7806 240.56 36.7806 241.392C36.7806 242.224 36.6313 242.949 36.3326 243.568C36.0446 244.186 35.6286 244.666 35.0846 245.008C34.5406 245.349 33.9166 245.52 33.2126 245.52C32.5406 245.52 31.9646 245.376 31.4846 245.088C31.0153 244.789 30.6633 244.362 30.4286 243.808V248.864H29.4686V239.616C29.4686 238.784 29.426 238.042 29.3406 237.392H30.2686L30.3966 238.96C30.6313 238.394 30.9886 237.962 31.4686 237.664C31.9593 237.354 32.5406 237.2 33.2126 237.2ZM33.0846 244.656C33.9273 244.656 34.5833 244.373 35.0526 243.808C35.522 243.232 35.7566 242.426 35.7566 241.392C35.7566 240.346 35.522 239.53 35.0526 238.944C34.5833 238.346 33.9326 238.048 33.1006 238.048C32.2473 238.048 31.5913 238.336 31.1326 238.912C30.674 239.488 30.4446 240.304 30.4446 241.36C30.4446 242.405 30.674 243.216 31.1326 243.792C31.5913 244.368 32.242 244.656 33.0846 244.656ZM38.9218 237.392H39.8818V245.408H38.9218V237.392ZM40.0738 234.08V235.328H38.7778V234.08H40.0738ZM43.9224 238.176V242.944C43.9224 243.584 44.045 244.026 44.2904 244.272C44.5357 244.517 44.8984 244.64 45.3784 244.64C45.677 244.64 45.965 244.592 46.2424 244.496V245.376C45.901 245.461 45.5544 245.504 45.2024 245.504C44.4984 245.504 43.9437 245.306 43.5384 244.912C43.1437 244.517 42.9464 243.925 42.9464 243.136V238.176H41.3624V237.392H42.9464V235.264L43.9224 234.896V237.392H46.2904V238.176H43.9224ZM54.753 237.392V245.408H53.777V243.872C53.5423 244.405 53.185 244.816 52.705 245.104C52.2357 245.381 51.6703 245.52 51.009 245.52C50.2943 245.52 49.665 245.354 49.121 245.024C48.5877 244.682 48.1717 244.202 47.873 243.584C47.585 242.954 47.441 242.224 47.441 241.392C47.441 240.56 47.5903 239.829 47.889 239.2C48.1877 238.56 48.6037 238.069 49.137 237.728C49.681 237.376 50.305 237.2 51.009 237.2C51.6597 237.2 52.2197 237.338 52.689 237.616C53.169 237.893 53.5317 238.298 53.777 238.832V237.392H54.753ZM51.153 244.656C51.985 244.656 52.6303 244.368 53.089 243.792C53.5477 243.216 53.777 242.405 53.777 241.36C53.777 240.304 53.5477 239.488 53.089 238.912C52.6303 238.336 51.9797 238.048 51.137 238.048C50.2943 238.048 49.6383 238.346 49.169 238.944C48.6997 239.53 48.465 240.346 48.465 241.392C48.465 242.426 48.6997 243.232 49.169 243.808C49.6383 244.373 50.2997 244.656 51.153 244.656ZM57.4061 233.632H58.3661V245.408H57.4061V233.632ZM63.6548 245.52C62.3534 245.52 61.3241 245.162 60.5668 244.448L60.9188 243.696C61.3454 244.048 61.7721 244.298 62.1988 244.448C62.6361 244.597 63.1374 244.672 63.7028 244.672C64.3641 244.672 64.8654 244.56 65.2068 244.336C65.5588 244.101 65.7348 243.765 65.7348 243.328C65.7348 242.965 65.6174 242.682 65.3828 242.48C65.1588 242.266 64.7854 242.096 64.2628 241.968L62.9028 241.664C62.2628 241.514 61.7561 241.248 61.3828 240.864C61.0201 240.48 60.8388 240.032 60.8388 239.52C60.8388 238.816 61.1054 238.256 61.6388 237.84C62.1828 237.413 62.9028 237.2 63.7988 237.2C64.3641 237.2 64.8868 237.29 65.3668 237.472C65.8574 237.653 66.2628 237.914 66.5828 238.256L66.2148 239.008C65.4788 238.368 64.6734 238.048 63.7988 238.048C63.1801 238.048 62.7001 238.17 62.3588 238.416C62.0174 238.661 61.8468 239.002 61.8468 239.44C61.8468 239.802 61.9534 240.096 62.1668 240.32C62.3908 240.544 62.7321 240.709 63.1908 240.816L64.5668 241.152C66.0068 241.472 66.7268 242.181 66.7268 243.28C66.7268 243.952 66.4494 244.496 65.8948 244.912C65.3401 245.317 64.5934 245.52 63.6548 245.52Z" fill="#7D7987"/>
<g clip-path="url(#clip0_0_1)">
<path d="M56.2156 43.3151L47.1378 51.9802L8.80341 88.5661C7.79702 89.5289 6.506 90.0103 5.21497 90.0103C3.80196 90.0103 2.38894 89.4367 1.36222 88.2998C-0.660727 86.0669 -0.396422 82.5743 1.93149 80.6692L47.1378 43.8272L52.1189 39.7712L56.2156 43.3151Z" fill="url(#paint0_linear_0_1)"/>
<path d="M46.7413 52.4206L37.8058 60.9423L36.9824 52.185L41.872 48.2007L46.7413 52.4206Z" fill="#3A81D6" fill-opacity="0.8"/>
<path d="M91.978 29.9078C91.978 46.4288 78.6815 59.8259 62.2946 59.8259C51.9664 59.8259 42.8682 54.5101 37.5516 46.4391C34.4308 41.7071 32.6111 36.0225 32.6111 29.9078C32.6111 13.3868 45.9077 0 62.2946 0C69.6951 0 76.4552 2.72448 81.6498 7.23114C87.9728 12.7211 91.978 20.8433 91.978 29.9078Z" fill="url(#paint1_linear_0_1)"/>
<path d="M62.2946 53.2093C75.0671 53.2093 85.4213 42.7768 85.4213 29.9078C85.4213 17.0387 75.0671 6.60632 62.2946 6.60632C49.5221 6.60632 39.1679 17.0387 39.1679 29.9078C39.1679 42.7768 49.5221 53.2093 62.2946 53.2093Z" fill="white"/>
<path opacity="0.06" d="M91.978 29.9078C91.978 46.4288 78.6815 59.8259 62.2946 59.8259C51.9664 59.8259 42.8682 54.5101 37.5516 46.4391C71.0268 43.6941 79.8505 15.1178 81.66 7.23114C87.9728 12.7211 91.978 20.8433 91.978 29.9078Z" fill="#1A6FB5" fill-opacity="0.5"/>
<path d="M62.2946 29.959C64.9783 29.959 67.1537 27.7672 67.1537 25.0632C67.1537 22.3592 64.9783 20.1673 62.2946 20.1673C59.6109 20.1673 57.4354 22.3592 57.4354 25.0632C57.4354 27.7672 59.6007 29.959 62.2946 29.959ZM62.2946 32.407C59.0518 32.407 52.5763 34.0458 52.5763 37.3028V38.5319C52.5763 39.2079 53.1252 39.761 53.7962 39.761H70.8133C71.4842 39.761 72.0332 39.2079 72.0332 38.5319V37.3028C72.0128 34.056 65.5374 32.407 62.2946 32.407Z" fill="url(#paint2_linear_0_1)"/>
</g>
<defs>
<linearGradient id="paint0_linear_0_1" x1="5.67475" y1="84.3265" x2="53.9244" y2="40.7922" gradientUnits="userSpaceOnUse">
<stop stop-color="#67C3F3"/>
<stop offset="1" stop-color="#5A98F2"/>
</linearGradient>
<linearGradient id="paint1_linear_0_1" x1="50.0173" y1="2.11336" x2="72.7818" y2="52.9053" gradientUnits="userSpaceOnUse">
<stop stop-color="#67C3F3"/>
<stop offset="1" stop-color="#5A98F2"/>
</linearGradient>
<linearGradient id="paint2_linear_0_1" x1="55.2686" y1="28.3947" x2="72.9196" y2="36.9391" gradientUnits="userSpaceOnUse">
<stop stop-color="#B0F4FF"/>
<stop offset="0.071077" stop-color="#A6F1FF"/>
<stop offset="0.2937" stop-color="#8BE8FD"/>
<stop offset="0.5209" stop-color="#78E1FD"/>
<stop offset="0.7536" stop-color="#6DDDFC"/>
<stop offset="1" stop-color="#69DCFC"/>
</linearGradient>
<clipPath id="clip0_0_1">
<rect width="91.978" height="90" fill="white"/>
</clipPath>
</defs>
</svg>
