<svg width="267" height="249" viewBox="0 0 267 249" fill="none" xmlns="http://www.w3.org/2000/svg">
<path d="M1.848 127.32H13.272V129.768H4.872V134.496H12.768V136.944H4.872V141.96H13.272V144.408H1.848V127.32ZM30.2094 131.976C31.5854 131.976 32.6094 132.392 33.2814 133.224C33.9534 134.04 34.2894 135.288 34.2894 136.968V144.408H31.2894V137.064C31.2894 136.104 31.1294 135.416 30.8094 135C30.5054 134.568 29.9934 134.352 29.2734 134.352C28.4414 134.352 27.7854 134.648 27.3054 135.24C26.8414 135.816 26.6094 136.616 26.6094 137.64V144.408H23.6094V137.064C23.6094 136.12 23.4414 135.432 23.1054 135C22.7854 134.568 22.2734 134.352 21.5694 134.352C20.7374 134.352 20.0814 134.648 19.6014 135.24C19.1214 135.816 18.8814 136.616 18.8814 137.64V144.408H15.9054V135.72C15.9054 134.44 15.8414 133.296 15.7134 132.288H18.5214L18.7374 134.208C19.0894 133.488 19.5934 132.936 20.2494 132.552C20.9214 132.168 21.6894 131.976 22.5534 131.976C24.4094 131.976 25.6174 132.744 26.1774 134.28C26.5614 133.56 27.1054 133 27.8094 132.6C28.5294 132.184 29.3294 131.976 30.2094 131.976ZM48.0994 138.504H39.7474C39.8114 139.8 40.1314 140.76 40.7074 141.384C41.2994 141.992 42.1714 142.296 43.3234 142.296C44.6514 142.296 45.8834 141.864 47.0194 141L47.8834 143.064C47.3074 143.528 46.5954 143.904 45.7474 144.192C44.9154 144.464 44.0674 144.6 43.2034 144.6C41.2194 144.6 39.6594 144.04 38.5234 142.92C37.3874 141.8 36.8194 140.264 36.8194 138.312C36.8194 137.08 37.0674 135.984 37.5634 135.024C38.0594 134.064 38.7554 133.32 39.6514 132.792C40.5474 132.248 41.5634 131.976 42.6994 131.976C44.3634 131.976 45.6754 132.52 46.6354 133.608C47.6114 134.68 48.0994 136.16 48.0994 138.048V138.504ZM42.7714 134.136C41.9714 134.136 41.3154 134.376 40.8034 134.856C40.3074 135.32 39.9874 136 39.8434 136.896H45.4834C45.3874 135.984 45.1074 135.296 44.6434 134.832C44.1954 134.368 43.5714 134.136 42.7714 134.136ZM57.1678 132C57.6318 132 58.0318 132.064 58.3678 132.192L58.3438 134.928C57.8318 134.72 57.3038 134.616 56.7598 134.616C55.7358 134.616 54.9518 134.912 54.4078 135.504C53.8798 136.096 53.6158 136.88 53.6158 137.856V144.408H50.6398V135.72C50.6398 134.44 50.5758 133.296 50.4478 132.288H53.2558L53.4958 134.424C53.7998 133.64 54.2798 133.04 54.9358 132.624C55.5918 132.208 56.3358 132 57.1678 132ZM71.5159 132.288V144.024C71.5159 145.912 70.9959 147.344 69.9559 148.32C68.9159 149.296 67.3879 149.784 65.3719 149.784C63.4999 149.784 61.8519 149.392 60.4279 148.608L60.9079 146.328C62.3799 147.096 63.8439 147.48 65.2999 147.48C67.4599 147.48 68.5399 146.408 68.5399 144.264V141.864C68.1719 142.52 67.6359 143.056 66.9319 143.472C66.2279 143.872 65.4359 144.072 64.5559 144.072C63.4999 144.072 62.5559 143.824 61.7239 143.328C60.9079 142.816 60.2679 142.104 59.8039 141.192C59.3559 140.264 59.1319 139.208 59.1319 138.024C59.1319 136.84 59.3559 135.792 59.8039 134.88C60.2679 133.952 60.9079 133.24 61.7239 132.744C62.5559 132.232 63.4999 131.976 64.5559 131.976C65.4519 131.976 66.2439 132.168 66.9319 132.552C67.6359 132.92 68.1719 133.44 68.5399 134.112V132.288H71.5159ZM65.3479 141.72C66.3399 141.72 67.1159 141.392 67.6759 140.736C68.2519 140.08 68.5399 139.176 68.5399 138.024C68.5399 136.872 68.2599 135.968 67.6999 135.312C67.1399 134.656 66.3559 134.328 65.3479 134.328C64.3559 134.328 63.5719 134.656 62.9959 135.312C62.4359 135.968 62.1559 136.872 62.1559 138.024C62.1559 139.176 62.4359 140.08 62.9959 140.736C63.5719 141.392 64.3559 141.72 65.3479 141.72ZM85.365 138.504H77.013C77.077 139.8 77.397 140.76 77.973 141.384C78.565 141.992 79.437 142.296 80.589 142.296C81.917 142.296 83.149 141.864 84.285 141L85.149 143.064C84.573 143.528 83.861 143.904 83.013 144.192C82.181 144.464 81.333 144.6 80.469 144.6C78.485 144.6 76.925 144.04 75.789 142.92C74.653 141.8 74.085 140.264 74.085 138.312C74.085 137.08 74.333 135.984 74.829 135.024C75.325 134.064 76.021 133.32 76.917 132.792C77.813 132.248 78.829 131.976 79.965 131.976C81.629 131.976 82.941 132.52 83.901 133.608C84.877 134.68 85.365 136.16 85.365 138.048V138.504ZM80.037 134.136C79.237 134.136 78.581 134.376 78.069 134.856C77.573 135.32 77.253 136 77.109 136.896H82.749C82.653 135.984 82.373 135.296 81.909 134.832C81.461 134.368 80.837 134.136 80.037 134.136ZM94.8414 131.976C97.7374 131.976 99.1854 133.64 99.1854 136.968V144.408H96.1854V137.112C96.1854 136.152 96.0014 135.456 95.6334 135.024C95.2654 134.576 94.6974 134.352 93.9294 134.352C93.0174 134.352 92.2814 134.648 91.7214 135.24C91.1614 135.816 90.8814 136.584 90.8814 137.544V144.408H87.9054V135.72C87.9054 134.44 87.8414 133.296 87.7134 132.288H90.5214L90.7374 134.28C91.1534 133.544 91.7134 132.976 92.4174 132.576C93.1374 132.176 93.9454 131.976 94.8414 131.976ZM107.862 144.6C106.598 144.6 105.502 144.344 104.574 143.832C103.646 143.32 102.934 142.6 102.438 141.672C101.942 140.728 101.694 139.624 101.694 138.36C101.694 137.096 101.95 135.984 102.462 135.024C102.99 134.064 103.726 133.32 104.67 132.792C105.63 132.248 106.734 131.976 107.982 131.976C108.846 131.976 109.678 132.112 110.478 132.384C111.294 132.656 111.942 133.032 112.422 133.512L111.582 135.624C111.07 135.208 110.526 134.896 109.95 134.688C109.374 134.464 108.806 134.352 108.246 134.352C107.158 134.352 106.31 134.696 105.702 135.384C105.094 136.056 104.79 137.032 104.79 138.312C104.79 139.592 105.086 140.568 105.678 141.24C106.286 141.912 107.142 142.248 108.246 142.248C108.806 142.248 109.374 142.136 109.95 141.912C110.526 141.688 111.07 141.368 111.582 140.952L112.422 143.064C111.91 143.544 111.246 143.92 110.43 144.192C109.614 144.464 108.758 144.6 107.862 144.6ZM125.909 132.288L120.269 145.224C119.629 146.728 118.813 147.824 117.821 148.512C116.829 149.2 115.605 149.656 114.149 149.88L113.477 147.576C114.613 147.32 115.461 146.992 116.021 146.592C116.597 146.208 117.061 145.632 117.413 144.864L117.797 143.976L112.757 132.288H115.901L119.381 141L122.933 132.288H125.909ZM139.55 144.6C138.286 144.6 137.19 144.344 136.262 143.832C135.334 143.32 134.622 142.6 134.126 141.672C133.63 140.728 133.382 139.624 133.382 138.36C133.382 137.096 133.638 135.984 134.15 135.024C134.678 134.064 135.414 133.32 136.358 132.792C137.318 132.248 138.422 131.976 139.67 131.976C140.534 131.976 141.366 132.112 142.166 132.384C142.982 132.656 143.63 133.032 144.11 133.512L143.27 135.624C142.758 135.208 142.214 134.896 141.638 134.688C141.062 134.464 140.494 134.352 139.934 134.352C138.846 134.352 137.998 134.696 137.39 135.384C136.782 136.056 136.478 137.032 136.478 138.312C136.478 139.592 136.774 140.568 137.366 141.24C137.974 141.912 138.83 142.248 139.934 142.248C140.494 142.248 141.062 142.136 141.638 141.912C142.214 141.688 142.758 141.368 143.27 140.952L144.11 143.064C143.598 143.544 142.934 143.92 142.118 144.192C141.302 144.464 140.446 144.6 139.55 144.6ZM157.716 132.288V144.408H154.764V142.464C154.396 143.136 153.868 143.664 153.18 144.048C152.492 144.416 151.708 144.6 150.828 144.6C149.772 144.6 148.836 144.344 148.02 143.832C147.204 143.32 146.572 142.592 146.124 141.648C145.676 140.704 145.452 139.608 145.452 138.36C145.452 137.112 145.676 136.008 146.124 135.048C146.588 134.072 147.228 133.32 148.044 132.792C148.86 132.248 149.788 131.976 150.828 131.976C151.708 131.976 152.492 132.168 153.18 132.552C153.868 132.92 154.396 133.44 154.764 134.112V132.288H157.716ZM151.644 142.248C152.636 142.248 153.404 141.904 153.948 141.216C154.492 140.528 154.764 139.56 154.764 138.312C154.764 137.032 154.492 136.048 153.948 135.36C153.404 134.672 152.628 134.328 151.62 134.328C150.628 134.328 149.852 134.688 149.292 135.408C148.748 136.112 148.476 137.096 148.476 138.36C148.476 139.608 148.748 140.568 149.292 141.24C149.852 141.912 150.636 142.248 151.644 142.248ZM167.512 132C167.976 132 168.376 132.064 168.712 132.192L168.688 134.928C168.176 134.72 167.648 134.616 167.104 134.616C166.08 134.616 165.296 134.912 164.752 135.504C164.224 136.096 163.96 136.88 163.96 137.856V144.408H160.984V135.72C160.984 134.44 160.92 133.296 160.792 132.288H163.6L163.84 134.424C164.144 133.64 164.624 133.04 165.28 132.624C165.936 132.208 166.68 132 167.512 132ZM180.756 138.504H172.404C172.468 139.8 172.788 140.76 173.364 141.384C173.956 141.992 174.828 142.296 175.98 142.296C177.308 142.296 178.54 141.864 179.676 141L180.54 143.064C179.964 143.528 179.252 143.904 178.404 144.192C177.572 144.464 176.724 144.6 175.86 144.6C173.876 144.6 172.316 144.04 171.18 142.92C170.044 141.8 169.476 140.264 169.476 138.312C169.476 137.08 169.724 135.984 170.22 135.024C170.716 134.064 171.412 133.32 172.308 132.792C173.204 132.248 174.22 131.976 175.356 131.976C177.02 131.976 178.332 132.52 179.292 133.608C180.268 134.68 180.756 136.16 180.756 138.048V138.504ZM175.428 134.136C174.628 134.136 173.972 134.376 173.46 134.856C172.964 135.32 172.644 136 172.5 136.896H178.14C178.044 135.984 177.764 135.296 177.3 134.832C176.852 134.368 176.228 134.136 175.428 134.136Z" fill="black"/>
<path d="M6.264 179.72V184.408H5.272V179.688L0.872 173.016H2.024L5.784 178.824L9.544 173.016H10.664L6.264 179.72ZM13.8401 184.52C13.1041 184.52 12.4535 184.349 11.8881 184.008C11.3335 183.666 10.9015 183.181 10.5921 182.552C10.2935 181.922 10.1441 181.192 10.1441 180.36C10.1441 179.528 10.2935 178.797 10.5921 178.168C10.9015 177.538 11.3335 177.053 11.8881 176.712C12.4535 176.37 13.1041 176.2 13.8401 176.2C14.5655 176.2 15.2055 176.37 15.7601 176.712C16.3148 177.053 16.7415 177.538 17.0401 178.168C17.3495 178.797 17.5041 179.528 17.5041 180.36C17.5041 181.192 17.3495 181.922 17.0401 182.552C16.7415 183.181 16.3148 183.666 15.7601 184.008C15.2055 184.349 14.5655 184.52 13.8401 184.52ZM13.8241 183.656C14.6775 183.656 15.3335 183.373 15.7921 182.808C16.2615 182.232 16.4961 181.416 16.4961 180.36C16.4961 179.314 16.2615 178.504 15.7921 177.928C15.3228 177.341 14.6721 177.048 13.8401 177.048C12.9975 177.048 12.3415 177.341 11.8721 177.928C11.4028 178.504 11.1681 179.314 11.1681 180.36C11.1681 181.426 11.3975 182.242 11.8561 182.808C12.3148 183.373 12.9708 183.656 13.8241 183.656ZM26.0885 176.392V184.408H25.1445V182.952C24.8885 183.464 24.5258 183.853 24.0565 184.12C23.5872 184.386 23.0485 184.52 22.4405 184.52C21.5018 184.52 20.7925 184.258 20.3125 183.736C19.8325 183.213 19.5925 182.44 19.5925 181.416V176.392H20.5525V181.352C20.5525 182.141 20.7125 182.722 21.0325 183.096C21.3525 183.469 21.8485 183.656 22.5205 183.656C23.3098 183.656 23.9392 183.41 24.4085 182.92C24.8778 182.418 25.1125 181.757 25.1125 180.936V176.392H26.0885ZM36.076 184.52C35.3187 184.52 34.6573 184.349 34.092 184.008C33.5267 183.666 33.0893 183.186 32.78 182.568C32.4707 181.938 32.316 181.213 32.316 180.392C32.316 179.56 32.4707 178.829 32.78 178.2C33.0893 177.56 33.532 177.069 34.108 176.728C34.684 176.376 35.3507 176.2 36.108 176.2C36.652 176.2 37.1693 176.296 37.66 176.488C38.1613 176.669 38.572 176.925 38.892 177.256L38.508 178.024C38.092 177.682 37.692 177.437 37.308 177.288C36.9347 177.128 36.5453 177.048 36.14 177.048C35.276 177.048 34.5933 177.346 34.092 177.944C33.5907 178.53 33.34 179.346 33.34 180.392C33.34 181.416 33.5853 182.216 34.076 182.792C34.5773 183.368 35.2653 183.656 36.14 183.656C36.5453 183.656 36.9347 183.581 37.308 183.432C37.692 183.272 38.092 183.026 38.508 182.696L38.892 183.448C38.5507 183.778 38.124 184.04 37.612 184.232C37.1107 184.424 36.5987 184.52 36.076 184.52ZM47.4718 176.392V184.408H46.4958V182.872C46.2611 183.405 45.9038 183.816 45.4238 184.104C44.9544 184.381 44.3891 184.52 43.7278 184.52C43.0131 184.52 42.3838 184.354 41.8398 184.024C41.3064 183.682 40.8904 183.202 40.5918 182.584C40.3038 181.954 40.1598 181.224 40.1598 180.392C40.1598 179.56 40.3091 178.829 40.6078 178.2C40.9064 177.56 41.3224 177.069 41.8558 176.728C42.3998 176.376 43.0238 176.2 43.7278 176.2C44.3784 176.2 44.9384 176.338 45.4078 176.616C45.8878 176.893 46.2504 177.298 46.4958 177.832V176.392H47.4718ZM43.8718 183.656C44.7038 183.656 45.3491 183.368 45.8078 182.792C46.2664 182.216 46.4958 181.405 46.4958 180.36C46.4958 179.304 46.2664 178.488 45.8078 177.912C45.3491 177.336 44.6984 177.048 43.8558 177.048C43.0131 177.048 42.3571 177.346 41.8878 177.944C41.4184 178.53 41.1838 179.346 41.1838 180.392C41.1838 181.426 41.4184 182.232 41.8878 182.808C42.3571 183.373 43.0184 183.656 43.8718 183.656ZM53.8529 176.2C55.7835 176.2 56.7489 177.234 56.7489 179.304V184.408H55.7729V179.368C55.7729 178.568 55.6075 177.981 55.2769 177.608C54.9569 177.234 54.4502 177.048 53.7569 177.048C52.9569 177.048 52.3115 177.293 51.8209 177.784C51.3302 178.274 51.0849 178.936 51.0849 179.768V184.408H50.1249V178.616C50.1249 177.784 50.0822 177.042 49.9969 176.392H50.9249L51.0529 177.864C51.2982 177.32 51.6662 176.909 52.1569 176.632C52.6475 176.344 53.2129 176.2 53.8529 176.2ZM70.317 176.392V184.44C70.317 185.602 70.029 186.482 69.453 187.08C68.877 187.677 68.029 187.976 66.909 187.976C65.7143 187.976 64.6743 187.688 63.789 187.112L63.981 186.264C64.5037 186.573 64.9837 186.792 65.421 186.92C65.8583 187.048 66.3597 187.112 66.925 187.112C67.725 187.112 68.3277 186.893 68.733 186.456C69.149 186.018 69.357 185.378 69.357 184.536V182.472C69.1117 183.016 68.749 183.437 68.269 183.736C67.789 184.024 67.213 184.168 66.541 184.168C65.837 184.168 65.213 184.002 64.669 183.672C64.125 183.33 63.6983 182.861 63.389 182.264C63.0903 181.656 62.941 180.962 62.941 180.184C62.941 179.394 63.0903 178.701 63.389 178.104C63.6983 177.496 64.125 177.026 64.669 176.696C65.213 176.365 65.837 176.2 66.541 176.2C67.213 176.2 67.7837 176.338 68.253 176.616C68.733 176.893 69.0957 177.298 69.341 177.832V176.392H70.317ZM66.669 183.288C67.501 183.288 68.1517 183.01 68.621 182.456C69.101 181.901 69.341 181.144 69.341 180.184C69.341 179.213 69.101 178.45 68.621 177.896C68.1517 177.33 67.501 177.048 66.669 177.048C65.8263 177.048 65.165 177.33 64.685 177.896C64.205 178.45 63.965 179.213 63.965 180.184C63.965 181.154 64.205 181.917 64.685 182.472C65.165 183.016 65.8263 183.288 66.669 183.288ZM73.4806 180.28V180.328C73.4806 181.405 73.726 182.232 74.2166 182.808C74.718 183.373 75.4433 183.656 76.3926 183.656C77.3526 183.656 78.2326 183.325 79.0326 182.664L79.4166 183.432C79.0646 183.762 78.6166 184.029 78.0726 184.232C77.5286 184.424 76.9686 184.52 76.3926 184.52C75.1766 184.52 74.2166 184.152 73.5126 183.416C72.8086 182.68 72.4566 181.666 72.4566 180.376C72.4566 179.554 72.6113 178.829 72.9206 178.2C73.2406 177.56 73.6833 177.069 74.2486 176.728C74.814 176.376 75.4646 176.2 76.2006 176.2C77.2566 176.2 78.078 176.541 78.6646 177.224C79.262 177.906 79.5606 178.856 79.5606 180.072V180.28H73.4806ZM76.2006 177C75.4646 177 74.8673 177.224 74.4086 177.672C73.95 178.109 73.662 178.728 73.5446 179.528H78.6326C78.5686 178.706 78.3286 178.082 77.9126 177.656C77.4966 177.218 76.926 177 76.2006 177ZM83.0005 177.176V181.944C83.0005 182.584 83.1232 183.026 83.3685 183.272C83.6138 183.517 83.9765 183.64 84.4565 183.64C84.7552 183.64 85.0432 183.592 85.3205 183.496V184.376C84.9792 184.461 84.6325 184.504 84.2805 184.504C83.5765 184.504 83.0218 184.306 82.6165 183.912C82.2218 183.517 82.0245 182.925 82.0245 182.136V177.176H80.4405V176.392H82.0245V174.264L83.0005 173.896V176.392H85.3685V177.176H83.0005ZM98.3733 183.544V184.408H91.1893V183.672L95.2373 179.144C95.8133 178.482 96.2293 177.901 96.4853 177.4C96.7413 176.888 96.8693 176.381 96.8693 175.88C96.8693 175.197 96.6719 174.674 96.2773 174.312C95.8933 173.938 95.3386 173.752 94.6133 173.752C93.4933 173.752 92.3999 174.21 91.3333 175.128L90.9173 174.344C91.3653 173.906 91.9253 173.554 92.5973 173.288C93.2693 173.021 93.9413 172.888 94.6133 172.888C95.6266 172.888 96.4213 173.154 96.9973 173.688C97.5839 174.21 97.8773 174.925 97.8773 175.832C97.8773 176.482 97.7226 177.117 97.4133 177.736C97.1146 178.354 96.6239 179.042 95.9413 179.8L92.5173 183.544H98.3733ZM108.367 181.816H106.607V184.408H105.615V181.816H100.223V181.064L105.791 173.016H106.607V180.968H108.367V181.816ZM105.615 180.968V174.776L101.327 180.968H105.615ZM108.617 185.272L112.697 172.44H113.673L109.577 185.272H108.617ZM121.792 173.016V173.752L116.384 184.408H115.312L120.688 173.88H114.464V173.016H121.792ZM134.776 176.392V184.408H133.832V182.952C133.576 183.464 133.213 183.853 132.744 184.12C132.275 184.386 131.736 184.52 131.128 184.52C130.189 184.52 129.48 184.258 129 183.736C128.52 183.213 128.28 182.44 128.28 181.416V176.392H129.24V181.352C129.24 182.141 129.4 182.722 129.72 183.096C130.04 183.469 130.536 183.656 131.208 183.656C131.997 183.656 132.627 183.41 133.096 182.92C133.565 182.418 133.8 181.757 133.8 180.936V176.392H134.776ZM140.893 176.2C141.16 176.2 141.395 176.221 141.597 176.264L141.549 177.144C141.347 177.101 141.101 177.08 140.813 177.08C140.003 177.08 139.395 177.341 138.989 177.864C138.595 178.376 138.397 178.989 138.397 179.704V184.408H137.437V178.616C137.437 177.784 137.395 177.042 137.309 176.392H138.237L138.365 177.88C138.568 177.336 138.893 176.92 139.341 176.632C139.8 176.344 140.317 176.2 140.893 176.2ZM149.723 176.392V184.44C149.723 185.602 149.435 186.482 148.859 187.08C148.283 187.677 147.435 187.976 146.315 187.976C145.121 187.976 144.081 187.688 143.195 187.112L143.387 186.264C143.91 186.573 144.39 186.792 144.827 186.92C145.265 187.048 145.766 187.112 146.331 187.112C147.131 187.112 147.734 186.893 148.139 186.456C148.555 186.018 148.763 185.378 148.763 184.536V182.472C148.518 183.016 148.155 183.437 147.675 183.736C147.195 184.024 146.619 184.168 145.947 184.168C145.243 184.168 144.619 184.002 144.075 183.672C143.531 183.33 143.105 182.861 142.795 182.264C142.497 181.656 142.347 180.962 142.347 180.184C142.347 179.394 142.497 178.701 142.795 178.104C143.105 177.496 143.531 177.026 144.075 176.696C144.619 176.365 145.243 176.2 145.947 176.2C146.619 176.2 147.19 176.338 147.659 176.616C148.139 176.893 148.502 177.298 148.747 177.832V176.392H149.723ZM146.075 183.288C146.907 183.288 147.558 183.01 148.027 182.456C148.507 181.901 148.747 181.144 148.747 180.184C148.747 179.213 148.507 178.45 148.027 177.896C147.558 177.33 146.907 177.048 146.075 177.048C145.233 177.048 144.571 177.33 144.091 177.896C143.611 178.45 143.371 179.213 143.371 180.184C143.371 181.154 143.611 181.917 144.091 182.472C144.571 183.016 145.233 183.288 146.075 183.288ZM152.887 180.28V180.328C152.887 181.405 153.132 182.232 153.623 182.808C154.124 183.373 154.85 183.656 155.799 183.656C156.759 183.656 157.639 183.325 158.439 182.664L158.823 183.432C158.471 183.762 158.023 184.029 157.479 184.232C156.935 184.424 156.375 184.52 155.799 184.52C154.583 184.52 153.623 184.152 152.919 183.416C152.215 182.68 151.863 181.666 151.863 180.376C151.863 179.554 152.018 178.829 152.327 178.2C152.647 177.56 153.09 177.069 153.655 176.728C154.22 176.376 154.871 176.2 155.607 176.2C156.663 176.2 157.484 176.541 158.071 177.224C158.668 177.906 158.967 178.856 158.967 180.072V180.28H152.887ZM155.607 177C154.871 177 154.274 177.224 153.815 177.672C153.356 178.109 153.068 178.728 152.951 179.528H158.039C157.975 178.706 157.735 178.082 157.319 177.656C156.903 177.218 156.332 177 155.607 177ZM164.79 176.2C166.721 176.2 167.686 177.234 167.686 179.304V184.408H166.71V179.368C166.71 178.568 166.545 177.981 166.214 177.608C165.894 177.234 165.388 177.048 164.694 177.048C163.894 177.048 163.249 177.293 162.758 177.784C162.268 178.274 162.022 178.936 162.022 179.768V184.408H161.062V178.616C161.062 177.784 161.02 177.042 160.934 176.392H161.862L161.99 177.864C162.236 177.32 162.604 176.909 163.094 176.632C163.585 176.344 164.15 176.2 164.79 176.2ZM171.672 177.176V181.944C171.672 182.584 171.795 183.026 172.04 183.272C172.286 183.517 172.648 183.64 173.128 183.64C173.427 183.64 173.715 183.592 173.992 183.496V184.376C173.651 184.461 173.304 184.504 172.952 184.504C172.248 184.504 171.694 184.306 171.288 183.912C170.894 183.517 170.696 182.925 170.696 182.136V177.176H169.112V176.392H170.696V174.264L171.672 173.896V176.392H174.04V177.176H171.672ZM183.029 184.52C182.272 184.52 181.61 184.349 181.045 184.008C180.48 183.666 180.042 183.186 179.733 182.568C179.424 181.938 179.269 181.213 179.269 180.392C179.269 179.56 179.424 178.829 179.733 178.2C180.042 177.56 180.485 177.069 181.061 176.728C181.637 176.376 182.304 176.2 183.061 176.2C183.605 176.2 184.122 176.296 184.613 176.488C185.114 176.669 185.525 176.925 185.845 177.256L185.461 178.024C185.045 177.682 184.645 177.437 184.261 177.288C183.888 177.128 183.498 177.048 183.093 177.048C182.229 177.048 181.546 177.346 181.045 177.944C180.544 178.53 180.293 179.346 180.293 180.392C180.293 181.416 180.538 182.216 181.029 182.792C181.53 183.368 182.218 183.656 183.093 183.656C183.498 183.656 183.888 183.581 184.261 183.432C184.645 183.272 185.045 183.026 185.461 182.696L185.845 183.448C185.504 183.778 185.077 184.04 184.565 184.232C184.064 184.424 183.552 184.52 183.029 184.52ZM194.425 176.392V184.408H193.449V182.872C193.214 183.405 192.857 183.816 192.377 184.104C191.908 184.381 191.342 184.52 190.681 184.52C189.966 184.52 189.337 184.354 188.793 184.024C188.26 183.682 187.844 183.202 187.545 182.584C187.257 181.954 187.113 181.224 187.113 180.392C187.113 179.56 187.262 178.829 187.561 178.2C187.86 177.56 188.276 177.069 188.809 176.728C189.353 176.376 189.977 176.2 190.681 176.2C191.332 176.2 191.892 176.338 192.361 176.616C192.841 176.893 193.204 177.298 193.449 177.832V176.392H194.425ZM190.825 183.656C191.657 183.656 192.302 183.368 192.761 182.792C193.22 182.216 193.449 181.405 193.449 180.36C193.449 179.304 193.22 178.488 192.761 177.912C192.302 177.336 191.652 177.048 190.809 177.048C189.966 177.048 189.31 177.346 188.841 177.944C188.372 178.53 188.137 179.346 188.137 180.392C188.137 181.426 188.372 182.232 188.841 182.808C189.31 183.373 189.972 183.656 190.825 183.656ZM200.534 176.2C200.801 176.2 201.035 176.221 201.238 176.264L201.19 177.144C200.987 177.101 200.742 177.08 200.454 177.08C199.643 177.08 199.035 177.341 198.63 177.864C198.235 178.376 198.038 178.989 198.038 179.704V184.408H197.078V178.616C197.078 177.784 197.035 177.042 196.95 176.392H197.878L198.006 177.88C198.209 177.336 198.534 176.92 198.982 176.632C199.441 176.344 199.958 176.2 200.534 176.2ZM203.012 180.28V180.328C203.012 181.405 203.257 182.232 203.748 182.808C204.249 183.373 204.975 183.656 205.924 183.656C206.884 183.656 207.764 183.325 208.564 182.664L208.948 183.432C208.596 183.762 208.148 184.029 207.604 184.232C207.06 184.424 206.5 184.52 205.924 184.52C204.708 184.52 203.748 184.152 203.044 183.416C202.34 182.68 201.988 181.666 201.988 180.376C201.988 179.554 202.143 178.829 202.452 178.2C202.772 177.56 203.215 177.069 203.78 176.728C204.345 176.376 204.996 176.2 205.732 176.2C206.788 176.2 207.609 176.541 208.196 177.224C208.793 177.906 209.092 178.856 209.092 180.072V180.28H203.012ZM205.732 177C204.996 177 204.399 177.224 203.94 177.672C203.481 178.109 203.193 178.728 203.076 179.528H208.164C208.1 178.706 207.86 178.082 207.444 177.656C207.028 177.218 206.457 177 205.732 177ZM218.034 173.448C217.575 173.448 217.223 173.57 216.978 173.816C216.732 174.061 216.61 174.498 216.61 175.128V176.392H218.674V177.176H216.61V184.408H215.634V177.176H214.066V176.392H215.634V174.952C215.634 174.152 215.831 173.554 216.226 173.16C216.62 172.765 217.164 172.568 217.858 172.568C218.178 172.568 218.508 172.61 218.85 172.696V173.576C218.562 173.49 218.29 173.448 218.034 173.448ZM223.559 184.52C222.823 184.52 222.172 184.349 221.607 184.008C221.052 183.666 220.62 183.181 220.311 182.552C220.012 181.922 219.863 181.192 219.863 180.36C219.863 179.528 220.012 178.797 220.311 178.168C220.62 177.538 221.052 177.053 221.607 176.712C222.172 176.37 222.823 176.2 223.559 176.2C224.284 176.2 224.924 176.37 225.479 176.712C226.034 177.053 226.46 177.538 226.759 178.168C227.068 178.797 227.223 179.528 227.223 180.36C227.223 181.192 227.068 181.922 226.759 182.552C226.46 183.181 226.034 183.666 225.479 184.008C224.924 184.349 224.284 184.52 223.559 184.52ZM223.543 183.656C224.396 183.656 225.052 183.373 225.511 182.808C225.98 182.232 226.215 181.416 226.215 180.36C226.215 179.314 225.98 178.504 225.511 177.928C225.042 177.341 224.391 177.048 223.559 177.048C222.716 177.048 222.06 177.341 221.591 177.928C221.122 178.504 220.887 179.314 220.887 180.36C220.887 181.426 221.116 182.242 221.575 182.808C222.034 183.373 222.69 183.656 223.543 183.656ZM232.815 176.2C233.082 176.2 233.317 176.221 233.519 176.264L233.471 177.144C233.269 177.101 233.023 177.08 232.735 177.08C231.925 177.08 231.317 177.341 230.911 177.864C230.517 178.376 230.319 178.989 230.319 179.704V184.408H229.359V178.616C229.359 177.784 229.317 177.042 229.231 176.392H230.159L230.287 177.88C230.49 177.336 230.815 176.92 231.263 176.632C231.722 176.344 232.239 176.2 232.815 176.2ZM9.128 204.392L5.352 213.24C4.97867 214.114 4.50933 214.754 3.944 215.16C3.38933 215.576 2.69067 215.869 1.848 216.04L1.656 215.272C2.424 215.09 3 214.856 3.384 214.568C3.77867 214.28 4.10933 213.826 4.376 213.208L4.712 212.424L1.288 204.392H2.328L5.224 211.432L8.136 204.392H9.128ZM13.8401 212.52C13.1041 212.52 12.4535 212.349 11.8881 212.008C11.3335 211.666 10.9015 211.181 10.5921 210.552C10.2935 209.922 10.1441 209.192 10.1441 208.36C10.1441 207.528 10.2935 206.797 10.5921 206.168C10.9015 205.538 11.3335 205.053 11.8881 204.712C12.4535 204.37 13.1041 204.2 13.8401 204.2C14.5655 204.2 15.2055 204.37 15.7601 204.712C16.3148 205.053 16.7415 205.538 17.0401 206.168C17.3495 206.797 17.5041 207.528 17.5041 208.36C17.5041 209.192 17.3495 209.922 17.0401 210.552C16.7415 211.181 16.3148 211.666 15.7601 212.008C15.2055 212.349 14.5655 212.52 13.8401 212.52ZM13.8241 211.656C14.6775 211.656 15.3335 211.373 15.7921 210.808C16.2615 210.232 16.4961 209.416 16.4961 208.36C16.4961 207.314 16.2615 206.504 15.7921 205.928C15.3228 205.341 14.6721 205.048 13.8401 205.048C12.9975 205.048 12.3415 205.341 11.8721 205.928C11.4028 206.504 11.1681 207.314 11.1681 208.36C11.1681 209.426 11.3975 210.242 11.8561 210.808C12.3148 211.373 12.9708 211.656 13.8241 211.656ZM26.0885 204.392V212.408H25.1445V210.952C24.8885 211.464 24.5258 211.853 24.0565 212.12C23.5872 212.386 23.0485 212.52 22.4405 212.52C21.5018 212.52 20.7925 212.258 20.3125 211.736C19.8325 211.213 19.5925 210.44 19.5925 209.416V204.392H20.5525V209.352C20.5525 210.141 20.7125 210.722 21.0325 211.096C21.3525 211.469 21.8485 211.656 22.5205 211.656C23.3098 211.656 23.9392 211.41 24.4085 210.92C24.8778 210.418 25.1125 209.757 25.1125 208.936V204.392H26.0885ZM32.2059 204.2C32.4725 204.2 32.7072 204.221 32.9099 204.264L32.8619 205.144C32.6592 205.101 32.4139 205.08 32.1259 205.08C31.3152 205.08 30.7072 205.341 30.3019 205.864C29.9072 206.376 29.7099 206.989 29.7099 207.704V212.408H28.7499V206.616C28.7499 205.784 28.7072 205.042 28.6219 204.392H29.5499L29.6779 205.88C29.8805 205.336 30.2059 204.92 30.6539 204.632C31.1125 204.344 31.6299 204.2 32.2059 204.2ZM36.8579 212.52C35.5565 212.52 34.5272 212.162 33.7699 211.448L34.1219 210.696C34.5485 211.048 34.9752 211.298 35.4019 211.448C35.8392 211.597 36.3405 211.672 36.9059 211.672C37.5672 211.672 38.0685 211.56 38.4099 211.336C38.7619 211.101 38.9379 210.765 38.9379 210.328C38.9379 209.965 38.8205 209.682 38.5859 209.48C38.3619 209.266 37.9885 209.096 37.4659 208.968L36.1059 208.664C35.4659 208.514 34.9592 208.248 34.5859 207.864C34.2232 207.48 34.0419 207.032 34.0419 206.52C34.0419 205.816 34.3085 205.256 34.8419 204.84C35.3859 204.413 36.1059 204.2 37.0019 204.2C37.5672 204.2 38.0899 204.29 38.5699 204.472C39.0605 204.653 39.4659 204.914 39.7859 205.256L39.4179 206.008C38.6819 205.368 37.8765 205.048 37.0019 205.048C36.3832 205.048 35.9032 205.17 35.5619 205.416C35.2205 205.661 35.0499 206.002 35.0499 206.44C35.0499 206.802 35.1565 207.096 35.3699 207.32C35.5939 207.544 35.9352 207.709 36.3939 207.816L37.7699 208.152C39.2099 208.472 39.9299 209.181 39.9299 210.28C39.9299 210.952 39.6525 211.496 39.0979 211.912C38.5432 212.317 37.7965 212.52 36.8579 212.52ZM42.6681 208.28V208.328C42.6681 209.405 42.9135 210.232 43.4041 210.808C43.9055 211.373 44.6308 211.656 45.5801 211.656C46.5401 211.656 47.4201 211.325 48.2201 210.664L48.6041 211.432C48.2521 211.762 47.8041 212.029 47.2601 212.232C46.7161 212.424 46.1561 212.52 45.5801 212.52C44.3641 212.52 43.4041 212.152 42.7001 211.416C41.9961 210.68 41.6441 209.666 41.6441 208.376C41.6441 207.554 41.7988 206.829 42.1081 206.2C42.4281 205.56 42.8708 205.069 43.4361 204.728C44.0015 204.376 44.6521 204.2 45.3881 204.2C46.4441 204.2 47.2655 204.541 47.8521 205.224C48.4495 205.906 48.7481 206.856 48.7481 208.072V208.28H42.6681ZM45.3881 205C44.6521 205 44.0548 205.224 43.5961 205.672C43.1375 206.109 42.8495 206.728 42.7321 207.528H47.8201C47.7561 206.706 47.5161 206.082 47.1001 205.656C46.6841 205.218 46.1135 205 45.3881 205ZM50.8436 200.632H51.8036V212.408H50.8436V200.632ZM57.2523 201.448C56.7936 201.448 56.4416 201.57 56.1963 201.816C55.9509 202.061 55.8283 202.498 55.8283 203.128V204.392H57.8923V205.176H55.8283V212.408H54.8523V205.176H53.2843V204.392H54.8523V202.952C54.8523 202.152 55.0496 201.554 55.4443 201.16C55.8389 200.765 56.3829 200.568 57.0763 200.568C57.3963 200.568 57.7269 200.61 58.0683 200.696V201.576C57.7803 201.49 57.5083 201.448 57.2523 201.448ZM66.9339 212.52C66.1979 212.52 65.5472 212.349 64.9819 212.008C64.4272 211.666 63.9952 211.181 63.6859 210.552C63.3872 209.922 63.2379 209.192 63.2379 208.36C63.2379 207.528 63.3872 206.797 63.6859 206.168C63.9952 205.538 64.4272 205.053 64.9819 204.712C65.5472 204.37 66.1979 204.2 66.9339 204.2C67.6592 204.2 68.2992 204.37 68.8539 204.712C69.4085 205.053 69.8352 205.538 70.1339 206.168C70.4432 206.797 70.5979 207.528 70.5979 208.36C70.5979 209.192 70.4432 209.922 70.1339 210.552C69.8352 211.181 69.4085 211.666 68.8539 212.008C68.2992 212.349 67.6592 212.52 66.9339 212.52ZM66.9179 211.656C67.7712 211.656 68.4272 211.373 68.8859 210.808C69.3552 210.232 69.5899 209.416 69.5899 208.36C69.5899 207.314 69.3552 206.504 68.8859 205.928C68.4165 205.341 67.7659 205.048 66.9339 205.048C66.0912 205.048 65.4352 205.341 64.9659 205.928C64.4965 206.504 64.2619 207.314 64.2619 208.36C64.2619 209.426 64.4912 210.242 64.9499 210.808C65.4085 211.373 66.0645 211.656 66.9179 211.656ZM76.1903 204.2C76.4569 204.2 76.6916 204.221 76.8943 204.264L76.8463 205.144C76.6436 205.101 76.3983 205.08 76.1102 205.08C75.2996 205.08 74.6916 205.341 74.2863 205.864C73.8916 206.376 73.6943 206.989 73.6943 207.704V212.408H72.7343V206.616C72.7343 205.784 72.6916 205.042 72.6063 204.392H73.5343L73.6623 205.88C73.8649 205.336 74.1903 204.92 74.6383 204.632C75.0969 204.344 75.6143 204.2 76.1903 204.2ZM89.1905 204.392L85.4145 213.24C85.0412 214.114 84.5718 214.754 84.0065 215.16C83.4518 215.576 82.7532 215.869 81.9105 216.04L81.7185 215.272C82.4865 215.09 83.0625 214.856 83.4465 214.568C83.8412 214.28 84.1718 213.826 84.4385 213.208L84.7745 212.424L81.3505 204.392H82.3905L85.2865 211.432L88.1985 204.392H89.1905ZM93.9026 212.52C93.1666 212.52 92.516 212.349 91.9506 212.008C91.396 211.666 90.964 211.181 90.6546 210.552C90.356 209.922 90.2066 209.192 90.2066 208.36C90.2066 207.528 90.356 206.797 90.6546 206.168C90.964 205.538 91.396 205.053 91.9506 204.712C92.516 204.37 93.1666 204.2 93.9026 204.2C94.628 204.2 95.268 204.37 95.8226 204.712C96.3773 205.053 96.804 205.538 97.1026 206.168C97.412 206.797 97.5666 207.528 97.5666 208.36C97.5666 209.192 97.412 209.922 97.1026 210.552C96.804 211.181 96.3773 211.666 95.8226 212.008C95.268 212.349 94.628 212.52 93.9026 212.52ZM93.8866 211.656C94.74 211.656 95.396 211.373 95.8546 210.808C96.324 210.232 96.5586 209.416 96.5586 208.36C96.5586 207.314 96.324 206.504 95.8546 205.928C95.3853 205.341 94.7346 205.048 93.9026 205.048C93.06 205.048 92.404 205.341 91.9346 205.928C91.4653 206.504 91.2306 207.314 91.2306 208.36C91.2306 209.426 91.46 210.242 91.9186 210.808C92.3773 211.373 93.0333 211.656 93.8866 211.656ZM106.151 204.392V212.408H105.207V210.952C104.951 211.464 104.588 211.853 104.119 212.12C103.65 212.386 103.111 212.52 102.503 212.52C101.564 212.52 100.855 212.258 100.375 211.736C99.895 211.213 99.655 210.44 99.655 209.416V204.392H100.615V209.352C100.615 210.141 100.775 210.722 101.095 211.096C101.415 211.469 101.911 211.656 102.583 211.656C103.372 211.656 104.002 211.41 104.471 210.92C104.94 210.418 105.175 209.757 105.175 208.936V204.392H106.151ZM112.268 204.2C112.535 204.2 112.77 204.221 112.972 204.264L112.924 205.144C112.722 205.101 112.476 205.08 112.188 205.08C111.378 205.08 110.77 205.341 110.364 205.864C109.97 206.376 109.772 206.989 109.772 207.704V212.408H108.812V206.616C108.812 205.784 108.77 205.042 108.684 204.392H109.612L109.74 205.88C109.943 205.336 110.268 204.92 110.716 204.632C111.175 204.344 111.692 204.2 112.268 204.2ZM121.717 212.52C120.959 212.52 120.298 212.349 119.733 212.008C119.167 211.666 118.73 211.186 118.421 210.568C118.111 209.938 117.957 209.213 117.957 208.392C117.957 207.56 118.111 206.829 118.421 206.2C118.73 205.56 119.173 205.069 119.749 204.728C120.325 204.376 120.991 204.2 121.749 204.2C122.293 204.2 122.81 204.296 123.301 204.488C123.802 204.669 124.213 204.925 124.533 205.256L124.149 206.024C123.733 205.682 123.333 205.437 122.949 205.288C122.575 205.128 122.186 205.048 121.781 205.048C120.917 205.048 120.234 205.346 119.733 205.944C119.231 206.53 118.981 207.346 118.981 208.392C118.981 209.416 119.226 210.216 119.717 210.792C120.218 211.368 120.906 211.656 121.781 211.656C122.186 211.656 122.575 211.581 122.949 211.432C123.333 211.272 123.733 211.026 124.149 210.696L124.533 211.448C124.191 211.778 123.765 212.04 123.253 212.232C122.751 212.424 122.239 212.52 121.717 212.52ZM130.04 204.2C131.971 204.2 132.936 205.234 132.936 207.304V212.408H131.96V207.368C131.96 206.568 131.795 205.981 131.464 205.608C131.144 205.234 130.638 205.048 129.944 205.048C129.144 205.048 128.499 205.293 128.008 205.784C127.518 206.274 127.272 206.936 127.272 207.768V212.408H126.312V200.632H127.272V205.784C127.528 205.261 127.896 204.866 128.376 204.6C128.856 204.333 129.411 204.2 130.04 204.2ZM135.562 204.392H136.522V212.408H135.562V204.392ZM136.714 201.08V202.328H135.418V201.08H136.714ZM139.203 200.632H140.163V212.408H139.203V200.632ZM149.644 200.632V212.408H148.668V210.872C148.433 211.405 148.076 211.816 147.596 212.104C147.126 212.381 146.561 212.52 145.9 212.52C145.196 212.52 144.572 212.349 144.028 212.008C143.494 211.656 143.078 211.165 142.78 210.536C142.481 209.896 142.332 209.16 142.332 208.328C142.332 207.496 142.476 206.77 142.764 206.152C143.062 205.522 143.478 205.042 144.012 204.712C144.556 204.37 145.185 204.2 145.9 204.2C146.55 204.2 147.11 204.338 147.58 204.616C148.06 204.893 148.422 205.298 148.668 205.832V200.632H149.644ZM146.028 211.656C146.87 211.656 147.521 211.368 147.98 210.792C148.438 210.216 148.668 209.405 148.668 208.36C148.668 207.314 148.438 206.504 147.98 205.928C147.521 205.341 146.876 205.048 146.044 205.048C145.19 205.048 144.529 205.336 144.06 205.912C143.59 206.488 143.356 207.293 143.356 208.328C143.356 209.373 143.59 210.189 144.06 210.776C144.529 211.362 145.185 211.656 146.028 211.656ZM155.753 204.2C156.019 204.2 156.254 204.221 156.457 204.264L156.409 205.144C156.206 205.101 155.961 205.08 155.673 205.08C154.862 205.08 154.254 205.341 153.849 205.864C153.454 206.376 153.257 206.989 153.257 207.704V212.408H152.297V206.616C152.297 205.784 152.254 205.042 152.169 204.392H153.097L153.225 205.88C153.427 205.336 153.753 204.92 154.201 204.632C154.659 204.344 155.177 204.2 155.753 204.2ZM158.231 208.28V208.328C158.231 209.405 158.476 210.232 158.967 210.808C159.468 211.373 160.193 211.656 161.143 211.656C162.103 211.656 162.983 211.325 163.783 210.664L164.167 211.432C163.815 211.762 163.367 212.029 162.823 212.232C162.279 212.424 161.719 212.52 161.143 212.52C159.927 212.52 158.967 212.152 158.263 211.416C157.559 210.68 157.207 209.666 157.207 208.376C157.207 207.554 157.361 206.829 157.671 206.2C157.991 205.56 158.433 205.069 158.999 204.728C159.564 204.376 160.215 204.2 160.951 204.2C162.007 204.2 162.828 204.541 163.415 205.224C164.012 205.906 164.311 206.856 164.311 208.072V208.28H158.231ZM160.951 205C160.215 205 159.617 205.224 159.159 205.672C158.7 206.109 158.412 206.728 158.295 207.528H163.383C163.319 206.706 163.079 206.082 162.663 205.656C162.247 205.218 161.676 205 160.951 205ZM170.134 204.2C172.065 204.2 173.03 205.234 173.03 207.304V212.408H172.054V207.368C172.054 206.568 171.889 205.981 171.558 205.608C171.238 205.234 170.731 205.048 170.038 205.048C169.238 205.048 168.593 205.293 168.102 205.784C167.611 206.274 167.366 206.936 167.366 207.768V212.408H166.406V206.616C166.406 205.784 166.363 205.042 166.278 204.392H167.206L167.334 205.864C167.579 205.32 167.947 204.909 168.438 204.632C168.929 204.344 169.494 204.2 170.134 204.2ZM186.534 204.392V212.408H185.558V210.872C185.324 211.405 184.966 211.816 184.486 212.104C184.017 212.381 183.452 212.52 182.79 212.52C182.076 212.52 181.446 212.354 180.902 212.024C180.369 211.682 179.953 211.202 179.654 210.584C179.366 209.954 179.222 209.224 179.222 208.392C179.222 207.56 179.372 206.829 179.67 206.2C179.969 205.56 180.385 205.069 180.918 204.728C181.462 204.376 182.086 204.2 182.79 204.2C183.441 204.2 184.001 204.338 184.47 204.616C184.95 204.893 185.313 205.298 185.558 205.832V204.392H186.534ZM182.934 211.656C183.766 211.656 184.412 211.368 184.87 210.792C185.329 210.216 185.558 209.405 185.558 208.36C185.558 207.304 185.329 206.488 184.87 205.912C184.412 205.336 183.761 205.048 182.918 205.048C182.076 205.048 181.42 205.346 180.95 205.944C180.481 206.53 180.246 207.346 180.246 208.392C180.246 209.426 180.481 210.232 180.95 210.808C181.42 211.373 182.081 211.656 182.934 211.656ZM192.915 204.2C194.846 204.2 195.811 205.234 195.811 207.304V212.408H194.835V207.368C194.835 206.568 194.67 205.981 194.339 205.608C194.019 205.234 193.513 205.048 192.819 205.048C192.019 205.048 191.374 205.293 190.883 205.784C190.393 206.274 190.147 206.936 190.147 207.768V212.408H189.187V206.616C189.187 205.784 189.145 205.042 189.059 204.392H189.987L190.115 205.864C190.361 205.32 190.729 204.909 191.219 204.632C191.71 204.344 192.275 204.2 192.915 204.2ZM205.237 200.632V212.408H204.261V210.872C204.027 211.405 203.669 211.816 203.189 212.104C202.72 212.381 202.155 212.52 201.493 212.52C200.789 212.52 200.165 212.349 199.621 212.008C199.088 211.656 198.672 211.165 198.373 210.536C198.075 209.896 197.925 209.16 197.925 208.328C197.925 207.496 198.069 206.77 198.357 206.152C198.656 205.522 199.072 205.042 199.605 204.712C200.149 204.37 200.779 204.2 201.493 204.2C202.144 204.2 202.704 204.338 203.173 204.616C203.653 204.893 204.016 205.298 204.261 205.832V200.632H205.237ZM201.621 211.656C202.464 211.656 203.115 211.368 203.573 210.792C204.032 210.216 204.261 209.405 204.261 208.36C204.261 207.314 204.032 206.504 203.573 205.928C203.115 205.341 202.469 205.048 201.637 205.048C200.784 205.048 200.123 205.336 199.653 205.912C199.184 206.488 198.949 207.293 198.949 208.328C198.949 209.373 199.184 210.189 199.653 210.776C200.123 211.362 200.779 211.656 201.621 211.656ZM218.769 204.392L214.993 213.24C214.619 214.114 214.15 214.754 213.585 215.16C213.03 215.576 212.331 215.869 211.489 216.04L211.297 215.272C212.065 215.09 212.641 214.856 213.025 214.568C213.419 214.28 213.75 213.826 214.017 213.208L214.353 212.424L210.929 204.392H211.969L214.865 211.432L217.777 204.392H218.769ZM223.481 212.52C222.745 212.52 222.094 212.349 221.529 212.008C220.974 211.666 220.542 211.181 220.233 210.552C219.934 209.922 219.785 209.192 219.785 208.36C219.785 207.528 219.934 206.797 220.233 206.168C220.542 205.538 220.974 205.053 221.529 204.712C222.094 204.37 222.745 204.2 223.481 204.2C224.206 204.2 224.846 204.37 225.401 204.712C225.955 205.053 226.382 205.538 226.681 206.168C226.99 206.797 227.145 207.528 227.145 208.36C227.145 209.192 226.99 209.922 226.681 210.552C226.382 211.181 225.955 211.666 225.401 212.008C224.846 212.349 224.206 212.52 223.481 212.52ZM223.465 211.656C224.318 211.656 224.974 211.373 225.433 210.808C225.902 210.232 226.137 209.416 226.137 208.36C226.137 207.314 225.902 206.504 225.433 205.928C224.963 205.341 224.313 205.048 223.481 205.048C222.638 205.048 221.982 205.341 221.513 205.928C221.043 206.504 220.809 207.314 220.809 208.36C220.809 209.426 221.038 210.242 221.497 210.808C221.955 211.373 222.611 211.656 223.465 211.656ZM235.729 204.392V212.408H234.785V210.952C234.529 211.464 234.166 211.853 233.697 212.12C233.228 212.386 232.689 212.52 232.081 212.52C231.142 212.52 230.433 212.258 229.953 211.736C229.473 211.213 229.233 210.44 229.233 209.416V204.392H230.193V209.352C230.193 210.141 230.353 210.722 230.673 211.096C230.993 211.469 231.489 211.656 232.161 211.656C232.95 211.656 233.58 211.41 234.049 210.92C234.518 210.418 234.753 209.757 234.753 208.936V204.392H235.729ZM241.847 204.2C242.113 204.2 242.348 204.221 242.551 204.264L242.503 205.144C242.3 205.101 242.055 205.08 241.766 205.08C240.956 205.08 240.348 205.341 239.943 205.864C239.548 206.376 239.351 206.989 239.351 207.704V212.408H238.391V206.616C238.391 205.784 238.348 205.042 238.263 204.392H239.191L239.319 205.88C239.521 205.336 239.847 204.92 240.295 204.632C240.753 204.344 241.271 204.2 241.847 204.2ZM2.328 228.632H3.288V240.408H2.328V228.632ZM9.15263 240.52C8.41663 240.52 7.76596 240.349 7.20063 240.008C6.64596 239.666 6.21396 239.181 5.90463 238.552C5.60596 237.922 5.45663 237.192 5.45663 236.36C5.45663 235.528 5.60596 234.797 5.90463 234.168C6.21396 233.538 6.64596 233.053 7.20063 232.712C7.76596 232.37 8.41663 232.2 9.15263 232.2C9.87796 232.2 10.518 232.37 11.0726 232.712C11.6273 233.053 12.054 233.538 12.3526 234.168C12.662 234.797 12.8166 235.528 12.8166 236.36C12.8166 237.192 12.662 237.922 12.3526 238.552C12.054 239.181 11.6273 239.666 11.0726 240.008C10.518 240.349 9.87796 240.52 9.15263 240.52ZM9.13663 239.656C9.98996 239.656 10.646 239.373 11.1046 238.808C11.574 238.232 11.8086 237.416 11.8086 236.36C11.8086 235.314 11.574 234.504 11.1046 233.928C10.6353 233.341 9.98463 233.048 9.15263 233.048C8.30996 233.048 7.65396 233.341 7.18463 233.928C6.71529 234.504 6.48063 235.314 6.48063 236.36C6.48063 237.426 6.70996 238.242 7.16863 238.808C7.62729 239.373 8.28329 239.656 9.13663 239.656ZM21.6749 232.392L18.2349 240.408H17.2269L13.8349 232.392H14.8749L17.7709 239.432L20.6829 232.392H21.6749ZM23.715 236.28V236.328C23.715 237.405 23.9603 238.232 24.451 238.808C24.9523 239.373 25.6777 239.656 26.627 239.656C27.587 239.656 28.467 239.325 29.267 238.664L29.651 239.432C29.299 239.762 28.851 240.029 28.307 240.232C27.763 240.424 27.203 240.52 26.627 240.52C25.411 240.52 24.451 240.152 23.747 239.416C23.043 238.68 22.691 237.666 22.691 236.376C22.691 235.554 22.8457 234.829 23.155 234.2C23.475 233.56 23.9177 233.069 24.483 232.728C25.0483 232.376 25.699 232.2 26.435 232.2C27.491 232.2 28.3123 232.541 28.899 233.224C29.4963 233.906 29.795 234.856 29.795 236.072V236.28H23.715ZM26.435 233C25.699 233 25.1017 233.224 24.643 233.672C24.1843 234.109 23.8963 234.728 23.779 235.528H28.867C28.803 234.706 28.563 234.082 28.147 233.656C27.731 233.218 27.1603 233 26.435 233ZM31.8905 228.632H32.8505V240.408H31.8905V228.632ZM42.3311 232.392L38.5551 241.24C38.1818 242.114 37.7125 242.754 37.1471 243.16C36.5925 243.576 35.8938 243.869 35.0511 244.04L34.8591 243.272C35.6271 243.09 36.2031 242.856 36.5871 242.568C36.9818 242.28 37.3125 241.826 37.5791 241.208L37.9151 240.424L34.4911 232.392H35.5311L38.4271 239.432L41.3391 232.392H42.3311ZM50.7835 229.448C50.3248 229.448 49.9728 229.57 49.7275 229.816C49.4822 230.061 49.3595 230.498 49.3595 231.128V232.392H51.4235V233.176H49.3595V240.408H48.3835V233.176H46.8155V232.392H48.3835V230.952C48.3835 230.152 48.5808 229.554 48.9755 229.16C49.3702 228.765 49.9142 228.568 50.6075 228.568C50.9275 228.568 51.2582 228.61 51.5995 228.696V229.576C51.3115 229.49 51.0395 229.448 50.7835 229.448ZM59.9249 232.392V240.408H58.9489V238.872C58.7142 239.405 58.3569 239.816 57.8769 240.104C57.4075 240.381 56.8422 240.52 56.1809 240.52C55.4662 240.52 54.8369 240.354 54.2929 240.024C53.7595 239.682 53.3435 239.202 53.0449 238.584C52.7569 237.954 52.6129 237.224 52.6129 236.392C52.6129 235.56 52.7622 234.829 53.0609 234.2C53.3595 233.56 53.7755 233.069 54.3089 232.728C54.8529 232.376 55.4769 232.2 56.1809 232.2C56.8315 232.2 57.3915 232.338 57.8609 232.616C58.3409 232.893 58.7035 233.298 58.9489 233.832V232.392H59.9249ZM56.3249 239.656C57.1569 239.656 57.8022 239.368 58.2609 238.792C58.7195 238.216 58.9489 237.405 58.9489 236.36C58.9489 235.304 58.7195 234.488 58.2609 233.912C57.8022 233.336 57.1515 233.048 56.3089 233.048C55.4662 233.048 54.8102 233.346 54.3409 233.944C53.8715 234.53 53.6369 235.346 53.6369 236.392C53.6369 237.426 53.8715 238.232 54.3409 238.808C54.8102 239.373 55.4715 239.656 56.3249 239.656ZM71.218 232.2C72.9887 232.2 73.874 233.234 73.874 235.304V240.408H72.898V235.368C72.898 234.557 72.754 233.97 72.466 233.608C72.178 233.234 71.7193 233.048 71.09 233.048C70.354 233.048 69.7727 233.293 69.346 233.784C68.93 234.274 68.722 234.941 68.722 235.784V240.408H67.746V235.368C67.746 234.557 67.5967 233.97 67.298 233.608C67.01 233.234 66.5513 233.048 65.922 233.048C65.1967 233.048 64.6153 233.293 64.178 233.784C63.7513 234.274 63.538 234.941 63.538 235.784V240.408H62.578V234.616C62.578 233.784 62.5353 233.042 62.45 232.392H63.378L63.506 233.832C63.73 233.298 64.0607 232.893 64.498 232.616C64.946 232.338 65.4633 232.2 66.05 232.2C67.3407 232.2 68.1673 232.722 68.53 233.768C68.754 233.277 69.1007 232.893 69.57 232.616C70.05 232.338 70.5993 232.2 71.218 232.2ZM76.4843 232.392H77.4443V240.408H76.4843V232.392ZM77.6363 229.08V230.328H76.3403V229.08H77.6363ZM80.1249 228.632H81.0849V240.408H80.1249V228.632ZM90.5655 232.392L86.7895 241.24C86.4162 242.114 85.9468 242.754 85.3815 243.16C84.8268 243.576 84.1282 243.869 83.2855 244.04L83.0935 243.272C83.8615 243.09 84.4375 242.856 84.8215 242.568C85.2162 242.28 85.5468 241.826 85.8135 241.208L86.1495 240.424L82.7255 232.392H83.7655L86.6615 239.432L89.5735 232.392H90.5655Z" fill="#7D7987"/>
<g clip-path="url(#clip0_42_21)">
<path d="M68.4755 14.0107H15.2584V71.1274H68.4755V14.0107Z" fill="url(#paint0_linear_42_21)"/>
<path d="M15.0382 14.0107C15.1024 14.0107 15.1666 14.0383 15.2584 14.0658C15.2584 33.068 15.2584 52.0701 15.2584 71.0998C11.1386 71.421 7.66118 70.3841 4.89939 67.7233C2.94504 65.8332 1.99998 63.6127 1.99998 61.0987C1.99998 52.1986 1.99998 43.3077 1.99998 34.4076C1.99998 31.0127 1.9908 27.6178 1.9908 24.2229C1.9908 20.1215 4.20207 17.1395 8.26675 15.1209C10.3587 14.0933 12.6801 13.9373 15.0382 14.0107Z" fill="url(#paint1_linear_42_21)"/>
<path d="M59.1809 14.0016C61.5573 14.0016 61.7958 14.0016 64.1631 14.0016C64.1631 33.068 64.1631 52.0701 64.1631 71.109C48.0053 71.109 35.7837 71.109 19.5708 71.109C19.5708 52.0793 19.5708 33.0771 19.5708 14.0199C21.9381 14.0199 22.4519 14.0199 24.865 14.0199C24.865 13.7813 24.865 13.5978 24.865 13.4235C24.865 11.3774 24.8742 9.32212 24.8558 7.27601C24.8375 5.84466 25.2228 4.59681 26.3422 3.62422C27.1313 2.94524 28.0397 2.59658 29.0673 2.59658C32.2512 2.5874 35.4259 2.5874 38.6097 2.5874C43.9589 2.5874 49.3174 2.59658 54.6666 2.5874C56.0704 2.5874 57.2357 3.04617 58.1532 4.11051C58.8873 4.96382 59.1625 5.96394 59.1625 7.08333C59.1533 9.23954 59.1625 11.3958 59.1625 13.552C59.1533 13.6712 59.1625 13.8089 59.1809 14.0016ZM30.6088 14.0016C30.829 14.0016 30.9942 14.0016 31.1593 14.0016C33.6917 14.0016 36.2333 14.0016 38.7657 14.0016C43.5002 14.0016 48.2438 14.0016 52.9783 14.0107C53.3545 14.0107 53.4371 13.8914 53.4371 13.5336C53.4187 11.9279 53.4371 10.3222 53.4371 8.71654C53.4371 8.58809 53.4187 8.45963 53.4004 8.322C45.7848 8.322 38.2152 8.322 30.6088 8.322C30.6088 10.2121 30.6088 12.0656 30.6088 14.0016Z" fill="white"/>
<mask id="mask0_42_21" style="mask-type:alpha" maskUnits="userSpaceOnUse" x="19" y="2" width="46" height="70">
<path d="M59.1808 14.0016C61.5573 14.0016 61.7958 14.0016 64.1631 14.0016C64.1631 33.068 64.1631 52.0701 64.1631 71.109C48.0053 71.109 35.7837 71.109 19.5708 71.109C19.5708 52.0793 19.5708 33.0771 19.5708 14.0199C21.938 14.0199 22.4519 14.0199 24.865 14.0199C24.865 13.7813 24.865 13.5978 24.865 13.4235C24.865 11.3774 24.8742 9.32212 24.8558 7.27601C24.8375 5.84466 25.2228 4.59681 26.3422 3.62422C27.1313 2.94524 28.0397 2.59658 29.0673 2.59658C32.2512 2.5874 35.4258 2.5874 38.6097 2.5874C43.9589 2.5874 49.3173 2.59658 54.6666 2.5874C56.0704 2.5874 57.2357 3.04617 58.1532 4.11051C58.8872 4.96382 59.1625 5.96394 59.1625 7.08333C59.1533 9.23954 59.1625 11.3958 59.1625 13.552C59.1533 13.6712 59.1625 13.8089 59.1808 14.0016ZM30.6088 14.0016C30.829 14.0016 30.9941 14.0016 31.1593 14.0016C33.6917 14.0016 36.2333 14.0016 38.7657 14.0016C43.5002 14.0016 48.2438 14.0016 52.9783 14.0107C53.3545 14.0107 53.4371 13.8914 53.4371 13.5336C53.4187 11.9279 53.4371 10.3222 53.4371 8.71654C53.4371 8.58809 53.4187 8.45963 53.4004 8.322C45.7848 8.322 38.2151 8.322 30.6088 8.322C30.6088 10.2121 30.6088 12.0656 30.6088 14.0016Z" fill="#F7F9FC"/>
</mask>
<g mask="url(#mask0_42_21)">
<path d="M60.096 0H23V14.02H60.096V0Z" fill="url(#paint2_linear_42_21)"/>
</g>
<path d="M82 24.0762C82 20.2959 79.9356 17.4791 76.2654 15.433C74.0083 14.176 71.4483 13.9374 68.8242 13.9925C68.4205 14.0016 68.4755 14.2127 68.4755 14.4329C68.4755 21.0391 68.4755 27.6362 68.4755 34.2425C68.4755 45.8493 68.4755 57.447 68.4663 69.0538C68.4663 69.7236 68.4663 70.3934 68.4663 71.1183C70.1179 71.1733 71.6869 71.1825 73.2284 70.8155C78.44 69.586 81.9908 65.7048 81.9908 61.1263C82.0092 48.7854 82 36.4262 82 24.0762Z" fill="url(#paint3_linear_42_21)"/>
<path d="M46.2161 46.7852C46.2161 47.9688 46.2161 49.0882 46.2161 50.2168C46.2161 51.4921 46.2161 52.7675 46.2161 54.0337C46.2161 54.7953 45.8307 55.199 45.0783 55.199C43.0047 55.2082 40.9311 55.2082 38.8574 55.199C38.1693 55.199 37.7839 54.7677 37.7839 54.0429C37.7839 51.7674 37.7839 49.4919 37.7839 47.2164C37.7839 47.088 37.7839 46.9503 37.7839 46.7852C37.6096 46.7852 37.4811 46.7852 37.3435 46.7852C35.1047 46.7852 32.8567 46.7852 30.618 46.7852C29.7279 46.7852 29.3609 46.4273 29.3609 45.5373C29.3609 43.5646 29.3609 41.5919 29.3609 39.6192C29.3609 38.72 29.7188 38.3622 30.6088 38.3622C32.8384 38.3622 35.068 38.3622 37.2976 38.3622C37.4444 38.3622 37.5821 38.3622 37.7747 38.3622C37.7747 38.2154 37.7747 38.0961 37.7747 37.9768C37.7747 35.7013 37.7747 33.4258 37.7747 31.1504C37.7747 30.3062 38.1509 29.9392 38.9951 29.9392C40.9678 29.9392 42.9405 29.9392 44.9132 29.9392C45.8399 29.9392 46.1977 30.2879 46.1977 31.2329C46.2069 33.4901 46.1977 35.738 46.1977 37.9952C46.1977 38.1053 46.1977 38.2154 46.1977 38.3714C46.3445 38.3714 46.473 38.3714 46.5923 38.3714C48.8678 38.3714 51.1432 38.3714 53.4187 38.3805C54.2537 38.3805 54.6115 38.7476 54.6115 39.5825C54.6115 41.5644 54.6115 43.5463 54.6115 45.5282C54.6115 46.4365 54.2629 46.7852 53.3729 46.7852C51.1065 46.7852 48.8402 46.7852 46.5831 46.7944C46.4913 46.7852 46.3812 46.7852 46.2161 46.7852Z" fill="url(#paint4_linear_42_21)"/>
</g>
<defs>
<linearGradient id="paint0_linear_42_21" x1="15.2597" y1="42.5656" x2="68.473" y2="42.5656" gradientUnits="userSpaceOnUse">
<stop stop-color="#B0F4FF"/>
<stop offset="1" stop-color="#69DCFC"/>
</linearGradient>
<linearGradient id="paint1_linear_42_21" x1="1.99998" y1="42.5746" x2="15.2597" y2="42.5746" gradientUnits="userSpaceOnUse">
<stop stop-color="#6CBCFC"/>
<stop offset="1" stop-color="#458DFC"/>
</linearGradient>
<linearGradient id="paint2_linear_42_21" x1="22.9962" y1="7.00849" x2="60.0944" y2="7.00849" gradientUnits="userSpaceOnUse">
<stop stop-color="#6CBCFC"/>
<stop offset="1" stop-color="#458DFC"/>
</linearGradient>
<linearGradient id="paint3_linear_42_21" x1="68.4686" y1="42.569" x2="82.0007" y2="42.569" gradientUnits="userSpaceOnUse">
<stop stop-color="#6CBCFC"/>
<stop offset="1" stop-color="#458DFC"/>
</linearGradient>
<linearGradient id="paint4_linear_42_21" x1="29.3666" y1="42.5783" x2="54.6299" y2="42.5783" gradientUnits="userSpaceOnUse">
<stop stop-color="#6CBCFC"/>
<stop offset="1" stop-color="#458DFC"/>
</linearGradient>
<clipPath id="clip0_42_21">
<rect width="80" height="71.1549" fill="white" transform="translate(2)"/>
</clipPath>
</defs>
</svg>
