<svg width="262" height="249" viewBox="0 0 262 249" fill="none" xmlns="http://www.w3.org/2000/svg">
<path d="M9.79687 145.624C8.14887 145.624 6.70887 145.272 5.47687 144.568C4.26087 143.848 3.31687 142.832 2.64487 141.52C1.98887 140.192 1.66087 138.632 1.66087 136.84C1.66087 135.064 1.98887 133.52 2.64487 132.208C3.30087 130.88 4.23687 129.864 5.45287 129.16C6.68487 128.456 8.13287 128.104 9.79687 128.104C11.4609 128.104 12.9009 128.456 14.1169 129.16C15.3489 129.864 16.2849 130.88 16.9249 132.208C17.5809 133.52 17.9089 135.064 17.9089 136.84C17.9089 138.632 17.5809 140.192 16.9249 141.52C16.2689 142.832 15.3329 143.848 14.1169 144.568C12.9009 145.272 11.4609 145.624 9.79687 145.624ZM9.79687 143.152C11.3809 143.152 12.6129 142.608 13.4929 141.52C14.3729 140.432 14.8129 138.872 14.8129 136.84C14.8129 134.824 14.3729 133.28 13.4929 132.208C12.6129 131.12 11.3809 130.576 9.79687 130.576C8.21287 130.576 6.98087 131.112 6.10087 132.184C5.22087 133.256 4.78087 134.808 4.78087 136.84C4.78087 138.872 5.22087 140.432 6.10087 141.52C6.98087 142.608 8.21287 143.152 9.79687 143.152ZM27.8001 132.976C30.6961 132.976 32.1441 134.64 32.1441 137.968V145.408H29.1441V138.112C29.1441 137.152 28.9601 136.456 28.5921 136.024C28.2241 135.576 27.6561 135.352 26.8881 135.352C25.9761 135.352 25.2401 135.648 24.6801 136.24C24.1201 136.816 23.8401 137.584 23.8401 138.544V145.408H20.8641V136.72C20.8641 135.44 20.8001 134.296 20.6721 133.288H23.4801L23.6961 135.28C24.1121 134.544 24.6721 133.976 25.3761 133.576C26.0961 133.176 26.9041 132.976 27.8001 132.976ZM35.325 127.744H38.301V145.408H35.325V127.744ZM41.5828 133.288H44.5588V145.408H41.5828V133.288ZM44.7268 127.792V130.744H41.3908V127.792H44.7268ZM54.7766 132.976C57.6726 132.976 59.1206 134.64 59.1206 137.968V145.408H56.1206V138.112C56.1206 137.152 55.9366 136.456 55.5686 136.024C55.2006 135.576 54.6326 135.352 53.8646 135.352C52.9526 135.352 52.2166 135.648 51.6566 136.24C51.0966 136.816 50.8166 137.584 50.8166 138.544V145.408H47.8406V136.72C47.8406 135.44 47.7766 134.296 47.6486 133.288H50.4566L50.6726 135.28C51.0886 134.544 51.6486 133.976 52.3526 133.576C53.0726 133.176 53.8806 132.976 54.7766 132.976ZM72.9096 139.504H64.5576C64.6216 140.8 64.9416 141.76 65.5176 142.384C66.1096 142.992 66.9816 143.296 68.1336 143.296C69.4616 143.296 70.6936 142.864 71.8296 142L72.6936 144.064C72.1176 144.528 71.4056 144.904 70.5576 145.192C69.7256 145.464 68.8776 145.6 68.0136 145.6C66.0296 145.6 64.4696 145.04 63.3336 143.92C62.1976 142.8 61.6296 141.264 61.6296 139.312C61.6296 138.08 61.8776 136.984 62.3736 136.024C62.8696 135.064 63.5656 134.32 64.4616 133.792C65.3576 133.248 66.3736 132.976 67.5096 132.976C69.1736 132.976 70.4856 133.52 71.4456 134.608C72.4216 135.68 72.9096 137.16 72.9096 139.048V139.504ZM67.5816 135.136C66.7816 135.136 66.1256 135.376 65.6136 135.856C65.1176 136.32 64.7976 137 64.6536 137.896H70.2936C70.1976 136.984 69.9176 136.296 69.4536 135.832C69.0056 135.368 68.3816 135.136 67.5816 135.136ZM88.9479 132.976C89.9879 132.976 90.9079 133.248 91.7079 133.792C92.5239 134.32 93.1559 135.072 93.6039 136.048C94.0679 137.008 94.2999 138.112 94.2999 139.36C94.2999 140.608 94.0759 141.704 93.6279 142.648C93.1799 143.592 92.5479 144.32 91.7319 144.832C90.9319 145.344 90.0039 145.6 88.9479 145.6C88.0679 145.6 87.2839 145.416 86.5959 145.048C85.9079 144.664 85.3799 144.136 85.0119 143.464V150.592H82.0359V136.72C82.0359 135.44 81.9719 134.296 81.8439 133.288H84.6519L84.8919 135.376C85.2119 134.624 85.7319 134.04 86.4519 133.624C87.1719 133.192 88.0039 132.976 88.9479 132.976ZM88.1319 143.248C89.1399 143.248 89.9159 142.912 90.4599 142.24C91.0039 141.568 91.2759 140.608 91.2759 139.36C91.2759 138.096 91.0039 137.112 90.4599 136.408C89.9159 135.688 89.1479 135.328 88.1559 135.328C87.1319 135.328 86.3479 135.672 85.8039 136.36C85.2599 137.048 84.9879 138.032 84.9879 139.312C84.9879 140.576 85.2599 141.552 85.8039 142.24C86.3479 142.912 87.1239 143.248 88.1319 143.248ZM103.855 132.976C106.751 132.976 108.199 134.64 108.199 137.968V145.408H105.199V138.112C105.199 137.152 105.015 136.456 104.647 136.024C104.279 135.576 103.711 135.352 102.943 135.352C102.031 135.352 101.295 135.648 100.735 136.24C100.175 136.816 99.8947 137.584 99.8947 138.544V145.408H96.9187V127.744H99.8947V135.04C100.311 134.384 100.863 133.88 101.551 133.528C102.239 133.16 103.007 132.976 103.855 132.976ZM122.972 133.288V145.408H120.02V143.464C119.652 144.136 119.124 144.664 118.436 145.048C117.748 145.416 116.964 145.6 116.084 145.6C115.028 145.6 114.092 145.344 113.276 144.832C112.46 144.32 111.828 143.592 111.38 142.648C110.932 141.704 110.708 140.608 110.708 139.36C110.708 138.112 110.932 137.008 111.38 136.048C111.844 135.072 112.484 134.32 113.3 133.792C114.116 133.248 115.044 132.976 116.084 132.976C116.964 132.976 117.748 133.168 118.436 133.552C119.124 133.92 119.652 134.44 120.02 135.112V133.288H122.972ZM116.9 143.248C117.892 143.248 118.66 142.904 119.204 142.216C119.748 141.528 120.02 140.56 120.02 139.312C120.02 138.032 119.748 137.048 119.204 136.36C118.66 135.672 117.884 135.328 116.876 135.328C115.884 135.328 115.108 135.688 114.548 136.408C114.004 137.112 113.732 138.096 113.732 139.36C113.732 140.608 114.004 141.568 114.548 142.24C115.108 142.912 115.892 143.248 116.9 143.248ZM132.767 133C133.231 133 133.631 133.064 133.967 133.192L133.943 135.928C133.431 135.72 132.903 135.616 132.359 135.616C131.335 135.616 130.551 135.912 130.007 136.504C129.479 137.096 129.215 137.88 129.215 138.856V145.408H126.239V136.72C126.239 135.44 126.175 134.296 126.047 133.288H128.855L129.095 135.424C129.399 134.64 129.879 134.04 130.535 133.624C131.191 133.208 131.935 133 132.767 133ZM149.941 132.976C151.317 132.976 152.341 133.392 153.013 134.224C153.685 135.04 154.021 136.288 154.021 137.968V145.408H151.021V138.064C151.021 137.104 150.861 136.416 150.541 136C150.237 135.568 149.725 135.352 149.005 135.352C148.173 135.352 147.517 135.648 147.037 136.24C146.573 136.816 146.341 137.616 146.341 138.64V145.408H143.341V138.064C143.341 137.12 143.173 136.432 142.837 136C142.517 135.568 142.005 135.352 141.301 135.352C140.469 135.352 139.813 135.648 139.333 136.24C138.853 136.816 138.613 137.616 138.613 138.64V145.408H135.637V136.72C135.637 135.44 135.573 134.296 135.445 133.288H138.253L138.469 135.208C138.821 134.488 139.325 133.936 139.981 133.552C140.653 133.168 141.421 132.976 142.285 132.976C144.141 132.976 145.349 133.744 145.909 135.28C146.293 134.56 146.837 134 147.541 133.6C148.261 133.184 149.061 132.976 149.941 132.976ZM168.815 133.288V145.408H165.863V143.464C165.495 144.136 164.967 144.664 164.279 145.048C163.591 145.416 162.807 145.6 161.927 145.6C160.871 145.6 159.935 145.344 159.119 144.832C158.303 144.32 157.671 143.592 157.223 142.648C156.775 141.704 156.551 140.608 156.551 139.36C156.551 138.112 156.775 137.008 157.223 136.048C157.687 135.072 158.327 134.32 159.143 133.792C159.959 133.248 160.887 132.976 161.927 132.976C162.807 132.976 163.591 133.168 164.279 133.552C164.967 133.92 165.495 134.44 165.863 135.112V133.288H168.815ZM162.743 143.248C163.735 143.248 164.503 142.904 165.047 142.216C165.591 141.528 165.863 140.56 165.863 139.312C165.863 138.032 165.591 137.048 165.047 136.36C164.503 135.672 163.727 135.328 162.719 135.328C161.727 135.328 160.951 135.688 160.391 136.408C159.847 137.112 159.575 138.096 159.575 139.36C159.575 140.608 159.847 141.568 160.391 142.24C160.951 142.912 161.735 143.248 162.743 143.248ZM177.579 145.6C176.315 145.6 175.219 145.344 174.291 144.832C173.363 144.32 172.651 143.6 172.155 142.672C171.659 141.728 171.411 140.624 171.411 139.36C171.411 138.096 171.667 136.984 172.179 136.024C172.707 135.064 173.443 134.32 174.387 133.792C175.347 133.248 176.451 132.976 177.699 132.976C178.563 132.976 179.395 133.112 180.195 133.384C181.011 133.656 181.659 134.032 182.139 134.512L181.299 136.624C180.787 136.208 180.243 135.896 179.667 135.688C179.091 135.464 178.523 135.352 177.963 135.352C176.875 135.352 176.027 135.696 175.419 136.384C174.811 137.056 174.507 138.032 174.507 139.312C174.507 140.592 174.803 141.568 175.395 142.24C176.003 142.912 176.859 143.248 177.963 143.248C178.523 143.248 179.091 143.136 179.667 142.912C180.243 142.688 180.787 142.368 181.299 141.952L182.139 144.064C181.627 144.544 180.963 144.92 180.147 145.192C179.331 145.464 178.475 145.6 177.579 145.6ZM195.625 133.288L189.985 146.224C189.345 147.728 188.529 148.824 187.537 149.512C186.545 150.2 185.321 150.656 183.865 150.88L183.193 148.576C184.329 148.32 185.177 147.992 185.737 147.592C186.313 147.208 186.777 146.632 187.129 145.864L187.513 144.976L182.473 133.288H185.617L189.097 142L192.649 133.288H195.625Z" fill="black"/>
<path d="M8.712 179.16C9.36267 179.331 9.86933 179.656 10.232 180.136C10.5947 180.605 10.776 181.197 10.776 181.912C10.776 182.904 10.4507 183.667 9.8 184.2C9.14933 184.733 8.22667 185 7.032 185H2.472V173.608H6.872C8.03467 173.608 8.93067 173.869 9.56 174.392C10.1893 174.904 10.504 175.64 10.504 176.6C10.504 177.219 10.344 177.747 10.024 178.184C9.71467 178.621 9.27733 178.947 8.712 179.16ZM3.448 178.776H6.728C7.64533 178.776 8.33867 178.589 8.808 178.216C9.27733 177.843 9.512 177.299 9.512 176.584C9.512 175.165 8.584 174.456 6.728 174.456H3.448V178.776ZM6.968 184.152C7.928 184.152 8.632 183.971 9.08 183.608C9.53867 183.245 9.768 182.691 9.768 181.944C9.768 180.419 8.83467 179.656 6.968 179.656H3.448V184.152H6.968ZM19.5885 176.984V185H18.6445V183.544C18.3885 184.056 18.0258 184.445 17.5565 184.712C17.0872 184.979 16.5485 185.112 15.9405 185.112C15.0018 185.112 14.2925 184.851 13.8125 184.328C13.3325 183.805 13.0925 183.032 13.0925 182.008V176.984H14.0525V181.944C14.0525 182.733 14.2125 183.315 14.5325 183.688C14.8525 184.061 15.3485 184.248 16.0205 184.248C16.8098 184.248 17.4392 184.003 17.9085 183.512C18.3778 183.011 18.6125 182.349 18.6125 181.528V176.984H19.5885ZM29.0499 176.984L25.2739 185.832C24.9005 186.707 24.4312 187.347 23.8659 187.752C23.3112 188.168 22.6125 188.461 21.7699 188.632L21.5779 187.864C22.3459 187.683 22.9219 187.448 23.3059 187.16C23.7005 186.872 24.0312 186.419 24.2979 185.8L24.6339 185.016L21.2099 176.984H22.2499L25.1459 184.024L28.0579 176.984H29.0499ZM45.6124 176.984L41.8364 185.832C41.463 186.707 40.9937 187.347 40.4284 187.752C39.8737 188.168 39.175 188.461 38.3324 188.632L38.1404 187.864C38.9084 187.683 39.4844 187.448 39.8684 187.16C40.263 186.872 40.5937 186.419 40.8604 185.8L41.1964 185.016L37.7724 176.984H38.8124L41.7084 184.024L44.6204 176.984H45.6124ZM50.3245 185.112C49.5885 185.112 48.9378 184.941 48.3725 184.6C47.8178 184.259 47.3858 183.773 47.0765 183.144C46.7778 182.515 46.6285 181.784 46.6285 180.952C46.6285 180.12 46.7778 179.389 47.0765 178.76C47.3858 178.131 47.8178 177.645 48.3725 177.304C48.9378 176.963 49.5885 176.792 50.3245 176.792C51.0498 176.792 51.6898 176.963 52.2445 177.304C52.7992 177.645 53.2258 178.131 53.5245 178.76C53.8338 179.389 53.9885 180.12 53.9885 180.952C53.9885 181.784 53.8338 182.515 53.5245 183.144C53.2258 183.773 52.7992 184.259 52.2445 184.6C51.6898 184.941 51.0498 185.112 50.3245 185.112ZM50.3085 184.248C51.1618 184.248 51.8178 183.965 52.2765 183.4C52.7458 182.824 52.9805 182.008 52.9805 180.952C52.9805 179.907 52.7458 179.096 52.2765 178.52C51.8072 177.933 51.1565 177.64 50.3245 177.64C49.4818 177.64 48.8258 177.933 48.3565 178.52C47.8872 179.096 47.6525 179.907 47.6525 180.952C47.6525 182.019 47.8818 182.835 48.3405 183.4C48.7992 183.965 49.4552 184.248 50.3085 184.248ZM62.5729 176.984V185H61.6289V183.544C61.3729 184.056 61.0102 184.445 60.5409 184.712C60.0715 184.979 59.5329 185.112 58.9249 185.112C57.9862 185.112 57.2769 184.851 56.7969 184.328C56.3169 183.805 56.0769 183.032 56.0769 182.008V176.984H57.0369V181.944C57.0369 182.733 57.1969 183.315 57.5169 183.688C57.8369 184.061 58.3329 184.248 59.0049 184.248C59.7942 184.248 60.4235 184.003 60.8929 183.512C61.3622 183.011 61.5969 182.349 61.5969 181.528V176.984H62.5729ZM68.6903 176.792C68.9569 176.792 69.1916 176.813 69.3943 176.856L69.3463 177.736C69.1436 177.693 68.8983 177.672 68.6102 177.672C67.7996 177.672 67.1916 177.933 66.7863 178.456C66.3916 178.968 66.1943 179.581 66.1943 180.296V185H65.2343V179.208C65.2343 178.376 65.1916 177.635 65.1063 176.984H66.0343L66.1623 178.472C66.3649 177.928 66.6903 177.512 67.1383 177.224C67.5969 176.936 68.1143 176.792 68.6903 176.792ZM83.5305 176.792C85.3012 176.792 86.1865 177.827 86.1865 179.896V185H85.2105V179.96C85.2105 179.149 85.0665 178.563 84.7785 178.2C84.4905 177.827 84.0318 177.64 83.4025 177.64C82.6665 177.64 82.0852 177.885 81.6585 178.376C81.2425 178.867 81.0345 179.533 81.0345 180.376V185H80.0585V179.96C80.0585 179.149 79.9092 178.563 79.6105 178.2C79.3225 177.827 78.8638 177.64 78.2345 177.64C77.5092 177.64 76.9278 177.885 76.4905 178.376C76.0638 178.867 75.8505 179.533 75.8505 180.376V185H74.8905V179.208C74.8905 178.376 74.8478 177.635 74.7625 176.984H75.6905L75.8185 178.424C76.0425 177.891 76.3732 177.485 76.8105 177.208C77.2585 176.931 77.7758 176.792 78.3625 176.792C79.6532 176.792 80.4798 177.315 80.8425 178.36C81.0665 177.869 81.4132 177.485 81.8825 177.208C82.3625 176.931 82.9118 176.792 83.5305 176.792ZM89.3088 180.872V180.92C89.3088 181.997 89.5541 182.824 90.0448 183.4C90.5461 183.965 91.2714 184.248 92.2208 184.248C93.1808 184.248 94.0608 183.917 94.8608 183.256L95.2448 184.024C94.8928 184.355 94.4448 184.621 93.9008 184.824C93.3568 185.016 92.7968 185.112 92.2208 185.112C91.0048 185.112 90.0448 184.744 89.3408 184.008C88.6368 183.272 88.2848 182.259 88.2848 180.968C88.2848 180.147 88.4394 179.421 88.7488 178.792C89.0688 178.152 89.5114 177.661 90.0768 177.32C90.6421 176.968 91.2928 176.792 92.0288 176.792C93.0848 176.792 93.9061 177.133 94.4928 177.816C95.0901 178.499 95.3888 179.448 95.3888 180.664V180.872H89.3088ZM92.0288 177.592C91.2928 177.592 90.6954 177.816 90.2368 178.264C89.7781 178.701 89.4901 179.32 89.3728 180.12H94.4608C94.3968 179.299 94.1568 178.675 93.7408 178.248C93.3248 177.811 92.7541 177.592 92.0288 177.592ZM104.284 173.224V185H103.308V183.464C103.074 183.997 102.716 184.408 102.236 184.696C101.767 184.973 101.202 185.112 100.54 185.112C99.8363 185.112 99.2123 184.941 98.6683 184.6C98.1349 184.248 97.7189 183.757 97.4203 183.128C97.1216 182.488 96.9723 181.752 96.9723 180.92C96.9723 180.088 97.1163 179.363 97.4043 178.744C97.7029 178.115 98.1189 177.635 98.6523 177.304C99.1963 176.963 99.8256 176.792 100.54 176.792C101.191 176.792 101.751 176.931 102.22 177.208C102.7 177.485 103.063 177.891 103.308 178.424V173.224H104.284ZM100.668 184.248C101.511 184.248 102.162 183.96 102.62 183.384C103.079 182.808 103.308 181.997 103.308 180.952C103.308 179.907 103.079 179.096 102.62 178.52C102.162 177.933 101.516 177.64 100.684 177.64C99.8309 177.64 99.1696 177.928 98.7003 178.504C98.2309 179.08 97.9963 179.885 97.9963 180.92C97.9963 181.965 98.2309 182.781 98.7003 183.368C99.1696 183.955 99.8256 184.248 100.668 184.248ZM106.937 176.984H107.897V185H106.937V176.984ZM108.089 173.672V174.92H106.793V173.672H108.089ZM113.826 185.112C113.069 185.112 112.407 184.941 111.842 184.6C111.277 184.259 110.839 183.779 110.53 183.16C110.221 182.531 110.066 181.805 110.066 180.984C110.066 180.152 110.221 179.421 110.53 178.792C110.839 178.152 111.282 177.661 111.858 177.32C112.434 176.968 113.101 176.792 113.858 176.792C114.402 176.792 114.919 176.888 115.41 177.08C115.911 177.261 116.322 177.517 116.642 177.848L116.258 178.616C115.842 178.275 115.442 178.029 115.058 177.88C114.685 177.72 114.295 177.64 113.89 177.64C113.026 177.64 112.343 177.939 111.842 178.536C111.341 179.123 111.09 179.939 111.09 180.984C111.09 182.008 111.335 182.808 111.826 183.384C112.327 183.96 113.015 184.248 113.89 184.248C114.295 184.248 114.685 184.173 115.058 184.024C115.442 183.864 115.842 183.619 116.258 183.288L116.642 184.04C116.301 184.371 115.874 184.632 115.362 184.824C114.861 185.016 114.349 185.112 113.826 185.112ZM118.422 176.984H119.382V185H118.422V176.984ZM119.574 173.672V174.92H118.278V173.672H119.574ZM125.79 176.792C127.721 176.792 128.686 177.827 128.686 179.896V185H127.71V179.96C127.71 179.16 127.545 178.573 127.214 178.2C126.894 177.827 126.388 177.64 125.694 177.64C124.894 177.64 124.249 177.885 123.758 178.376C123.268 178.867 123.022 179.528 123.022 180.36V185H122.062V179.208C122.062 178.376 122.02 177.635 121.934 176.984H122.862L122.99 178.456C123.236 177.912 123.604 177.501 124.094 177.224C124.585 176.936 125.15 176.792 125.79 176.792ZM131.824 180.872V180.92C131.824 181.997 132.07 182.824 132.56 183.4C133.062 183.965 133.787 184.248 134.736 184.248C135.696 184.248 136.576 183.917 137.376 183.256L137.76 184.024C137.408 184.355 136.96 184.621 136.416 184.824C135.872 185.016 135.312 185.112 134.736 185.112C133.52 185.112 132.56 184.744 131.856 184.008C131.152 183.272 130.8 182.259 130.8 180.968C130.8 180.147 130.955 179.421 131.264 178.792C131.584 178.152 132.027 177.661 132.592 177.32C133.158 176.968 133.808 176.792 134.544 176.792C135.6 176.792 136.422 177.133 137.008 177.816C137.606 178.499 137.904 179.448 137.904 180.664V180.872H131.824ZM134.544 177.592C133.808 177.592 133.211 177.816 132.752 178.264C132.294 178.701 132.006 179.32 131.888 180.12H136.976C136.912 179.299 136.672 178.675 136.256 178.248C135.84 177.811 135.27 177.592 134.544 177.592ZM142.608 185.112C141.307 185.112 140.277 184.755 139.52 184.04L139.872 183.288C140.299 183.64 140.725 183.891 141.152 184.04C141.589 184.189 142.091 184.264 142.656 184.264C143.317 184.264 143.819 184.152 144.16 183.928C144.512 183.693 144.688 183.357 144.688 182.92C144.688 182.557 144.571 182.275 144.336 182.072C144.112 181.859 143.739 181.688 143.216 181.56L141.856 181.256C141.216 181.107 140.709 180.84 140.336 180.456C139.973 180.072 139.792 179.624 139.792 179.112C139.792 178.408 140.059 177.848 140.592 177.432C141.136 177.005 141.856 176.792 142.752 176.792C143.317 176.792 143.84 176.883 144.32 177.064C144.811 177.245 145.216 177.507 145.536 177.848L145.168 178.6C144.432 177.96 143.627 177.64 142.752 177.64C142.133 177.64 141.653 177.763 141.312 178.008C140.971 178.253 140.8 178.595 140.8 179.032C140.8 179.395 140.907 179.688 141.12 179.912C141.344 180.136 141.685 180.301 142.144 180.408L143.52 180.744C144.96 181.064 145.68 181.773 145.68 182.872C145.68 183.544 145.403 184.088 144.848 184.504C144.293 184.909 143.547 185.112 142.608 185.112ZM163.92 176.984L161.008 185H160L157.568 178.232L155.12 185H154.096L151.2 176.984H152.24L154.608 183.832L157.104 176.984H158.08L160.496 183.832L162.928 176.984H163.92ZM165.797 176.984H166.757V185H165.797V176.984ZM166.949 173.672V174.92H165.653V173.672H166.949ZM170.797 177.768V182.536C170.797 183.176 170.92 183.619 171.165 183.864C171.411 184.109 171.773 184.232 172.253 184.232C172.552 184.232 172.84 184.184 173.117 184.088V184.968C172.776 185.053 172.429 185.096 172.077 185.096C171.373 185.096 170.819 184.899 170.413 184.504C170.019 184.109 169.821 183.517 169.821 182.728V177.768H168.237V176.984H169.821V174.856L170.797 174.488V176.984H173.165V177.768H170.797ZM178.556 176.792C180.487 176.792 181.452 177.827 181.452 179.896V185H180.476V179.96C180.476 179.16 180.311 178.573 179.98 178.2C179.66 177.827 179.153 177.64 178.46 177.64C177.66 177.64 177.015 177.885 176.524 178.376C176.033 178.867 175.788 179.528 175.788 180.36V185H174.828V173.224H175.788V178.376C176.044 177.853 176.412 177.459 176.892 177.192C177.372 176.925 177.927 176.792 178.556 176.792ZM191.34 185.112C190.604 185.112 189.953 184.941 189.388 184.6C188.833 184.259 188.401 183.773 188.092 183.144C187.793 182.515 187.644 181.784 187.644 180.952C187.644 180.12 187.793 179.389 188.092 178.76C188.401 178.131 188.833 177.645 189.388 177.304C189.953 176.963 190.604 176.792 191.34 176.792C192.065 176.792 192.705 176.963 193.26 177.304C193.815 177.645 194.241 178.131 194.54 178.76C194.849 179.389 195.004 180.12 195.004 180.952C195.004 181.784 194.849 182.515 194.54 183.144C194.241 183.773 193.815 184.259 193.26 184.6C192.705 184.941 192.065 185.112 191.34 185.112ZM191.324 184.248C192.177 184.248 192.833 183.965 193.292 183.4C193.761 182.824 193.996 182.008 193.996 180.952C193.996 179.907 193.761 179.096 193.292 178.52C192.823 177.933 192.172 177.64 191.34 177.64C190.497 177.64 189.841 177.933 189.372 178.52C188.903 179.096 188.668 179.907 188.668 180.952C188.668 182.019 188.897 182.835 189.356 183.4C189.815 183.965 190.471 184.248 191.324 184.248ZM203.589 176.984V185H202.645V183.544C202.389 184.056 202.026 184.445 201.557 184.712C201.087 184.979 200.549 185.112 199.941 185.112C199.002 185.112 198.293 184.851 197.812 184.328C197.333 183.805 197.093 183.032 197.093 182.008V176.984H198.053V181.944C198.053 182.733 198.213 183.315 198.533 183.688C198.853 184.061 199.349 184.248 200.021 184.248C200.81 184.248 201.439 184.003 201.909 183.512C202.378 183.011 202.613 182.349 202.613 181.528V176.984H203.589ZM209.706 176.792C209.973 176.792 210.207 176.813 210.41 176.856L210.362 177.736C210.159 177.693 209.914 177.672 209.626 177.672C208.815 177.672 208.207 177.933 207.802 178.456C207.407 178.968 207.21 179.581 207.21 180.296V185H206.25V179.208C206.25 178.376 206.207 177.635 206.122 176.984H207.05L207.178 178.472C207.381 177.928 207.706 177.512 208.154 177.224C208.613 176.936 209.13 176.792 209.706 176.792ZM10.968 204.792C12.7387 204.792 13.624 205.827 13.624 207.896V213H12.648V207.96C12.648 207.149 12.504 206.563 12.216 206.2C11.928 205.827 11.4693 205.64 10.84 205.64C10.104 205.64 9.52267 205.885 9.096 206.376C8.68 206.867 8.472 207.533 8.472 208.376V213H7.496V207.96C7.496 207.149 7.34667 206.563 7.048 206.2C6.76 205.827 6.30133 205.64 5.672 205.64C4.94667 205.64 4.36533 205.885 3.928 206.376C3.50133 206.867 3.288 207.533 3.288 208.376V213H2.328V207.208C2.328 206.376 2.28533 205.635 2.2 204.984H3.128L3.256 206.424C3.48 205.891 3.81067 205.485 4.248 205.208C4.696 204.931 5.21333 204.792 5.8 204.792C7.09067 204.792 7.91733 205.315 8.28 206.36C8.504 205.869 8.85067 205.485 9.32 205.208C9.8 204.931 10.3493 204.792 10.968 204.792ZM19.4183 213.112C18.6823 213.112 18.0316 212.941 17.4663 212.6C16.9116 212.259 16.4796 211.773 16.1703 211.144C15.8716 210.515 15.7223 209.784 15.7223 208.952C15.7223 208.12 15.8716 207.389 16.1703 206.76C16.4796 206.131 16.9116 205.645 17.4663 205.304C18.0316 204.963 18.6823 204.792 19.4183 204.792C20.1436 204.792 20.7836 204.963 21.3383 205.304C21.8929 205.645 22.3196 206.131 22.6183 206.76C22.9276 207.389 23.0823 208.12 23.0823 208.952C23.0823 209.784 22.9276 210.515 22.6183 211.144C22.3196 211.773 21.8929 212.259 21.3383 212.6C20.7836 212.941 20.1436 213.112 19.4183 213.112ZM19.4023 212.248C20.2556 212.248 20.9116 211.965 21.3703 211.4C21.8396 210.824 22.0743 210.008 22.0743 208.952C22.0743 207.907 21.8396 207.096 21.3703 206.52C20.9009 205.933 20.2503 205.64 19.4183 205.64C18.5756 205.64 17.9196 205.933 17.4503 206.52C16.9809 207.096 16.7463 207.907 16.7463 208.952C16.7463 210.019 16.9756 210.835 17.4343 211.4C17.8929 211.965 18.5489 212.248 19.4023 212.248ZM28.9626 204.792C29.6666 204.792 30.2906 204.963 30.8346 205.304C31.3786 205.645 31.7946 206.125 32.0826 206.744C32.3813 207.363 32.5306 208.088 32.5306 208.92C32.5306 209.752 32.3813 210.488 32.0826 211.128C31.784 211.757 31.3626 212.248 30.8186 212.6C30.2853 212.941 29.6666 213.112 28.9626 213.112C28.3013 213.112 27.7306 212.968 27.2506 212.68C26.7813 212.392 26.4293 211.976 26.1946 211.432V213H25.2186V201.224H26.1786V206.488C26.4133 205.933 26.7706 205.512 27.2506 205.224C27.7306 204.936 28.3013 204.792 28.9626 204.792ZM28.8506 212.248C29.6826 212.248 30.3333 211.955 30.8026 211.368C31.272 210.781 31.5066 209.965 31.5066 208.92C31.5066 207.885 31.272 207.08 30.8026 206.504C30.3333 205.928 29.6773 205.64 28.8346 205.64C27.992 205.64 27.3413 205.928 26.8826 206.504C26.424 207.08 26.1946 207.896 26.1946 208.952C26.1946 210.008 26.424 210.824 26.8826 211.4C27.3413 211.965 27.9973 212.248 28.8506 212.248ZM34.6718 204.984H35.6318V213H34.6718V204.984ZM35.8238 201.672V202.92H34.5278V201.672H35.8238ZM38.3124 201.224H39.2724V213H38.3124V201.224ZM42.465 208.872V208.92C42.465 209.997 42.7103 210.824 43.201 211.4C43.7023 211.965 44.4277 212.248 45.377 212.248C46.337 212.248 47.217 211.917 48.017 211.256L48.401 212.024C48.049 212.355 47.601 212.621 47.057 212.824C46.513 213.016 45.953 213.112 45.377 213.112C44.161 213.112 43.201 212.744 42.497 212.008C41.793 211.272 41.441 210.259 41.441 208.968C41.441 208.147 41.5957 207.421 41.905 206.792C42.225 206.152 42.6677 205.661 43.233 205.32C43.7983 204.968 44.449 204.792 45.185 204.792C46.241 204.792 47.0623 205.133 47.649 205.816C48.2463 206.499 48.545 207.448 48.545 208.664V208.872H42.465ZM45.185 205.592C44.449 205.592 43.8517 205.816 43.393 206.264C42.9343 206.701 42.6463 207.32 42.529 208.12H47.617C47.553 207.299 47.313 206.675 46.897 206.248C46.481 205.811 45.9103 205.592 45.185 205.592ZM61.5186 204.984V213H60.5426V211.464C60.308 211.997 59.9506 212.408 59.4706 212.696C59.0013 212.973 58.436 213.112 57.7746 213.112C57.06 213.112 56.4306 212.947 55.8866 212.616C55.3533 212.275 54.9373 211.795 54.6386 211.176C54.3506 210.547 54.2066 209.816 54.2066 208.984C54.2066 208.152 54.356 207.421 54.6546 206.792C54.9533 206.152 55.3693 205.661 55.9026 205.32C56.4466 204.968 57.0706 204.792 57.7746 204.792C58.4253 204.792 58.9853 204.931 59.4546 205.208C59.9346 205.485 60.2973 205.891 60.5426 206.424V204.984H61.5186ZM57.9186 212.248C58.7506 212.248 59.396 211.96 59.8546 211.384C60.3133 210.808 60.5426 209.997 60.5426 208.952C60.5426 207.896 60.3133 207.08 59.8546 206.504C59.396 205.928 58.7453 205.64 57.9026 205.64C57.06 205.64 56.404 205.939 55.9346 206.536C55.4653 207.123 55.2306 207.939 55.2306 208.984C55.2306 210.019 55.4653 210.824 55.9346 211.4C56.404 211.965 57.0653 212.248 57.9186 212.248ZM67.9158 204.792C68.6198 204.792 69.2384 204.968 69.7718 205.32C70.3158 205.661 70.7371 206.152 71.0358 206.792C71.3344 207.421 71.4838 208.152 71.4838 208.984C71.4838 209.816 71.3344 210.541 71.0358 211.16C70.7478 211.779 70.3318 212.259 69.7878 212.6C69.2438 212.941 68.6198 213.112 67.9158 213.112C67.2438 213.112 66.6678 212.968 66.1878 212.68C65.7184 212.381 65.3664 211.955 65.1318 211.4V216.456H64.1718V207.208C64.1718 206.376 64.1291 205.635 64.0438 204.984H64.9718L65.0998 206.552C65.3344 205.987 65.6918 205.555 66.1718 205.256C66.6624 204.947 67.2438 204.792 67.9158 204.792ZM67.7878 212.248C68.6304 212.248 69.2864 211.965 69.7558 211.4C70.2251 210.824 70.4598 210.019 70.4598 208.984C70.4598 207.939 70.2251 207.123 69.7558 206.536C69.2864 205.939 68.6358 205.64 67.8038 205.64C66.9504 205.64 66.2944 205.928 65.8358 206.504C65.3771 207.08 65.1478 207.896 65.1478 208.952C65.1478 209.997 65.3771 210.808 65.8358 211.384C66.2944 211.96 66.9451 212.248 67.7878 212.248ZM77.3689 204.792C78.0729 204.792 78.6915 204.968 79.2249 205.32C79.7689 205.661 80.1902 206.152 80.4889 206.792C80.7875 207.421 80.9369 208.152 80.9369 208.984C80.9369 209.816 80.7875 210.541 80.4889 211.16C80.2009 211.779 79.7849 212.259 79.2409 212.6C78.6969 212.941 78.0729 213.112 77.3689 213.112C76.6969 213.112 76.1209 212.968 75.6409 212.68C75.1715 212.381 74.8195 211.955 74.5849 211.4V216.456H73.6249V207.208C73.6249 206.376 73.5822 205.635 73.4969 204.984H74.4249L74.5529 206.552C74.7875 205.987 75.1449 205.555 75.6249 205.256C76.1155 204.947 76.6969 204.792 77.3689 204.792ZM77.2409 212.248C78.0835 212.248 78.7395 211.965 79.2089 211.4C79.6782 210.824 79.9129 210.019 79.9129 208.984C79.9129 207.939 79.6782 207.123 79.2089 206.536C78.7395 205.939 78.0889 205.64 77.2569 205.64C76.4035 205.64 75.7475 205.928 75.2889 206.504C74.8302 207.08 74.6009 207.896 74.6009 208.952C74.6009 209.997 74.8302 210.808 75.2889 211.384C75.7475 211.96 76.3982 212.248 77.2409 212.248ZM83.078 201.224H84.038V213H83.078V201.224ZM86.7186 204.984H87.6786V213H86.7186V204.984ZM87.8706 201.672V202.92H86.5746V201.672H87.8706ZM93.6073 213.112C92.8499 213.112 92.1886 212.941 91.6233 212.6C91.0579 212.259 90.6206 211.779 90.3113 211.16C90.0019 210.531 89.8473 209.805 89.8473 208.984C89.8473 208.152 90.0019 207.421 90.3113 206.792C90.6206 206.152 91.0633 205.661 91.6393 205.32C92.2153 204.968 92.8819 204.792 93.6393 204.792C94.1833 204.792 94.7006 204.888 95.1913 205.08C95.6926 205.261 96.1033 205.517 96.4233 205.848L96.0393 206.616C95.6233 206.275 95.2233 206.029 94.8393 205.88C94.4659 205.72 94.0766 205.64 93.6713 205.64C92.8073 205.64 92.1246 205.939 91.6233 206.536C91.1219 207.123 90.8713 207.939 90.8713 208.984C90.8713 210.008 91.1166 210.808 91.6073 211.384C92.1086 211.96 92.7966 212.248 93.6713 212.248C94.0766 212.248 94.4659 212.173 94.8393 212.024C95.2233 211.864 95.6233 211.619 96.0393 211.288L96.4233 212.04C96.0819 212.371 95.6553 212.632 95.1433 212.824C94.6419 213.016 94.1299 213.112 93.6073 213.112ZM105.003 204.984V213H104.027V211.464C103.792 211.997 103.435 212.408 102.955 212.696C102.486 212.973 101.92 213.112 101.259 213.112C100.544 213.112 99.915 212.947 99.371 212.616C98.8377 212.275 98.4217 211.795 98.123 211.176C97.835 210.547 97.691 209.816 97.691 208.984C97.691 208.152 97.8403 207.421 98.139 206.792C98.4377 206.152 98.8537 205.661 99.387 205.32C99.931 204.968 100.555 204.792 101.259 204.792C101.91 204.792 102.47 204.931 102.939 205.208C103.419 205.485 103.782 205.891 104.027 206.424V204.984H105.003ZM101.403 212.248C102.235 212.248 102.88 211.96 103.339 211.384C103.798 210.808 104.027 209.997 104.027 208.952C104.027 207.896 103.798 207.08 103.339 206.504C102.88 205.928 102.23 205.64 101.387 205.64C100.544 205.64 99.8883 205.939 99.419 206.536C98.9497 207.123 98.715 207.939 98.715 208.984C98.715 210.019 98.9497 210.824 99.419 211.4C99.8883 211.965 100.55 212.248 101.403 212.248ZM109.016 205.768V210.536C109.016 211.176 109.139 211.619 109.384 211.864C109.629 212.109 109.992 212.232 110.472 212.232C110.771 212.232 111.059 212.184 111.336 212.088V212.968C110.995 213.053 110.648 213.096 110.296 213.096C109.592 213.096 109.037 212.899 108.632 212.504C108.237 212.109 108.04 211.517 108.04 210.728V205.768H106.456V204.984H108.04V202.856L109.016 202.488V204.984H111.384V205.768H109.016ZM113.047 204.984H114.007V213H113.047V204.984ZM114.199 201.672V202.92H112.903V201.672H114.199ZM119.871 213.112C119.135 213.112 118.485 212.941 117.919 212.6C117.365 212.259 116.933 211.773 116.623 211.144C116.325 210.515 116.175 209.784 116.175 208.952C116.175 208.12 116.325 207.389 116.623 206.76C116.933 206.131 117.365 205.645 117.919 205.304C118.485 204.963 119.135 204.792 119.871 204.792C120.597 204.792 121.237 204.963 121.791 205.304C122.346 205.645 122.773 206.131 123.071 206.76C123.381 207.389 123.535 208.12 123.535 208.952C123.535 209.784 123.381 210.515 123.071 211.144C122.773 211.773 122.346 212.259 121.791 212.6C121.237 212.941 120.597 213.112 119.871 213.112ZM119.855 212.248C120.709 212.248 121.365 211.965 121.823 211.4C122.293 210.824 122.527 210.008 122.527 208.952C122.527 207.907 122.293 207.096 121.823 206.52C121.354 205.933 120.703 205.64 119.871 205.64C119.029 205.64 118.373 205.933 117.903 206.52C117.434 207.096 117.199 207.907 117.199 208.952C117.199 210.019 117.429 210.835 117.887 211.4C118.346 211.965 119.002 212.248 119.855 212.248ZM129.4 204.792C131.33 204.792 132.296 205.827 132.296 207.896V213H131.32V207.96C131.32 207.16 131.154 206.573 130.824 206.2C130.504 205.827 129.997 205.64 129.304 205.64C128.504 205.64 127.858 205.885 127.368 206.376C126.877 206.867 126.632 207.528 126.632 208.36V213H125.672V207.208C125.672 206.376 125.629 205.635 125.544 204.984H126.472L126.6 206.456C126.845 205.912 127.213 205.501 127.704 205.224C128.194 204.936 128.76 204.792 129.4 204.792ZM150.936 204.984L148.024 213H147.016L144.584 206.232L142.136 213H141.112L138.216 204.984H139.256L141.624 211.832L144.12 204.984H145.096L147.512 211.832L149.944 204.984H150.936ZM152.812 204.984H153.772V213H152.812V204.984ZM153.964 201.672V202.92H152.668V201.672H153.964ZM157.813 205.768V210.536C157.813 211.176 157.936 211.619 158.181 211.864C158.426 212.109 158.789 212.232 159.269 212.232C159.568 212.232 159.856 212.184 160.133 212.088V212.968C159.792 213.053 159.445 213.096 159.093 213.096C158.389 213.096 157.834 212.899 157.429 212.504C157.034 212.109 156.837 211.517 156.837 210.728V205.768H155.253V204.984H156.837V202.856L157.813 202.488V204.984H160.181V205.768H157.813ZM165.572 204.792C167.502 204.792 168.468 205.827 168.468 207.896V213H167.492V207.96C167.492 207.16 167.326 206.573 166.996 206.2C166.676 205.827 166.169 205.64 165.476 205.64C164.676 205.64 164.03 205.885 163.54 206.376C163.049 206.867 162.804 207.528 162.804 208.36V213H161.844V201.224H162.804V206.376C163.06 205.853 163.428 205.459 163.908 205.192C164.388 204.925 164.942 204.792 165.572 204.792ZM181.972 204.984V213H180.996V211.464C180.761 211.997 180.404 212.408 179.924 212.696C179.454 212.973 178.889 213.112 178.228 213.112C177.513 213.112 176.884 212.947 176.34 212.616C175.806 212.275 175.39 211.795 175.092 211.176C174.804 210.547 174.66 209.816 174.66 208.984C174.66 208.152 174.809 207.421 175.108 206.792C175.406 206.152 175.822 205.661 176.356 205.32C176.9 204.968 177.524 204.792 178.228 204.792C178.878 204.792 179.438 204.931 179.908 205.208C180.388 205.485 180.75 205.891 180.996 206.424V204.984H181.972ZM178.372 212.248C179.204 212.248 179.849 211.96 180.308 211.384C180.766 210.808 180.996 209.997 180.996 208.952C180.996 207.896 180.766 207.08 180.308 206.504C179.849 205.928 179.198 205.64 178.356 205.64C177.513 205.64 176.857 205.939 176.388 206.536C175.918 207.123 175.684 207.939 175.684 208.984C175.684 210.019 175.918 210.824 176.388 211.4C176.857 211.965 177.518 212.248 178.372 212.248ZM191.311 213.112C190.01 213.112 188.98 212.755 188.223 212.04L188.575 211.288C189.002 211.64 189.428 211.891 189.855 212.04C190.292 212.189 190.794 212.264 191.359 212.264C192.02 212.264 192.522 212.152 192.863 211.928C193.215 211.693 193.391 211.357 193.391 210.92C193.391 210.557 193.274 210.275 193.039 210.072C192.815 209.859 192.442 209.688 191.919 209.56L190.559 209.256C189.919 209.107 189.412 208.84 189.039 208.456C188.676 208.072 188.495 207.624 188.495 207.112C188.495 206.408 188.762 205.848 189.295 205.432C189.839 205.005 190.559 204.792 191.455 204.792C192.02 204.792 192.543 204.883 193.023 205.064C193.514 205.245 193.919 205.507 194.239 205.848L193.871 206.6C193.135 205.96 192.33 205.64 191.455 205.64C190.836 205.64 190.356 205.763 190.015 206.008C189.674 206.253 189.503 206.595 189.503 207.032C189.503 207.395 189.61 207.688 189.823 207.912C190.047 208.136 190.388 208.301 190.847 208.408L192.223 208.744C193.663 209.064 194.383 209.773 194.383 210.872C194.383 211.544 194.106 212.088 193.551 212.504C192.996 212.909 192.25 213.112 191.311 213.112ZM196.609 204.984H197.569V213H196.609V204.984ZM197.761 201.672V202.92H196.465V201.672H197.761ZM208.89 204.792C210.661 204.792 211.546 205.827 211.546 207.896V213H210.57V207.96C210.57 207.149 210.426 206.563 210.138 206.2C209.85 205.827 209.391 205.64 208.762 205.64C208.026 205.64 207.445 205.885 207.018 206.376C206.602 206.867 206.394 207.533 206.394 208.376V213H205.418V207.96C205.418 207.149 205.269 206.563 204.97 206.2C204.682 205.827 204.223 205.64 203.594 205.64C202.869 205.64 202.287 205.885 201.85 206.376C201.423 206.867 201.21 207.533 201.21 208.376V213H200.25V207.208C200.25 206.376 200.207 205.635 200.122 204.984H201.05L201.178 206.424C201.402 205.891 201.733 205.485 202.17 205.208C202.618 204.931 203.135 204.792 203.722 204.792C205.013 204.792 205.839 205.315 206.202 206.36C206.426 205.869 206.773 205.485 207.242 205.208C207.722 204.931 208.271 204.792 208.89 204.792ZM217.9 204.792C218.604 204.792 219.223 204.968 219.756 205.32C220.3 205.661 220.721 206.152 221.02 206.792C221.319 207.421 221.468 208.152 221.468 208.984C221.468 209.816 221.319 210.541 221.02 211.16C220.732 211.779 220.316 212.259 219.772 212.6C219.228 212.941 218.604 213.112 217.9 213.112C217.228 213.112 216.652 212.968 216.172 212.68C215.703 212.381 215.351 211.955 215.116 211.4V216.456H214.156V207.208C214.156 206.376 214.113 205.635 214.028 204.984H214.956L215.084 206.552C215.319 205.987 215.676 205.555 216.156 205.256C216.647 204.947 217.228 204.792 217.9 204.792ZM217.772 212.248C218.615 212.248 219.271 211.965 219.74 211.4C220.209 210.824 220.444 210.019 220.444 208.984C220.444 207.939 220.209 207.123 219.74 206.536C219.271 205.939 218.62 205.64 217.788 205.64C216.935 205.64 216.279 205.928 215.82 206.504C215.361 207.08 215.132 207.896 215.132 208.952C215.132 209.997 215.361 210.808 215.82 211.384C216.279 211.96 216.929 212.248 217.772 212.248ZM223.609 201.224H224.569V213H223.609V201.224ZM227.762 208.872V208.92C227.762 209.997 228.007 210.824 228.498 211.4C228.999 211.965 229.725 212.248 230.674 212.248C231.634 212.248 232.514 211.917 233.314 211.256L233.698 212.024C233.346 212.355 232.898 212.621 232.354 212.824C231.81 213.016 231.25 213.112 230.674 213.112C229.458 213.112 228.498 212.744 227.794 212.008C227.09 211.272 226.738 210.259 226.738 208.968C226.738 208.147 226.893 207.421 227.202 206.792C227.522 206.152 227.965 205.661 228.53 205.32C229.095 204.968 229.746 204.792 230.482 204.792C231.538 204.792 232.359 205.133 232.946 205.816C233.543 206.499 233.842 207.448 233.842 208.664V208.872H227.762ZM230.482 205.592C229.746 205.592 229.149 205.816 228.69 206.264C228.231 206.701 227.943 207.32 227.826 208.12H232.914C232.85 207.299 232.61 206.675 232.194 206.248C231.778 205.811 231.207 205.592 230.482 205.592ZM9.128 229.224V241H8.152V239.464C7.91733 239.997 7.56 240.408 7.08 240.696C6.61067 240.973 6.04533 241.112 5.384 241.112C4.68 241.112 4.056 240.941 3.512 240.6C2.97867 240.248 2.56267 239.757 2.264 239.128C1.96533 238.488 1.816 237.752 1.816 236.92C1.816 236.088 1.96 235.363 2.248 234.744C2.54667 234.115 2.96267 233.635 3.496 233.304C4.04 232.963 4.66933 232.792 5.384 232.792C6.03467 232.792 6.59467 232.931 7.064 233.208C7.544 233.485 7.90667 233.891 8.152 234.424V229.224H9.128ZM5.512 240.248C6.35467 240.248 7.00533 239.96 7.464 239.384C7.92267 238.808 8.152 237.997 8.152 236.952C8.152 235.907 7.92267 235.096 7.464 234.52C7.00533 233.933 6.36 233.64 5.528 233.64C4.67467 233.64 4.01333 233.928 3.544 234.504C3.07467 235.08 2.84 235.885 2.84 236.92C2.84 237.965 3.07467 238.781 3.544 239.368C4.01333 239.955 4.66933 240.248 5.512 240.248ZM12.2931 236.872V236.92C12.2931 237.997 12.5385 238.824 13.0291 239.4C13.5305 239.965 14.2558 240.248 15.2051 240.248C16.1651 240.248 17.0451 239.917 17.8451 239.256L18.2291 240.024C17.8771 240.355 17.4291 240.621 16.8851 240.824C16.3411 241.016 15.7811 241.112 15.2051 241.112C13.9891 241.112 13.0291 240.744 12.3251 240.008C11.6211 239.272 11.2691 238.259 11.2691 236.968C11.2691 236.147 11.4238 235.421 11.7331 234.792C12.0531 234.152 12.4958 233.661 13.0611 233.32C13.6265 232.968 14.2771 232.792 15.0131 232.792C16.0691 232.792 16.8905 233.133 17.4771 233.816C18.0745 234.499 18.3731 235.448 18.3731 236.664V236.872H12.2931ZM15.0131 233.592C14.2771 233.592 13.6798 233.816 13.2211 234.264C12.7625 234.701 12.4745 235.32 12.3571 236.12H17.4451C17.3811 235.299 17.1411 234.675 16.7251 234.248C16.3091 233.811 15.7385 233.592 15.0131 233.592ZM20.4686 229.224H21.4286V241H20.4686V229.224ZM24.1093 232.984H25.0693V241H24.1093V232.984ZM25.2613 229.672V230.92H23.9653V229.672H25.2613ZM34.5499 232.984L31.1099 241H30.1019L26.7099 232.984H27.7499L30.6459 240.024L33.5579 232.984H34.5499ZM36.59 236.872V236.92C36.59 237.997 36.8353 238.824 37.326 239.4C37.8273 239.965 38.5527 240.248 39.502 240.248C40.462 240.248 41.342 239.917 42.142 239.256L42.526 240.024C42.174 240.355 41.726 240.621 41.182 240.824C40.638 241.016 40.078 241.112 39.502 241.112C38.286 241.112 37.326 240.744 36.622 240.008C35.918 239.272 35.566 238.259 35.566 236.968C35.566 236.147 35.7207 235.421 36.03 234.792C36.35 234.152 36.7927 233.661 37.358 233.32C37.9233 232.968 38.574 232.792 39.31 232.792C40.366 232.792 41.1873 233.133 41.774 233.816C42.3713 234.499 42.67 235.448 42.67 236.664V236.872H36.59ZM39.31 233.592C38.574 233.592 37.9767 233.816 37.518 234.264C37.0593 234.701 36.7713 235.32 36.654 236.12H41.742C41.678 235.299 41.438 234.675 41.022 234.248C40.606 233.811 40.0353 233.592 39.31 233.592ZM48.2215 232.792C48.4882 232.792 48.7228 232.813 48.9255 232.856L48.8775 233.736C48.6748 233.693 48.4295 233.672 48.1415 233.672C47.3308 233.672 46.7228 233.933 46.3175 234.456C45.9228 234.968 45.7255 235.581 45.7255 236.296V241H44.7655V235.208C44.7655 234.376 44.7228 233.635 44.6375 232.984H45.5655L45.6935 234.472C45.8962 233.928 46.2215 233.512 46.6695 233.224C47.1282 232.936 47.6455 232.792 48.2215 232.792ZM57.628 232.984L53.852 241.832C53.4787 242.707 53.0093 243.347 52.444 243.752C51.8893 244.168 51.1907 244.461 50.348 244.632L50.156 243.864C50.924 243.683 51.5 243.448 51.884 243.16C52.2787 242.872 52.6093 242.419 52.876 241.8L53.212 241.016L49.788 232.984H50.828L53.724 240.024L56.636 232.984H57.628ZM65.9204 241.112C64.619 241.112 63.5897 240.755 62.8324 240.04L63.1844 239.288C63.611 239.64 64.0377 239.891 64.4644 240.04C64.9017 240.189 65.403 240.264 65.9684 240.264C66.6297 240.264 67.131 240.152 67.4724 239.928C67.8244 239.693 68.0004 239.357 68.0004 238.92C68.0004 238.557 67.883 238.275 67.6484 238.072C67.4244 237.859 67.051 237.688 66.5284 237.56L65.1684 237.256C64.5284 237.107 64.0217 236.84 63.6484 236.456C63.2857 236.072 63.1044 235.624 63.1044 235.112C63.1044 234.408 63.371 233.848 63.9044 233.432C64.4484 233.005 65.1684 232.792 66.0644 232.792C66.6297 232.792 67.1524 232.883 67.6324 233.064C68.123 233.245 68.5284 233.507 68.8484 233.848L68.4804 234.6C67.7444 233.96 66.939 233.64 66.0644 233.64C65.4457 233.64 64.9657 233.763 64.6244 234.008C64.283 234.253 64.1124 234.595 64.1124 235.032C64.1124 235.395 64.219 235.688 64.4324 235.912C64.6564 236.136 64.9977 236.301 65.4564 236.408L66.8324 236.744C68.2724 237.064 68.9924 237.773 68.9924 238.872C68.9924 239.544 68.715 240.088 68.1604 240.504C67.6057 240.909 66.859 241.112 65.9204 241.112ZM77.8624 232.984L74.0864 241.832C73.713 242.707 73.2437 243.347 72.6784 243.752C72.1237 244.168 71.425 244.461 70.5824 244.632L70.3904 243.864C71.1584 243.683 71.7344 243.448 72.1184 243.16C72.513 242.872 72.8437 242.419 73.1104 241.8L73.4464 241.016L70.0224 232.984H71.0624L73.9584 240.024L76.8704 232.984H77.8624ZM81.9204 241.112C80.619 241.112 79.5897 240.755 78.8324 240.04L79.1844 239.288C79.611 239.64 80.0377 239.891 80.4644 240.04C80.9017 240.189 81.403 240.264 81.9684 240.264C82.6297 240.264 83.131 240.152 83.4724 239.928C83.8244 239.693 84.0004 239.357 84.0004 238.92C84.0004 238.557 83.883 238.275 83.6484 238.072C83.4244 237.859 83.051 237.688 82.5284 237.56L81.1684 237.256C80.5284 237.107 80.0217 236.84 79.6484 236.456C79.2857 236.072 79.1044 235.624 79.1044 235.112C79.1044 234.408 79.371 233.848 79.9044 233.432C80.4484 233.005 81.1684 232.792 82.0644 232.792C82.6297 232.792 83.1524 232.883 83.6324 233.064C84.123 233.245 84.5284 233.507 84.8484 233.848L84.4804 234.6C83.7444 233.96 82.939 233.64 82.0644 233.64C81.4457 233.64 80.9657 233.763 80.6244 234.008C80.283 234.253 80.1124 234.595 80.1124 235.032C80.1124 235.395 80.219 235.688 80.4324 235.912C80.6564 236.136 80.9977 236.301 81.4564 236.408L82.8324 236.744C84.2724 237.064 84.9924 237.773 84.9924 238.872C84.9924 239.544 84.715 240.088 84.1604 240.504C83.6057 240.909 82.859 241.112 81.9204 241.112ZM88.5005 233.768V238.536C88.5005 239.176 88.6232 239.619 88.8685 239.864C89.1138 240.109 89.4765 240.232 89.9565 240.232C90.2552 240.232 90.5432 240.184 90.8205 240.088V240.968C90.4792 241.053 90.1325 241.096 89.7805 241.096C89.0765 241.096 88.5218 240.899 88.1165 240.504C87.7218 240.109 87.5245 239.517 87.5245 238.728V233.768H85.9405V232.984H87.5245V230.856L88.5005 230.488V232.984H90.8685V233.768H88.5005ZM93.0431 236.872V236.92C93.0431 237.997 93.2885 238.824 93.7791 239.4C94.2805 239.965 95.0058 240.248 95.9551 240.248C96.9151 240.248 97.7951 239.917 98.5951 239.256L98.9791 240.024C98.6271 240.355 98.1791 240.621 97.6351 240.824C97.0911 241.016 96.5311 241.112 95.9551 241.112C94.7391 241.112 93.7791 240.744 93.0751 240.008C92.3711 239.272 92.0191 238.259 92.0191 236.968C92.0191 236.147 92.1738 235.421 92.4831 234.792C92.8031 234.152 93.2458 233.661 93.8111 233.32C94.3765 232.968 95.0271 232.792 95.7631 232.792C96.8191 232.792 97.6405 233.133 98.2271 233.816C98.8245 234.499 99.1231 235.448 99.1231 236.664V236.872H93.0431ZM95.7631 233.592C95.0271 233.592 94.4298 233.816 93.9711 234.264C93.5125 234.701 93.2245 235.32 93.1071 236.12H98.1951C98.1311 235.299 97.8911 234.675 97.4751 234.248C97.0591 233.811 96.4885 233.592 95.7631 233.592ZM109.859 232.792C111.629 232.792 112.515 233.827 112.515 235.896V241H111.539V235.96C111.539 235.149 111.395 234.563 111.107 234.2C110.819 233.827 110.36 233.64 109.731 233.64C108.995 233.64 108.413 233.885 107.987 234.376C107.571 234.867 107.363 235.533 107.363 236.376V241H106.387V235.96C106.387 235.149 106.237 234.563 105.939 234.2C105.651 233.827 105.192 233.64 104.563 233.64C103.837 233.64 103.256 233.885 102.819 234.376C102.392 234.867 102.179 235.533 102.179 236.376V241H101.219V235.208C101.219 234.376 101.176 233.635 101.091 232.984H102.019L102.147 234.424C102.371 233.891 102.701 233.485 103.139 233.208C103.587 232.931 104.104 232.792 104.691 232.792C105.981 232.792 106.808 233.315 107.171 234.36C107.395 233.869 107.741 233.485 108.211 233.208C108.691 232.931 109.24 232.792 109.859 232.792Z" fill="#7D7987"/>
<g clip-path="url(#clip0_33_16)">
<path d="M62.8574 30.4806L62.6657 70.2815L62.6338 77.9797C62.6018 84.0968 56.7882 89.0319 49.633 89L13.8889 88.8403C6.74971 88.7924 0.968057 83.8093 1 77.6762L1.2236 30.1772C1.23957 25.226 5.07271 21.0415 10.3113 19.652L10.3273 17.0966V15.7869L53.8814 15.9946L53.8654 19.8596C59.0881 21.313 62.8733 25.5135 62.8574 30.4806Z" fill="url(#paint0_linear_33_16)"/>
<path d="M57.1236 5.77283V6.1242L57.0917 10.2768L57.0598 14.3495V14.8446C57.0598 15.6112 56.4209 16.2341 55.6543 16.2341H55.3189L53.2106 16.2182L50.8948 16.2022L48.7866 16.1862L46.4707 16.1702L44.3305 16.1383L42.0147 16.1223L39.9064 16.1064L37.5746 16.0904L35.4504 16.0744L33.1345 16.0584L31.0263 16.0265L28.7105 16.0105L26.6022 15.9945L24.2704 15.9786L22.1462 15.9626L19.8463 15.9466L17.7381 15.9307L15.4222 15.9147L13.298 15.8987L10.9822 15.8828L8.85795 15.8668H8.52255C7.75593 15.8668 7.13304 15.2279 7.13304 14.4613V14.4453V14.0939L7.19692 5.88463V5.38952C7.19692 4.62289 7.83578 4 8.61838 4H8.95378L13.3938 4.03194L17.8339 4.06389L19.9581 4.07986L22.274 4.09583L24.3822 4.1118L28.8063 4.15971L31.1221 4.17569L33.2304 4.19166L35.5462 4.20763L37.6545 4.2236L39.9703 4.23957L42.0786 4.25554L44.3944 4.27151L46.5026 4.28749L48.8504 4.31943L50.9587 4.3354L53.2745 4.35137L55.3987 4.36734H55.7341C56.5167 4.38331 57.1236 5.0062 57.1236 5.77283Z" fill="url(#paint1_linear_33_16)"/>
<path d="M57.1236 6.14019L57.0917 10.2768L57.0598 14.3495L55.1592 14.3335L52.6357 14.3176L50.3198 14.3016H47.7804L45.4645 14.2856L42.941 14.2697L40.6251 14.2537H38.0857L35.7698 14.2377L33.2304 14.2217L30.9305 14.2058H28.391L26.0752 14.1898L23.5357 14.1738L21.2198 14.1579H18.6964L16.3805 14.1419L13.841 14.1259L11.5252 14.1099H9.0017L7.13304 14.094L7.19692 5.88464L11.637 5.90061L16.4763 5.93256L18.7922 5.94853L21.3316 5.9645H23.6475L28.4869 5.99644L31.0263 6.01242H33.3422L35.8816 6.02839L38.1815 6.04436L40.721 6.06033H43.0368L45.5763 6.0763L47.8762 6.09227L50.4156 6.10824H52.7315L55.271 6.12422L57.1236 6.14019Z" fill="url(#paint2_linear_33_16)"/>
<path d="M62.8105 38.8841L1.17676 38.5927L1.04753 65.9198L62.6813 66.2112L62.8105 38.8841Z" fill="#F7F9FC"/>
<path d="M62.8215 38.884L1.18766 38.5927L1.1644 43.5119L62.7982 43.8032L62.8215 38.884Z" fill="#FBFCF7"/>
<path d="M25.2127 49.5803L21.2358 49.5644L21.2518 45.5715L15.7736 45.5555L15.7576 49.5324L11.7807 49.5165L11.7488 54.9787L15.7257 54.9947L15.7097 58.9875L21.1879 59.0035L21.2039 55.0266L25.1808 55.0426L25.2127 49.5803Z" fill="url(#paint3_linear_33_16)"/>
<path d="M52.2364 50.906L32.5276 50.8102C32.0006 50.8102 31.5693 50.379 31.5693 49.8519V49.4047C31.5693 48.8776 32.0006 48.4464 32.5276 48.4464L52.2364 48.5422C52.7634 48.5422 53.1947 48.9735 53.1947 49.5005V49.9477C53.1947 50.4748 52.7634 50.906 52.2364 50.906Z" fill="url(#paint4_linear_33_16)"/>
<path opacity="0.5" d="M52.2204 56.7675L32.5116 56.6717C31.9846 56.6717 31.5534 56.2405 31.5534 55.7134V55.2662C31.5534 54.7392 31.9846 54.3079 32.5116 54.3079L52.2204 54.4038C52.7475 54.4038 53.1787 54.835 53.1787 55.362V55.8092C53.1787 56.3363 52.7475 56.7675 52.2204 56.7675Z" fill="url(#paint5_linear_33_16)"/>
<path opacity="0.08" d="M7.13304 5.77286V6.12423L7.16498 10.2768L7.19692 14.3335V14.8287C7.19692 15.5953 7.83578 16.2182 8.60241 16.2182H8.93781L11.062 16.2022L13.3779 16.1862L15.4861 16.1703L17.802 16.1543L19.9102 16.1383L22.226 16.1223L24.3343 16.1064L26.6501 16.0904L28.7743 16.0744L31.0902 16.0585L33.1984 16.0425L35.5143 16.0265L37.6225 16.0105L39.9384 15.9946L42.0626 15.9786L44.3784 15.9626L46.4867 15.9467L48.8025 15.9307L50.9108 15.9147L53.2266 15.8987L55.3508 15.8828H55.6862C56.4528 15.8828 57.0757 15.2439 57.0757 14.4773V14.4613V14.1099C32.3679 15.18 8.52255 4.36737 8.52255 4.36737C7.75593 4.38334 7.13304 5.00623 7.13304 5.77286Z" fill="#1A6FB5"/>
</g>
<defs>
<linearGradient id="paint0_linear_33_16" x1="1" y1="15.3333" x2="58.1389" y2="94.1944" gradientUnits="userSpaceOnUse">
<stop stop-color="#6CBCFC"/>
<stop offset="1" stop-color="#458DFC"/>
</linearGradient>
<linearGradient id="paint1_linear_33_16" x1="-628.93" y1="-35.931" x2="-26.6041" y2="6.02206" gradientUnits="userSpaceOnUse">
<stop stop-color="#B0F4FF"/>
<stop offset="0.0525488" stop-color="#A9F2FF"/>
<stop offset="0.2879" stop-color="#8DE8FE"/>
<stop offset="0.5247" stop-color="#79E1FD"/>
<stop offset="0.7618" stop-color="#6DDDFC"/>
<stop offset="1" stop-color="#69DCFC"/>
</linearGradient>
<linearGradient id="paint2_linear_33_16" x1="7.13994" y1="10.1131" x2="57.1258" y2="10.1131" gradientUnits="userSpaceOnUse">
<stop stop-color="#B0F4FF"/>
<stop offset="0.0525488" stop-color="#A9F2FF"/>
<stop offset="0.2879" stop-color="#8DE8FE"/>
<stop offset="0.5247" stop-color="#79E1FD"/>
<stop offset="0.7618" stop-color="#6DDDFC"/>
<stop offset="1" stop-color="#69DCFC"/>
</linearGradient>
<linearGradient id="paint3_linear_33_16" x1="22.9779" y1="47.0953" x2="13.5975" y2="57.9124" gradientUnits="userSpaceOnUse">
<stop stop-color="#6CBCFC"/>
<stop offset="1" stop-color="#458DFC"/>
</linearGradient>
<linearGradient id="paint4_linear_33_16" x1="53.3847" y1="49.671" x2="29.8866" y2="49.671" gradientUnits="userSpaceOnUse">
<stop stop-color="#6CBCFC"/>
<stop offset="1" stop-color="#458DFC"/>
</linearGradient>
<linearGradient id="paint5_linear_33_16" x1="31.5519" y1="55.5322" x2="53.179" y2="55.5322" gradientUnits="userSpaceOnUse">
<stop stop-color="#6CBCFC"/>
<stop offset="1" stop-color="#458DFC"/>
</linearGradient>
<clipPath id="clip0_33_16">
<rect width="61.8574" height="85" fill="white" transform="translate(1 4)"/>
</clipPath>
</defs>
</svg>
