<svg width="261" height="220" viewBox="0 0 261 220" fill="none" xmlns="http://www.w3.org/2000/svg">
<g clip-path="url(#clip0_0_1)">
<path d="M69.4225 4.31029V90.7055C69.4225 93.0896 67.4963 95.0158 65.1122 95.0158H4.31029C1.92621 95 0 93.0738 0 90.7055V4.31029C0 1.92621 1.92621 0 4.31029 0H65.128C67.4963 0 69.4225 1.92621 69.4225 4.31029Z" fill="url(#paint0_linear_0_1)"/>
<path d="M65 7.94666V87.0533C65 89.2363 63.3075 91 61.2126 91H7.78735C5.69252 90.9855 4 89.2218 4 87.0533V7.94666C4 5.76371 5.69252 4 7.78735 4H61.2265C63.3075 4 65 5.76371 65 7.94666Z" fill="url(#paint1_linear_0_1)"/>
<path d="M26.8722 18.2516V22.183C26.8722 22.4672 26.6511 22.6882 26.367 22.6882H21.5514C21.2672 22.6882 21.0462 22.9093 21.0462 23.1935V28.009C21.0462 28.2932 20.8252 28.5142 20.541 28.5142H16.6096C16.3254 28.5142 16.1044 28.2932 16.1044 28.009V23.1935C16.1044 22.9093 15.8833 22.6882 15.5991 22.6882H10.7994C10.5152 22.6882 10.2942 22.4672 10.2942 22.183V18.2516C10.2942 17.9674 10.5152 17.7464 10.7994 17.7464H15.6149C15.8991 17.7464 16.1202 17.5254 16.1202 17.2412V12.4256C16.1202 12.1415 16.3412 11.9204 16.6254 11.9204H20.5567C20.8409 11.9204 21.062 12.1415 21.062 12.4256V17.2412C21.062 17.5254 21.283 17.7464 21.5672 17.7464H26.367C26.6511 17.7464 26.8722 17.9674 26.8722 18.2516Z" fill="url(#paint2_linear_0_1)"/>
<path opacity="0.5" d="M58.5757 39.6767H10.8468C10.531 39.6767 10.2784 39.4241 10.2784 39.1083V37.2926C10.2784 36.9769 10.531 36.7242 10.8468 36.7242H58.5757C58.8915 36.7242 59.1441 36.9769 59.1441 37.2926V39.1083C59.1283 39.4241 58.8915 39.6767 58.5757 39.6767Z" fill="url(#paint3_linear_0_1)"/>
<path d="M58.5757 17.0517H34.8928C34.577 17.0517 34.3244 16.7991 34.3244 16.4833V14.6834C34.3244 14.3676 34.577 14.115 34.8928 14.115H58.5757C58.8915 14.115 59.1441 14.3676 59.1441 14.6834V16.4991C59.1283 16.7991 58.8915 17.0517 58.5757 17.0517Z" fill="url(#paint4_linear_0_1)"/>
<path opacity="0.5" d="M51.5656 24.7249H34.8928C34.577 24.7249 34.3244 24.4723 34.3244 24.1565V22.3408C34.3244 22.0251 34.577 21.7725 34.8928 21.7725H51.5656C51.8813 21.7725 52.1339 22.0251 52.1339 22.3408V24.1565C52.1182 24.4723 51.8813 24.7249 51.5656 24.7249Z" fill="url(#paint5_linear_0_1)"/>
<path opacity="0.5" d="M58.5757 48.2973H10.8468C10.531 48.2973 10.2784 48.0447 10.2784 47.7289V45.9132C10.2784 45.5975 10.531 45.3448 10.8468 45.3448H58.5757C58.8915 45.3448 59.1441 45.5975 59.1441 45.9132V47.7289C59.1283 48.0447 58.8915 48.2973 58.5757 48.2973Z" fill="url(#paint6_linear_0_1)"/>
<path opacity="0.5" d="M58.5757 56.9179H10.8468C10.531 56.9179 10.2784 56.6653 10.2784 56.3495V54.5338C10.2784 54.2181 10.531 53.9655 10.8468 53.9655H58.5757C58.8915 53.9655 59.1441 54.2181 59.1441 54.5338V56.3653C59.1283 56.6653 58.8915 56.9179 58.5757 56.9179Z" fill="url(#paint7_linear_0_1)"/>
<path opacity="0.5" d="M58.5757 65.5543H10.8468C10.531 65.5543 10.2784 65.3017 10.2784 64.9859V63.1702C10.2784 62.8544 10.531 62.6018 10.8468 62.6018H58.5757C58.8915 62.6018 59.1441 62.8544 59.1441 63.1702V64.9859C59.1283 65.3017 58.8915 65.5543 58.5757 65.5543Z" fill="url(#paint8_linear_0_1)"/>
<path opacity="0.5" d="M58.5757 74.1749H10.8468C10.531 74.1749 10.2784 73.9223 10.2784 73.6065V71.7908C10.2784 71.475 10.531 71.2224 10.8468 71.2224H58.5757C58.8915 71.2224 59.1441 71.475 59.1441 71.7908V73.6065C59.1283 73.9223 58.8915 74.1749 58.5757 74.1749Z" fill="url(#paint9_linear_0_1)"/>
<path opacity="0.5" d="M58.5757 82.7955H10.8468C10.531 82.7955 10.2784 82.5429 10.2784 82.2271V80.4114C10.2784 80.0956 10.531 79.843 10.8468 79.843H58.5757C58.8915 79.843 59.1441 80.0956 59.1441 80.4114V82.2271C59.1283 82.5429 58.8915 82.7955 58.5757 82.7955Z" fill="url(#paint10_linear_0_1)"/>
<path opacity="0.1" d="M69.4225 4.31029V90.7055C69.4225 93.0896 67.4963 95.0158 65.1122 95.0158H4.31029C1.92621 95 0 93.0738 0 90.7055V89.2056C37.0874 73.8906 54.3601 15.1571 58.2599 0H65.1122C67.4963 0 69.4225 1.92621 69.4225 4.31029Z" fill="#1A6FB5" fill-opacity="0.4"/>
</g>
<path d="M6.22087 136.864H0.652868V134.32H14.9329V136.864H9.34087V151.408H6.22087V136.864ZM21.4858 139C21.9498 139 22.3498 139.064 22.6858 139.192L22.6618 141.928C22.1498 141.72 21.6218 141.616 21.0778 141.616C20.0538 141.616 19.2698 141.912 18.7258 142.504C18.1978 143.096 17.9338 143.88 17.9338 144.856V151.408H14.9578V142.72C14.9578 141.44 14.8938 140.296 14.7658 139.288H17.5738L17.8138 141.424C18.1178 140.64 18.5978 140.04 19.2538 139.624C19.9098 139.208 20.6538 139 21.4858 139ZM35.7139 139.288V151.408H32.7619V149.464C32.3939 150.136 31.8659 150.664 31.1779 151.048C30.4899 151.416 29.7059 151.6 28.8259 151.6C27.7699 151.6 26.8339 151.344 26.0179 150.832C25.2019 150.32 24.5699 149.592 24.1219 148.648C23.6739 147.704 23.4499 146.608 23.4499 145.36C23.4499 144.112 23.6739 143.008 24.1219 142.048C24.5859 141.072 25.2259 140.32 26.0419 139.792C26.8579 139.248 27.7859 138.976 28.8259 138.976C29.7059 138.976 30.4899 139.168 31.1779 139.552C31.8659 139.92 32.3939 140.44 32.7619 141.112V139.288H35.7139ZM29.6419 149.248C30.6339 149.248 31.4019 148.904 31.9459 148.216C32.4899 147.528 32.7619 146.56 32.7619 145.312C32.7619 144.032 32.4899 143.048 31.9459 142.36C31.4019 141.672 30.6259 141.328 29.6179 141.328C28.6259 141.328 27.8499 141.688 27.2899 142.408C26.7459 143.112 26.4739 144.096 26.4739 145.36C26.4739 146.608 26.7459 147.568 27.2899 148.24C27.8499 148.912 28.6339 149.248 29.6419 149.248ZM44.4772 151.6C43.2132 151.6 42.1172 151.344 41.1892 150.832C40.2612 150.32 39.5492 149.6 39.0532 148.672C38.5572 147.728 38.3092 146.624 38.3092 145.36C38.3092 144.096 38.5652 142.984 39.0772 142.024C39.6052 141.064 40.3412 140.32 41.2852 139.792C42.2452 139.248 43.3492 138.976 44.5972 138.976C45.4612 138.976 46.2932 139.112 47.0932 139.384C47.9092 139.656 48.5572 140.032 49.0372 140.512L48.1972 142.624C47.6852 142.208 47.1412 141.896 46.5652 141.688C45.9892 141.464 45.4212 141.352 44.8612 141.352C43.7732 141.352 42.9252 141.696 42.3172 142.384C41.7092 143.056 41.4052 144.032 41.4052 145.312C41.4052 146.592 41.7012 147.568 42.2932 148.24C42.9012 148.912 43.7572 149.248 44.8612 149.248C45.4212 149.248 45.9892 149.136 46.5652 148.912C47.1412 148.688 47.6852 148.368 48.1972 147.952L49.0372 150.064C48.5252 150.544 47.8612 150.92 47.0452 151.192C46.2292 151.464 45.3732 151.6 44.4772 151.6ZM59.3316 151.408L54.0276 145.816V151.408H51.0516V133.744H54.0276V144.64L59.0196 139.312H62.6436L57.1956 145.096L63.0756 151.408H59.3316ZM64.2703 139.288H67.2463V151.408H64.2703V139.288ZM67.4143 133.792V136.744H64.0783V133.792H67.4143ZM77.4641 138.976C80.3601 138.976 81.8081 140.64 81.8081 143.968V151.408H78.8081V144.112C78.8081 143.152 78.6241 142.456 78.2561 142.024C77.8881 141.576 77.3201 141.352 76.5521 141.352C75.6401 141.352 74.9041 141.648 74.3441 142.24C73.7841 142.816 73.5041 143.584 73.5041 144.544V151.408H70.5281V142.72C70.5281 141.44 70.4641 140.296 70.3361 139.288H73.1441L73.3601 141.28C73.7761 140.544 74.3361 139.976 75.0401 139.576C75.7601 139.176 76.5681 138.976 77.4641 138.976ZM96.7011 139.288V151.024C96.7011 152.912 96.1811 154.344 95.1411 155.32C94.1011 156.296 92.5731 156.784 90.5571 156.784C88.6851 156.784 87.0371 156.392 85.6131 155.608L86.0931 153.328C87.5651 154.096 89.0291 154.48 90.4851 154.48C92.6451 154.48 93.7251 153.408 93.7251 151.264V148.864C93.3571 149.52 92.8211 150.056 92.1171 150.472C91.4131 150.872 90.6211 151.072 89.7411 151.072C88.6851 151.072 87.7411 150.824 86.9091 150.328C86.0931 149.816 85.4531 149.104 84.9891 148.192C84.5411 147.264 84.3171 146.208 84.3171 145.024C84.3171 143.84 84.5411 142.792 84.9891 141.88C85.4531 140.952 86.0931 140.24 86.9091 139.744C87.7411 139.232 88.6851 138.976 89.7411 138.976C90.6371 138.976 91.4291 139.168 92.1171 139.552C92.8211 139.92 93.3571 140.44 93.7251 141.112V139.288H96.7011ZM90.5331 148.72C91.5251 148.72 92.3011 148.392 92.8611 147.736C93.4371 147.08 93.7251 146.176 93.7251 145.024C93.7251 143.872 93.4451 142.968 92.8851 142.312C92.3251 141.656 91.5411 141.328 90.5331 141.328C89.5411 141.328 88.7571 141.656 88.1811 142.312C87.6211 142.968 87.3411 143.872 87.3411 145.024C87.3411 146.176 87.6211 147.08 88.1811 147.736C88.7571 148.392 89.5411 148.72 90.5331 148.72Z" fill="black"/>
<path d="M5.272 180.472H1.192V179.608H10.344V180.472H6.264V191H5.272V180.472ZM14.0965 182.792C14.3632 182.792 14.5978 182.813 14.8005 182.856L14.7525 183.736C14.5498 183.693 14.3045 183.672 14.0165 183.672C13.2058 183.672 12.5978 183.933 12.1925 184.456C11.7978 184.968 11.6005 185.581 11.6005 186.296V191H10.6405V185.208C10.6405 184.376 10.5978 183.635 10.5125 182.984H11.4405L11.5685 184.472C11.7712 183.928 12.0965 183.512 12.5445 183.224C13.0032 182.936 13.5205 182.792 14.0965 182.792ZM22.8624 182.984V191H21.8864V189.464C21.6517 189.997 21.2944 190.408 20.8144 190.696C20.345 190.973 19.7797 191.112 19.1184 191.112C18.4037 191.112 17.7744 190.947 17.2304 190.616C16.697 190.275 16.281 189.795 15.9824 189.176C15.6944 188.547 15.5504 187.816 15.5504 186.984C15.5504 186.152 15.6997 185.421 15.9984 184.792C16.297 184.152 16.713 183.661 17.2464 183.32C17.7904 182.968 18.4144 182.792 19.1184 182.792C19.769 182.792 20.329 182.931 20.7984 183.208C21.2784 183.485 21.641 183.891 21.8864 184.424V182.984H22.8624ZM19.2624 190.248C20.0944 190.248 20.7397 189.96 21.1984 189.384C21.657 188.808 21.8864 187.997 21.8864 186.952C21.8864 185.896 21.657 185.08 21.1984 184.504C20.7397 183.928 20.089 183.64 19.2464 183.64C18.4037 183.64 17.7477 183.939 17.2784 184.536C16.809 185.123 16.5744 185.939 16.5744 186.984C16.5744 188.019 16.809 188.824 17.2784 189.4C17.7477 189.965 18.409 190.248 19.2624 190.248ZM28.7635 191.112C28.0062 191.112 27.3448 190.941 26.7795 190.6C26.2142 190.259 25.7768 189.779 25.4675 189.16C25.1582 188.531 25.0035 187.805 25.0035 186.984C25.0035 186.152 25.1582 185.421 25.4675 184.792C25.7768 184.152 26.2195 183.661 26.7955 183.32C27.3715 182.968 28.0382 182.792 28.7955 182.792C29.3395 182.792 29.8568 182.888 30.3475 183.08C30.8488 183.261 31.2595 183.517 31.5795 183.848L31.1955 184.616C30.7795 184.275 30.3795 184.029 29.9955 183.88C29.6222 183.72 29.2328 183.64 28.8275 183.64C27.9635 183.64 27.2808 183.939 26.7795 184.536C26.2782 185.123 26.0275 185.939 26.0275 186.984C26.0275 188.008 26.2728 188.808 26.7635 189.384C27.2648 189.96 27.9528 190.248 28.8275 190.248C29.2328 190.248 29.6222 190.173 29.9955 190.024C30.3795 189.864 30.7795 189.619 31.1955 189.288L31.5795 190.04C31.2382 190.371 30.8115 190.632 30.2995 190.824C29.7982 191.016 29.2862 191.112 28.7635 191.112ZM38.7353 191L34.3193 187.096V191H33.3593V179.224H34.3193V186.712L38.3513 182.984H39.6153L35.4233 186.84L40.0633 191H38.7353ZM52.2061 182.984V191H51.2301V189.464C50.9955 189.997 50.6381 190.408 50.1581 190.696C49.6888 190.973 49.1235 191.112 48.4621 191.112C47.7475 191.112 47.1181 190.947 46.5741 190.616C46.0408 190.275 45.6248 189.795 45.3261 189.176C45.0381 188.547 44.8941 187.816 44.8941 186.984C44.8941 186.152 45.0435 185.421 45.3421 184.792C45.6408 184.152 46.0568 183.661 46.5901 183.32C47.1341 182.968 47.7581 182.792 48.4621 182.792C49.1128 182.792 49.6728 182.931 50.1421 183.208C50.6221 183.485 50.9848 183.891 51.2301 184.424V182.984H52.2061ZM48.6061 190.248C49.4381 190.248 50.0835 189.96 50.5421 189.384C51.0008 188.808 51.2301 187.997 51.2301 186.952C51.2301 185.896 51.0008 185.08 50.5421 184.504C50.0835 183.928 49.4328 183.64 48.5901 183.64C47.7475 183.64 47.0915 183.939 46.6221 184.536C46.1528 185.123 45.9181 185.939 45.9181 186.984C45.9181 188.019 46.1528 188.824 46.6221 189.4C47.0915 189.965 47.7528 190.248 48.6061 190.248ZM58.5873 182.792C60.5179 182.792 61.4833 183.827 61.4833 185.896V191H60.5073V185.96C60.5073 185.16 60.3419 184.573 60.0113 184.2C59.6913 183.827 59.1846 183.64 58.4913 183.64C57.6913 183.64 57.0459 183.885 56.5553 184.376C56.0646 184.867 55.8193 185.528 55.8193 186.36V191H54.8593V185.208C54.8593 184.376 54.8166 183.635 54.7313 182.984H55.6593L55.7873 184.456C56.0326 183.912 56.4006 183.501 56.8913 183.224C57.3819 182.936 57.9473 182.792 58.5873 182.792ZM70.9093 179.224V191H69.9333V189.464C69.6986 189.997 69.3413 190.408 68.8613 190.696C68.3919 190.973 67.8266 191.112 67.1653 191.112C66.4613 191.112 65.8373 190.941 65.2933 190.6C64.7599 190.248 64.3439 189.757 64.0453 189.128C63.7466 188.488 63.5973 187.752 63.5973 186.92C63.5973 186.088 63.7413 185.363 64.0293 184.744C64.3279 184.115 64.7439 183.635 65.2773 183.304C65.8213 182.963 66.4506 182.792 67.1653 182.792C67.8159 182.792 68.3759 182.931 68.8453 183.208C69.3253 183.485 69.6879 183.891 69.9333 184.424V179.224H70.9093ZM67.2933 190.248C68.1359 190.248 68.7866 189.96 69.2453 189.384C69.7039 188.808 69.9333 187.997 69.9333 186.952C69.9333 185.907 69.7039 185.096 69.2453 184.52C68.7866 183.933 68.1413 183.64 67.3093 183.64C66.4559 183.64 65.7946 183.928 65.3253 184.504C64.8559 185.08 64.6213 185.885 64.6213 186.92C64.6213 187.965 64.8559 188.781 65.3253 189.368C65.7946 189.955 66.4506 190.248 67.2933 190.248ZM80.2485 191.112C78.9472 191.112 77.9178 190.755 77.1605 190.04L77.5125 189.288C77.9392 189.64 78.3658 189.891 78.7925 190.04C79.2298 190.189 79.7312 190.264 80.2965 190.264C80.9578 190.264 81.4592 190.152 81.8005 189.928C82.1525 189.693 82.3285 189.357 82.3285 188.92C82.3285 188.557 82.2112 188.275 81.9765 188.072C81.7525 187.859 81.3792 187.688 80.8565 187.56L79.4965 187.256C78.8565 187.107 78.3498 186.84 77.9765 186.456C77.6138 186.072 77.4325 185.624 77.4325 185.112C77.4325 184.408 77.6992 183.848 78.2325 183.432C78.7765 183.005 79.4965 182.792 80.3925 182.792C80.9578 182.792 81.4805 182.883 81.9605 183.064C82.4512 183.245 82.8565 183.507 83.1765 183.848L82.8085 184.6C82.0725 183.96 81.2672 183.64 80.3925 183.64C79.7738 183.64 79.2938 183.763 78.9525 184.008C78.6112 184.253 78.4405 184.595 78.4405 185.032C78.4405 185.395 78.5472 185.688 78.7605 185.912C78.9845 186.136 79.3258 186.301 79.7845 186.408L81.1605 186.744C82.6005 187.064 83.3205 187.773 83.3205 188.872C83.3205 189.544 83.0432 190.088 82.4885 190.504C81.9338 190.909 81.1872 191.112 80.2485 191.112ZM92.3468 182.984V191H91.3708V189.464C91.1361 189.997 90.7788 190.408 90.2988 190.696C89.8294 190.973 89.2641 191.112 88.6028 191.112C87.8881 191.112 87.2588 190.947 86.7148 190.616C86.1814 190.275 85.7654 189.795 85.4668 189.176C85.1788 188.547 85.0348 187.816 85.0348 186.984C85.0348 186.152 85.1841 185.421 85.4828 184.792C85.7814 184.152 86.1974 183.661 86.7308 183.32C87.2748 182.968 87.8988 182.792 88.6028 182.792C89.2534 182.792 89.8134 182.931 90.2828 183.208C90.7628 183.485 91.1254 183.891 91.3708 184.424V182.984H92.3468ZM88.7468 190.248C89.5788 190.248 90.2241 189.96 90.6828 189.384C91.1414 188.808 91.3708 187.997 91.3708 186.952C91.3708 185.896 91.1414 185.08 90.6828 184.504C90.2241 183.928 89.5734 183.64 88.7308 183.64C87.8881 183.64 87.2321 183.939 86.7628 184.536C86.2934 185.123 86.0588 185.939 86.0588 186.984C86.0588 188.019 86.2934 188.824 86.7628 189.4C87.2321 189.965 87.8934 190.248 88.7468 190.248ZM101.8 182.984L98.3599 191H97.3519L93.9599 182.984H94.9999L97.8959 190.024L100.808 182.984H101.8ZM103.84 186.872V186.92C103.84 187.997 104.085 188.824 104.576 189.4C105.077 189.965 105.803 190.248 106.752 190.248C107.712 190.248 108.592 189.917 109.392 189.256L109.776 190.024C109.424 190.355 108.976 190.621 108.432 190.824C107.888 191.016 107.328 191.112 106.752 191.112C105.536 191.112 104.576 190.744 103.872 190.008C103.168 189.272 102.816 188.259 102.816 186.968C102.816 186.147 102.971 185.421 103.28 184.792C103.6 184.152 104.043 183.661 104.608 183.32C105.173 182.968 105.824 182.792 106.56 182.792C107.616 182.792 108.437 183.133 109.024 183.816C109.621 184.499 109.92 185.448 109.92 186.664V186.872H103.84ZM106.56 183.592C105.824 183.592 105.227 183.816 104.768 184.264C104.309 184.701 104.021 185.32 103.904 186.12H108.992C108.928 185.299 108.688 184.675 108.272 184.248C107.856 183.811 107.285 183.592 106.56 183.592ZM122.894 182.984L119.118 191.832C118.744 192.707 118.275 193.347 117.71 193.752C117.155 194.168 116.456 194.461 115.614 194.632L115.422 193.864C116.19 193.683 116.766 193.448 117.15 193.16C117.544 192.872 117.875 192.419 118.142 191.8L118.478 191.016L115.054 182.984H116.094L118.99 190.024L121.902 182.984H122.894ZM127.606 191.112C126.87 191.112 126.219 190.941 125.654 190.6C125.099 190.259 124.667 189.773 124.358 189.144C124.059 188.515 123.91 187.784 123.91 186.952C123.91 186.12 124.059 185.389 124.358 184.76C124.667 184.131 125.099 183.645 125.654 183.304C126.219 182.963 126.87 182.792 127.606 182.792C128.331 182.792 128.971 182.963 129.526 183.304C130.08 183.645 130.507 184.131 130.806 184.76C131.115 185.389 131.27 186.12 131.27 186.952C131.27 187.784 131.115 188.515 130.806 189.144C130.507 189.773 130.08 190.259 129.526 190.6C128.971 190.941 128.331 191.112 127.606 191.112ZM127.59 190.248C128.443 190.248 129.099 189.965 129.558 189.4C130.027 188.824 130.262 188.008 130.262 186.952C130.262 185.907 130.027 185.096 129.558 184.52C129.088 183.933 128.438 183.64 127.606 183.64C126.763 183.64 126.107 183.933 125.638 184.52C125.168 185.096 124.934 185.907 124.934 186.952C124.934 188.019 125.163 188.835 125.622 189.4C126.08 189.965 126.736 190.248 127.59 190.248ZM139.854 182.984V191H138.91V189.544C138.654 190.056 138.291 190.445 137.822 190.712C137.353 190.979 136.814 191.112 136.206 191.112C135.267 191.112 134.558 190.851 134.078 190.328C133.598 189.805 133.358 189.032 133.358 188.008V182.984H134.318V187.944C134.318 188.733 134.478 189.315 134.798 189.688C135.118 190.061 135.614 190.248 136.286 190.248C137.075 190.248 137.705 190.003 138.174 189.512C138.643 189.011 138.878 188.349 138.878 187.528V182.984H139.854ZM145.972 182.792C146.238 182.792 146.473 182.813 146.676 182.856L146.628 183.736C146.425 183.693 146.18 183.672 145.891 183.672C145.081 183.672 144.473 183.933 144.068 184.456C143.673 184.968 143.476 185.581 143.476 186.296V191H142.516V185.208C142.516 184.376 142.473 183.635 142.388 182.984H143.316L143.444 184.472C143.646 183.928 143.972 183.512 144.42 183.224C144.878 182.936 145.396 182.792 145.972 182.792ZM160.812 182.792C162.582 182.792 163.468 183.827 163.468 185.896V191H162.492V185.96C162.492 185.149 162.348 184.563 162.06 184.2C161.772 183.827 161.313 183.64 160.684 183.64C159.948 183.64 159.366 183.885 158.94 184.376C158.524 184.867 158.316 185.533 158.316 186.376V191H157.34V185.96C157.34 185.149 157.19 184.563 156.892 184.2C156.604 183.827 156.145 183.64 155.516 183.64C154.79 183.64 154.209 183.885 153.772 184.376C153.345 184.867 153.132 185.533 153.132 186.376V191H152.172V185.208C152.172 184.376 152.129 183.635 152.044 182.984H152.972L153.1 184.424C153.324 183.891 153.654 183.485 154.092 183.208C154.54 182.931 155.057 182.792 155.644 182.792C156.934 182.792 157.761 183.315 158.124 184.36C158.348 183.869 158.694 183.485 159.164 183.208C159.644 182.931 160.193 182.792 160.812 182.792ZM166.59 186.872V186.92C166.59 187.997 166.835 188.824 167.326 189.4C167.827 189.965 168.553 190.248 169.502 190.248C170.462 190.248 171.342 189.917 172.142 189.256L172.526 190.024C172.174 190.355 171.726 190.621 171.182 190.824C170.638 191.016 170.078 191.112 169.502 191.112C168.286 191.112 167.326 190.744 166.622 190.008C165.918 189.272 165.566 188.259 165.566 186.968C165.566 186.147 165.721 185.421 166.03 184.792C166.35 184.152 166.793 183.661 167.358 183.32C167.923 182.968 168.574 182.792 169.31 182.792C170.366 182.792 171.187 183.133 171.774 183.816C172.371 184.499 172.67 185.448 172.67 186.664V186.872H166.59ZM169.31 183.592C168.574 183.592 167.977 183.816 167.518 184.264C167.059 184.701 166.771 185.32 166.654 186.12H171.742C171.678 185.299 171.438 184.675 171.022 184.248C170.606 183.811 170.035 183.592 169.31 183.592ZM181.566 179.224V191H180.59V189.464C180.355 189.997 179.998 190.408 179.518 190.696C179.048 190.973 178.483 191.112 177.822 191.112C177.118 191.112 176.494 190.941 175.95 190.6C175.416 190.248 175 189.757 174.702 189.128C174.403 188.488 174.254 187.752 174.254 186.92C174.254 186.088 174.398 185.363 174.686 184.744C174.984 184.115 175.4 183.635 175.934 183.304C176.478 182.963 177.107 182.792 177.822 182.792C178.472 182.792 179.032 182.931 179.502 183.208C179.982 183.485 180.344 183.891 180.59 184.424V179.224H181.566ZM177.95 190.248C178.792 190.248 179.443 189.96 179.902 189.384C180.36 188.808 180.59 187.997 180.59 186.952C180.59 185.907 180.36 185.096 179.902 184.52C179.443 183.933 178.798 183.64 177.966 183.64C177.112 183.64 176.451 183.928 175.982 184.504C175.512 185.08 175.278 185.885 175.278 186.92C175.278 187.965 175.512 188.781 175.982 189.368C176.451 189.955 177.107 190.248 177.95 190.248ZM184.219 182.984H185.179V191H184.219V182.984ZM185.371 179.672V180.92H184.075V179.672H185.371ZM191.107 191.112C190.35 191.112 189.689 190.941 189.123 190.6C188.558 190.259 188.121 189.779 187.811 189.16C187.502 188.531 187.347 187.805 187.347 186.984C187.347 186.152 187.502 185.421 187.811 184.792C188.121 184.152 188.563 183.661 189.139 183.32C189.715 182.968 190.382 182.792 191.139 182.792C191.683 182.792 192.201 182.888 192.691 183.08C193.193 183.261 193.603 183.517 193.923 183.848L193.539 184.616C193.123 184.275 192.723 184.029 192.339 183.88C191.966 183.72 191.577 183.64 191.171 183.64C190.307 183.64 189.625 183.939 189.123 184.536C188.622 185.123 188.371 185.939 188.371 186.984C188.371 188.008 188.617 188.808 189.107 189.384C189.609 189.96 190.297 190.248 191.171 190.248C191.577 190.248 191.966 190.173 192.339 190.024C192.723 189.864 193.123 189.619 193.539 189.288L193.923 190.04C193.582 190.371 193.155 190.632 192.643 190.824C192.142 191.016 191.63 191.112 191.107 191.112ZM202.503 182.984V191H201.527V189.464C201.292 189.997 200.935 190.408 200.455 190.696C199.986 190.973 199.42 191.112 198.759 191.112C198.044 191.112 197.415 190.947 196.871 190.616C196.338 190.275 195.922 189.795 195.623 189.176C195.335 188.547 195.191 187.816 195.191 186.984C195.191 186.152 195.34 185.421 195.639 184.792C195.938 184.152 196.354 183.661 196.887 183.32C197.431 182.968 198.055 182.792 198.759 182.792C199.41 182.792 199.97 182.931 200.439 183.208C200.919 183.485 201.282 183.891 201.527 184.424V182.984H202.503ZM198.903 190.248C199.735 190.248 200.38 189.96 200.839 189.384C201.298 188.808 201.527 187.997 201.527 186.952C201.527 185.896 201.298 185.08 200.839 184.504C200.38 183.928 199.73 183.64 198.887 183.64C198.044 183.64 197.388 183.939 196.919 184.536C196.45 185.123 196.215 185.939 196.215 186.984C196.215 188.019 196.45 188.824 196.919 189.4C197.388 189.965 198.05 190.248 198.903 190.248ZM205.156 179.224H206.116V191H205.156V179.224ZM216.603 182.792C218.534 182.792 219.499 183.827 219.499 185.896V191H218.523V185.96C218.523 185.16 218.358 184.573 218.027 184.2C217.707 183.827 217.2 183.64 216.507 183.64C215.707 183.64 215.062 183.885 214.571 184.376C214.08 184.867 213.835 185.528 213.835 186.36V191H212.875V179.224H213.835V184.376C214.091 183.853 214.459 183.459 214.939 183.192C215.419 182.925 215.974 182.792 216.603 182.792ZM222.125 182.984H223.085V191H222.125V182.984ZM223.277 179.672V180.92H221.981V179.672H223.277ZM228.374 191.112C227.072 191.112 226.043 190.755 225.286 190.04L225.638 189.288C226.064 189.64 226.491 189.891 226.918 190.04C227.355 190.189 227.856 190.264 228.422 190.264C229.083 190.264 229.584 190.152 229.926 189.928C230.278 189.693 230.454 189.357 230.454 188.92C230.454 188.557 230.336 188.275 230.102 188.072C229.878 187.859 229.504 187.688 228.982 187.56L227.622 187.256C226.982 187.107 226.475 186.84 226.102 186.456C225.739 186.072 225.558 185.624 225.558 185.112C225.558 184.408 225.824 183.848 226.358 183.432C226.902 183.005 227.622 182.792 228.518 182.792C229.083 182.792 229.606 182.883 230.086 183.064C230.576 183.245 230.982 183.507 231.302 183.848L230.934 184.6C230.198 183.96 229.392 183.64 228.518 183.64C227.899 183.64 227.419 183.763 227.078 184.008C226.736 184.253 226.566 184.595 226.566 185.032C226.566 185.395 226.672 185.688 226.886 185.912C227.11 186.136 227.451 186.301 227.91 186.408L229.286 186.744C230.726 187.064 231.446 187.773 231.446 188.872C231.446 189.544 231.168 190.088 230.614 190.504C230.059 190.909 229.312 191.112 228.374 191.112ZM234.954 183.768V188.536C234.954 189.176 235.076 189.619 235.322 189.864C235.567 190.109 235.93 190.232 236.41 190.232C236.708 190.232 236.996 190.184 237.274 190.088V190.968C236.932 191.053 236.586 191.096 236.234 191.096C235.53 191.096 234.975 190.899 234.57 190.504C234.175 190.109 233.978 189.517 233.978 188.728V183.768H232.394V182.984H233.978V180.856L234.954 180.488V182.984H237.322V183.768H234.954ZM242.168 191.112C241.432 191.112 240.782 190.941 240.216 190.6C239.662 190.259 239.23 189.773 238.92 189.144C238.622 188.515 238.472 187.784 238.472 186.952C238.472 186.12 238.622 185.389 238.92 184.76C239.23 184.131 239.662 183.645 240.216 183.304C240.782 182.963 241.432 182.792 242.168 182.792C242.894 182.792 243.534 182.963 244.088 183.304C244.643 183.645 245.07 184.131 245.368 184.76C245.678 185.389 245.832 186.12 245.832 186.952C245.832 187.784 245.678 188.515 245.368 189.144C245.07 189.773 244.643 190.259 244.088 190.6C243.534 190.941 242.894 191.112 242.168 191.112ZM242.152 190.248C243.006 190.248 243.662 189.965 244.12 189.4C244.59 188.824 244.824 188.008 244.824 186.952C244.824 185.907 244.59 185.096 244.12 184.52C243.651 183.933 243 183.64 242.168 183.64C241.326 183.64 240.67 183.933 240.2 184.52C239.731 185.096 239.496 185.907 239.496 186.952C239.496 188.019 239.726 188.835 240.184 189.4C240.643 189.965 241.299 190.248 242.152 190.248ZM251.425 182.792C251.691 182.792 251.926 182.813 252.129 182.856L252.081 183.736C251.878 183.693 251.633 183.672 251.345 183.672C250.534 183.672 249.926 183.933 249.521 184.456C249.126 184.968 248.929 185.581 248.929 186.296V191H247.969V185.208C247.969 184.376 247.926 183.635 247.841 182.984H248.769L248.897 184.472C249.099 183.928 249.425 183.512 249.873 183.224C250.331 182.936 250.849 182.792 251.425 182.792ZM260.831 182.984L257.055 191.832C256.682 192.707 256.212 193.347 255.647 193.752C255.092 194.168 254.394 194.461 253.551 194.632L253.359 193.864C254.127 193.683 254.703 193.448 255.087 193.16C255.482 192.872 255.812 192.419 256.079 191.8L256.415 191.016L252.991 182.984H254.031L256.927 190.024L259.839 182.984H260.831ZM9.128 210.984V219H8.152V217.464C7.91733 217.997 7.56 218.408 7.08 218.696C6.61067 218.973 6.04533 219.112 5.384 219.112C4.66933 219.112 4.04 218.947 3.496 218.616C2.96267 218.275 2.54667 217.795 2.248 217.176C1.96 216.547 1.816 215.816 1.816 214.984C1.816 214.152 1.96533 213.421 2.264 212.792C2.56267 212.152 2.97867 211.661 3.512 211.32C4.056 210.968 4.68 210.792 5.384 210.792C6.03467 210.792 6.59467 210.931 7.064 211.208C7.544 211.485 7.90667 211.891 8.152 212.424V210.984H9.128ZM5.528 218.248C6.36 218.248 7.00533 217.96 7.464 217.384C7.92267 216.808 8.152 215.997 8.152 214.952C8.152 213.896 7.92267 213.08 7.464 212.504C7.00533 211.928 6.35467 211.64 5.512 211.64C4.66933 211.64 4.01333 211.939 3.544 212.536C3.07467 213.123 2.84 213.939 2.84 214.984C2.84 216.019 3.07467 216.824 3.544 217.4C4.01333 217.965 4.67467 218.248 5.528 218.248ZM15.5091 210.792C17.4398 210.792 18.4051 211.827 18.4051 213.896V219H17.4291V213.96C17.4291 213.16 17.2638 212.573 16.9331 212.2C16.6131 211.827 16.1065 211.64 15.4131 211.64C14.6131 211.64 13.9678 211.885 13.4771 212.376C12.9865 212.867 12.7411 213.528 12.7411 214.36V219H11.7811V213.208C11.7811 212.376 11.7385 211.635 11.6531 210.984H12.5811L12.7091 212.456C12.9545 211.912 13.3225 211.501 13.8131 211.224C14.3038 210.936 14.8691 210.792 15.5091 210.792ZM27.8311 207.224V219H26.8551V217.464C26.6205 217.997 26.2631 218.408 25.7831 218.696C25.3138 218.973 24.7485 219.112 24.0871 219.112C23.3831 219.112 22.7591 218.941 22.2151 218.6C21.6818 218.248 21.2658 217.757 20.9671 217.128C20.6685 216.488 20.5191 215.752 20.5191 214.92C20.5191 214.088 20.6631 213.363 20.9511 212.744C21.2498 212.115 21.6658 211.635 22.1991 211.304C22.7431 210.963 23.3725 210.792 24.0871 210.792C24.7378 210.792 25.2978 210.931 25.7671 211.208C26.2471 211.485 26.6098 211.891 26.8551 212.424V207.224H27.8311ZM24.2151 218.248C25.0578 218.248 25.7085 217.96 26.1671 217.384C26.6258 216.808 26.8551 215.997 26.8551 214.952C26.8551 213.907 26.6258 213.096 26.1671 212.52C25.7085 211.933 25.0631 211.64 24.2311 211.64C23.3778 211.64 22.7165 211.928 22.2471 212.504C21.7778 213.08 21.5431 213.885 21.5431 214.92C21.5431 215.965 21.7778 216.781 22.2471 217.368C22.7165 217.955 23.3725 218.248 24.2151 218.248ZM38.2904 210.792C40.221 210.792 41.1864 211.827 41.1864 213.896V219H40.2104V213.96C40.2104 213.16 40.045 212.573 39.7144 212.2C39.3944 211.827 38.8877 211.64 38.1944 211.64C37.3944 211.64 36.749 211.885 36.2584 212.376C35.7677 212.867 35.5224 213.528 35.5224 214.36V219H34.5624V207.224H35.5224V212.376C35.7784 211.853 36.1464 211.459 36.6264 211.192C37.1064 210.925 37.661 210.792 38.2904 210.792ZM44.3244 214.872V214.92C44.3244 215.997 44.5697 216.824 45.0604 217.4C45.5617 217.965 46.287 218.248 47.2364 218.248C48.1964 218.248 49.0764 217.917 49.8764 217.256L50.2604 218.024C49.9084 218.355 49.4604 218.621 48.9164 218.824C48.3724 219.016 47.8124 219.112 47.2364 219.112C46.0204 219.112 45.0604 218.744 44.3564 218.008C43.6524 217.272 43.3004 216.259 43.3004 214.968C43.3004 214.147 43.455 213.421 43.7644 212.792C44.0844 212.152 44.527 211.661 45.0924 211.32C45.6577 210.968 46.3084 210.792 47.0444 210.792C48.1004 210.792 48.9217 211.133 49.5084 211.816C50.1057 212.499 50.4044 213.448 50.4044 214.664V214.872H44.3244ZM47.0444 211.592C46.3084 211.592 45.711 211.816 45.2524 212.264C44.7937 212.701 44.5057 213.32 44.3884 214.12H49.4764C49.4124 213.299 49.1724 212.675 48.7564 212.248C48.3404 211.811 47.7697 211.592 47.0444 211.592ZM59.2999 210.984V219H58.3239V217.464C58.0892 217.997 57.7319 218.408 57.2519 218.696C56.7825 218.973 56.2172 219.112 55.5559 219.112C54.8412 219.112 54.2119 218.947 53.6679 218.616C53.1345 218.275 52.7185 217.795 52.4199 217.176C52.1319 216.547 51.9879 215.816 51.9879 214.984C51.9879 214.152 52.1372 213.421 52.4359 212.792C52.7345 212.152 53.1505 211.661 53.6839 211.32C54.2279 210.968 54.8519 210.792 55.5559 210.792C56.2065 210.792 56.7665 210.931 57.2359 211.208C57.7159 211.485 58.0785 211.891 58.3239 212.424V210.984H59.2999ZM55.6999 218.248C56.5319 218.248 57.1772 217.96 57.6359 217.384C58.0945 216.808 58.3239 215.997 58.3239 214.952C58.3239 213.896 58.0945 213.08 57.6359 212.504C57.1772 211.928 56.5265 211.64 55.6839 211.64C54.8412 211.64 54.1852 211.939 53.7159 212.536C53.2465 213.123 53.0119 213.939 53.0119 214.984C53.0119 216.019 53.2465 216.824 53.7159 217.4C54.1852 217.965 54.8465 218.248 55.6999 218.248ZM61.953 207.224H62.913V219H61.953V207.224ZM66.9536 211.768V216.536C66.9536 217.176 67.0763 217.619 67.3216 217.864C67.567 218.109 67.9296 218.232 68.4096 218.232C68.7083 218.232 68.9963 218.184 69.2736 218.088V218.968C68.9323 219.053 68.5856 219.096 68.2336 219.096C67.5296 219.096 66.975 218.899 66.5696 218.504C66.175 218.109 65.9776 217.517 65.9776 216.728V211.768H64.3936V210.984H65.9776V208.856L66.9536 208.488V210.984H69.3216V211.768H66.9536ZM74.7123 210.792C76.6429 210.792 77.6083 211.827 77.6083 213.896V219H76.6323V213.96C76.6323 213.16 76.4669 212.573 76.1363 212.2C75.8163 211.827 75.3096 211.64 74.6163 211.64C73.8163 211.64 73.1709 211.885 72.6803 212.376C72.1896 212.867 71.9443 213.528 71.9443 214.36V219H70.9843V207.224H71.9443V212.376C72.2003 211.853 72.5683 211.459 73.0483 211.192C73.5283 210.925 74.0829 210.792 74.7123 210.792ZM91.1124 207.224V219H90.1364V217.464C89.9017 217.997 89.5444 218.408 89.0644 218.696C88.595 218.973 88.0297 219.112 87.3684 219.112C86.6644 219.112 86.0404 218.941 85.4964 218.6C84.963 218.248 84.547 217.757 84.2484 217.128C83.9497 216.488 83.8004 215.752 83.8004 214.92C83.8004 214.088 83.9444 213.363 84.2324 212.744C84.531 212.115 84.947 211.635 85.4804 211.304C86.0244 210.963 86.6537 210.792 87.3684 210.792C88.019 210.792 88.579 210.931 89.0484 211.208C89.5284 211.485 89.891 211.891 90.1364 212.424V207.224H91.1124ZM87.4964 218.248C88.339 218.248 88.9897 217.96 89.4484 217.384C89.907 216.808 90.1364 215.997 90.1364 214.952C90.1364 213.907 89.907 213.096 89.4484 212.52C88.9897 211.933 88.3444 211.64 87.5124 211.64C86.659 211.64 85.9977 211.928 85.5284 212.504C85.059 213.08 84.8244 213.885 84.8244 214.92C84.8244 215.965 85.059 216.781 85.5284 217.368C85.9977 217.955 86.6537 218.248 87.4964 218.248ZM100.566 210.984V219H99.5895V217.464C99.3548 217.997 98.9975 218.408 98.5175 218.696C98.0482 218.973 97.4828 219.112 96.8215 219.112C96.1068 219.112 95.4775 218.947 94.9335 218.616C94.4002 218.275 93.9842 217.795 93.6855 217.176C93.3975 216.547 93.2535 215.816 93.2535 214.984C93.2535 214.152 93.4028 213.421 93.7015 212.792C94.0002 212.152 94.4162 211.661 94.9495 211.32C95.4935 210.968 96.1175 210.792 96.8215 210.792C97.4722 210.792 98.0322 210.931 98.5015 211.208C98.9815 211.485 99.3442 211.891 99.5895 212.424V210.984H100.566ZM96.9655 218.248C97.7975 218.248 98.4428 217.96 98.9015 217.384C99.3602 216.808 99.5895 215.997 99.5895 214.952C99.5895 213.896 99.3602 213.08 98.9015 212.504C98.4428 211.928 97.7922 211.64 96.9495 211.64C96.1068 211.64 95.4508 211.939 94.9815 212.536C94.5122 213.123 94.2775 213.939 94.2775 214.984C94.2775 216.019 94.5122 216.824 94.9815 217.4C95.4508 217.965 96.1122 218.248 96.9655 218.248ZM104.579 211.768V216.536C104.579 217.176 104.701 217.619 104.947 217.864C105.192 218.109 105.555 218.232 106.035 218.232C106.333 218.232 106.621 218.184 106.899 218.088V218.968C106.557 219.053 106.211 219.096 105.859 219.096C105.155 219.096 104.6 218.899 104.195 218.504C103.8 218.109 103.603 217.517 103.603 216.728V211.768H102.019V210.984H103.603V208.856L104.579 208.488V210.984H106.947V211.768H104.579ZM115.409 210.984V219H114.433V217.464C114.199 217.997 113.841 218.408 113.361 218.696C112.892 218.973 112.327 219.112 111.665 219.112C110.951 219.112 110.321 218.947 109.777 218.616C109.244 218.275 108.828 217.795 108.529 217.176C108.241 216.547 108.097 215.816 108.097 214.984C108.097 214.152 108.247 213.421 108.545 212.792C108.844 212.152 109.26 211.661 109.793 211.32C110.337 210.968 110.961 210.792 111.665 210.792C112.316 210.792 112.876 210.931 113.345 211.208C113.825 211.485 114.188 211.891 114.433 212.424V210.984H115.409ZM111.809 218.248C112.641 218.248 113.287 217.96 113.745 217.384C114.204 216.808 114.433 215.997 114.433 214.952C114.433 213.896 114.204 213.08 113.745 212.504C113.287 211.928 112.636 211.64 111.793 211.64C110.951 211.64 110.295 211.939 109.825 212.536C109.356 213.123 109.121 213.939 109.121 214.984C109.121 216.019 109.356 216.824 109.825 217.4C110.295 217.965 110.956 218.248 111.809 218.248Z" fill="#7D7987"/>
<defs>
<linearGradient id="paint0_linear_0_1" x1="95" y1="126" x2="-6" y2="-5.5" gradientUnits="userSpaceOnUse">
<stop offset="0.3061" stop-color="#5BA7FC"/>
<stop offset="1" stop-color="#69B8FC"/>
</linearGradient>
<linearGradient id="paint1_linear_0_1" x1="8.6241" y1="7.04564" x2="57.9385" y2="78.0313" gradientUnits="userSpaceOnUse">
<stop offset="0.3061" stop-color="white"/>
<stop offset="1" stop-color="white"/>
</linearGradient>
<linearGradient id="paint2_linear_0_1" x1="10" y1="9.50003" x2="25" y2="34" gradientUnits="userSpaceOnUse">
<stop stop-color="#B0F4FF"/>
<stop offset="0.368525" stop-color="#80E4FD"/>
<stop offset="1" stop-color="#6CDDFC"/>
</linearGradient>
<linearGradient id="paint3_linear_0_1" x1="10.2906" y1="38.2072" x2="59.1355" y2="38.2072" gradientUnits="userSpaceOnUse">
<stop stop-color="#6CBCFC"/>
<stop offset="1" stop-color="#458DFC"/>
</linearGradient>
<linearGradient id="paint4_linear_0_1" x1="34.3248" y1="15.5844" x2="59.1355" y2="15.5844" gradientUnits="userSpaceOnUse">
<stop stop-color="#6CBCFC"/>
<stop offset="1" stop-color="#458DFC"/>
</linearGradient>
<linearGradient id="paint5_linear_0_1" x1="34.3248" y1="23.2616" x2="52.1256" y2="23.2616" gradientUnits="userSpaceOnUse">
<stop stop-color="#6CBCFC"/>
<stop offset="1" stop-color="#458DFC"/>
</linearGradient>
<linearGradient id="paint6_linear_0_1" x1="10.2906" y1="46.8317" x2="59.1355" y2="46.8317" gradientUnits="userSpaceOnUse">
<stop stop-color="#6CBCFC"/>
<stop offset="1" stop-color="#458DFC"/>
</linearGradient>
<linearGradient id="paint7_linear_0_1" x1="10.2906" y1="55.4562" x2="59.1355" y2="55.4562" gradientUnits="userSpaceOnUse">
<stop stop-color="#6CBCFC"/>
<stop offset="1" stop-color="#458DFC"/>
</linearGradient>
<linearGradient id="paint8_linear_0_1" x1="10.2906" y1="64.0807" x2="59.1355" y2="64.0807" gradientUnits="userSpaceOnUse">
<stop stop-color="#6CBCFC"/>
<stop offset="1" stop-color="#458DFC"/>
</linearGradient>
<linearGradient id="paint9_linear_0_1" x1="10.2906" y1="72.7052" x2="59.1355" y2="72.7052" gradientUnits="userSpaceOnUse">
<stop stop-color="#6CBCFC"/>
<stop offset="1" stop-color="#458DFC"/>
</linearGradient>
<linearGradient id="paint10_linear_0_1" x1="10.2906" y1="81.3297" x2="59.1355" y2="81.3297" gradientUnits="userSpaceOnUse">
<stop stop-color="#6CBCFC"/>
<stop offset="1" stop-color="#458DFC"/>
</linearGradient>
<clipPath id="clip0_0_1">
<rect width="69.4225" height="95" fill="white"/>
</clipPath>
</defs>
</svg>
